<?xml version="1.0" encoding="utf-8"?>
<svg xmlns="http://www.w3.org/2000/svg" xmlns:xlink="http://www.w3.org/1999/xlink" width="600" height="400" viewBox="0 0 2400 1600">
<defs>
  <clipPath id="clip250">
    <rect x="0" y="0" width="2400" height="1600"/>
  </clipPath>
</defs>
<path clip-path="url(#clip250)" d="M0 1600 L2400 1600 L2400 0 L0 0  Z" fill="#ffffff" fill-rule="evenodd" fill-opacity="1"/>
<defs>
  <clipPath id="clip251">
    <rect x="339" y="47" width="2014" height="1377"/>
  </clipPath>
</defs>
<path clip-path="url(#clip250)" d="M339.627 1423.18 L2352.76 1423.18 L2352.76 47.2441 L339.627 47.2441  Z" fill="#ffffff" fill-rule="evenodd" fill-opacity="1"/>
<polyline clip-path="url(#clip251)" style="stroke:#000000; stroke-linecap:round; stroke-linejoin:round; stroke-width:2; stroke-opacity:0.1; fill:none" points="396.602,1423.18 396.602,47.2441 "/>
<polyline clip-path="url(#clip251)" style="stroke:#000000; stroke-linecap:round; stroke-linejoin:round; stroke-width:2; stroke-opacity:0.1; fill:none" points="1029.66,1423.18 1029.66,47.2441 "/>
<polyline clip-path="url(#clip251)" style="stroke:#000000; stroke-linecap:round; stroke-linejoin:round; stroke-width:2; stroke-opacity:0.1; fill:none" points="1662.72,1423.18 1662.72,47.2441 "/>
<polyline clip-path="url(#clip251)" style="stroke:#000000; stroke-linecap:round; stroke-linejoin:round; stroke-width:2; stroke-opacity:0.1; fill:none" points="2295.78,1423.18 2295.78,47.2441 "/>
<polyline clip-path="url(#clip251)" style="stroke:#000000; stroke-linecap:round; stroke-linejoin:round; stroke-width:2; stroke-opacity:0.1; fill:none" points="339.627,1384.24 2352.76,1384.24 "/>
<polyline clip-path="url(#clip251)" style="stroke:#000000; stroke-linecap:round; stroke-linejoin:round; stroke-width:2; stroke-opacity:0.1; fill:none" points="339.627,1162.32 2352.76,1162.32 "/>
<polyline clip-path="url(#clip251)" style="stroke:#000000; stroke-linecap:round; stroke-linejoin:round; stroke-width:2; stroke-opacity:0.1; fill:none" points="339.627,940.392 2352.76,940.392 "/>
<polyline clip-path="url(#clip251)" style="stroke:#000000; stroke-linecap:round; stroke-linejoin:round; stroke-width:2; stroke-opacity:0.1; fill:none" points="339.627,718.469 2352.76,718.469 "/>
<polyline clip-path="url(#clip251)" style="stroke:#000000; stroke-linecap:round; stroke-linejoin:round; stroke-width:2; stroke-opacity:0.1; fill:none" points="339.627,496.546 2352.76,496.546 "/>
<polyline clip-path="url(#clip251)" style="stroke:#000000; stroke-linecap:round; stroke-linejoin:round; stroke-width:2; stroke-opacity:0.1; fill:none" points="339.627,274.622 2352.76,274.622 "/>
<polyline clip-path="url(#clip251)" style="stroke:#000000; stroke-linecap:round; stroke-linejoin:round; stroke-width:2; stroke-opacity:0.1; fill:none" points="339.627,52.6993 2352.76,52.6993 "/>
<polyline clip-path="url(#clip250)" style="stroke:#000000; stroke-linecap:round; stroke-linejoin:round; stroke-width:4; stroke-opacity:1; fill:none" points="339.627,1423.18 2352.76,1423.18 "/>
<polyline clip-path="url(#clip250)" style="stroke:#000000; stroke-linecap:round; stroke-linejoin:round; stroke-width:4; stroke-opacity:1; fill:none" points="396.602,1423.18 396.602,1404.28 "/>
<polyline clip-path="url(#clip250)" style="stroke:#000000; stroke-linecap:round; stroke-linejoin:round; stroke-width:4; stroke-opacity:1; fill:none" points="1029.66,1423.18 1029.66,1404.28 "/>
<polyline clip-path="url(#clip250)" style="stroke:#000000; stroke-linecap:round; stroke-linejoin:round; stroke-width:4; stroke-opacity:1; fill:none" points="1662.72,1423.18 1662.72,1404.28 "/>
<polyline clip-path="url(#clip250)" style="stroke:#000000; stroke-linecap:round; stroke-linejoin:round; stroke-width:4; stroke-opacity:1; fill:none" points="2295.78,1423.18 2295.78,1404.28 "/>
<path clip-path="url(#clip250)" d="M396.602 1454.1 Q392.991 1454.1 391.162 1457.66 Q389.357 1461.2 389.357 1468.33 Q389.357 1475.44 391.162 1479.01 Q392.991 1482.55 396.602 1482.55 Q400.236 1482.55 402.042 1479.01 Q403.871 1475.44 403.871 1468.33 Q403.871 1461.2 402.042 1457.66 Q400.236 1454.1 396.602 1454.1 M396.602 1450.39 Q402.412 1450.39 405.468 1455 Q408.547 1459.58 408.547 1468.33 Q408.547 1477.06 405.468 1481.67 Q402.412 1486.25 396.602 1486.25 Q390.792 1486.25 387.713 1481.67 Q384.658 1477.06 384.658 1468.33 Q384.658 1459.58 387.713 1455 Q390.792 1450.39 396.602 1450.39 Z" fill="#000000" fill-rule="nonzero" fill-opacity="1" /><path clip-path="url(#clip250)" d="M989.268 1481.64 L996.907 1481.64 L996.907 1455.28 L988.597 1456.95 L988.597 1452.69 L996.861 1451.02 L1001.54 1451.02 L1001.54 1481.64 L1009.18 1481.64 L1009.18 1485.58 L989.268 1485.58 L989.268 1481.64 Z" fill="#000000" fill-rule="nonzero" fill-opacity="1" /><path clip-path="url(#clip250)" d="M1028.62 1454.1 Q1025.01 1454.1 1023.18 1457.66 Q1021.37 1461.2 1021.37 1468.33 Q1021.37 1475.44 1023.18 1479.01 Q1025.01 1482.55 1028.62 1482.55 Q1032.25 1482.55 1034.06 1479.01 Q1035.89 1475.44 1035.89 1468.33 Q1035.89 1461.2 1034.06 1457.66 Q1032.25 1454.1 1028.62 1454.1 M1028.62 1450.39 Q1034.43 1450.39 1037.49 1455 Q1040.56 1459.58 1040.56 1468.33 Q1040.56 1477.06 1037.49 1481.67 Q1034.43 1486.25 1028.62 1486.25 Q1022.81 1486.25 1019.73 1481.67 Q1016.68 1477.06 1016.68 1468.33 Q1016.68 1459.58 1019.73 1455 Q1022.81 1450.39 1028.62 1450.39 Z" fill="#000000" fill-rule="nonzero" fill-opacity="1" /><path clip-path="url(#clip250)" d="M1058.78 1454.1 Q1055.17 1454.1 1053.34 1457.66 Q1051.54 1461.2 1051.54 1468.33 Q1051.54 1475.44 1053.34 1479.01 Q1055.17 1482.55 1058.78 1482.55 Q1062.42 1482.55 1064.22 1479.01 Q1066.05 1475.44 1066.05 1468.33 Q1066.05 1461.2 1064.22 1457.66 Q1062.42 1454.1 1058.78 1454.1 M1058.78 1450.39 Q1064.59 1450.39 1067.65 1455 Q1070.73 1459.58 1070.73 1468.33 Q1070.73 1477.06 1067.65 1481.67 Q1064.59 1486.25 1058.78 1486.25 Q1052.97 1486.25 1049.89 1481.67 Q1046.84 1477.06 1046.84 1468.33 Q1046.84 1459.58 1049.89 1455 Q1052.97 1450.39 1058.78 1450.39 Z" fill="#000000" fill-rule="nonzero" fill-opacity="1" /><path clip-path="url(#clip250)" d="M1626.41 1481.64 L1642.73 1481.64 L1642.73 1485.58 L1620.79 1485.58 L1620.79 1481.64 Q1623.45 1478.89 1628.03 1474.26 Q1632.64 1469.61 1633.82 1468.27 Q1636.07 1465.74 1636.95 1464.01 Q1637.85 1462.25 1637.85 1460.56 Q1637.85 1457.8 1635.9 1456.07 Q1633.98 1454.33 1630.88 1454.33 Q1628.68 1454.33 1626.23 1455.09 Q1623.8 1455.86 1621.02 1457.41 L1621.02 1452.69 Q1623.84 1451.55 1626.3 1450.97 Q1628.75 1450.39 1630.79 1450.39 Q1636.16 1450.39 1639.35 1453.08 Q1642.55 1455.77 1642.55 1460.26 Q1642.55 1462.39 1641.74 1464.31 Q1640.95 1466.2 1638.84 1468.8 Q1638.27 1469.47 1635.16 1472.69 Q1632.06 1475.88 1626.41 1481.64 Z" fill="#000000" fill-rule="nonzero" fill-opacity="1" /><path clip-path="url(#clip250)" d="M1662.55 1454.1 Q1658.94 1454.1 1657.11 1457.66 Q1655.3 1461.2 1655.3 1468.33 Q1655.3 1475.44 1657.11 1479.01 Q1658.94 1482.55 1662.55 1482.55 Q1666.18 1482.55 1667.99 1479.01 Q1669.82 1475.44 1669.82 1468.33 Q1669.82 1461.2 1667.99 1457.66 Q1666.18 1454.1 1662.55 1454.1 M1662.55 1450.39 Q1668.36 1450.39 1671.41 1455 Q1674.49 1459.58 1674.49 1468.33 Q1674.49 1477.06 1671.41 1481.67 Q1668.36 1486.25 1662.55 1486.25 Q1656.74 1486.25 1653.66 1481.67 Q1650.6 1477.06 1650.6 1468.33 Q1650.6 1459.58 1653.66 1455 Q1656.74 1450.39 1662.55 1450.39 Z" fill="#000000" fill-rule="nonzero" fill-opacity="1" /><path clip-path="url(#clip250)" d="M1692.71 1454.1 Q1689.1 1454.1 1687.27 1457.66 Q1685.46 1461.2 1685.46 1468.33 Q1685.46 1475.44 1687.27 1479.01 Q1689.1 1482.55 1692.71 1482.55 Q1696.34 1482.55 1698.15 1479.01 Q1699.98 1475.44 1699.98 1468.33 Q1699.98 1461.2 1698.15 1457.66 Q1696.34 1454.1 1692.71 1454.1 M1692.71 1450.39 Q1698.52 1450.39 1701.58 1455 Q1704.65 1459.58 1704.65 1468.33 Q1704.65 1477.06 1701.58 1481.67 Q1698.52 1486.25 1692.71 1486.25 Q1686.9 1486.25 1683.82 1481.67 Q1680.77 1477.06 1680.77 1468.33 Q1680.77 1459.58 1683.82 1455 Q1686.9 1450.39 1692.71 1450.39 Z" fill="#000000" fill-rule="nonzero" fill-opacity="1" /><path clip-path="url(#clip250)" d="M2269.54 1466.95 Q2272.9 1467.66 2274.77 1469.93 Q2276.67 1472.2 2276.67 1475.53 Q2276.67 1480.65 2273.15 1483.45 Q2269.63 1486.25 2263.15 1486.25 Q2260.98 1486.25 2258.66 1485.81 Q2256.37 1485.39 2253.92 1484.54 L2253.92 1480.02 Q2255.86 1481.16 2258.18 1481.74 Q2260.49 1482.32 2263.01 1482.32 Q2267.41 1482.32 2269.7 1480.58 Q2272.02 1478.84 2272.02 1475.53 Q2272.02 1472.48 2269.87 1470.77 Q2267.74 1469.03 2263.92 1469.03 L2259.89 1469.03 L2259.89 1465.19 L2264.1 1465.19 Q2267.55 1465.19 2269.38 1463.82 Q2271.21 1462.43 2271.21 1459.84 Q2271.21 1457.18 2269.31 1455.77 Q2267.44 1454.33 2263.92 1454.33 Q2262 1454.33 2259.8 1454.75 Q2257.6 1455.16 2254.96 1456.04 L2254.96 1451.88 Q2257.62 1451.14 2259.94 1450.77 Q2262.27 1450.39 2264.33 1450.39 Q2269.66 1450.39 2272.76 1452.83 Q2275.86 1455.23 2275.86 1459.35 Q2275.86 1462.22 2274.22 1464.21 Q2272.57 1466.18 2269.54 1466.95 Z" fill="#000000" fill-rule="nonzero" fill-opacity="1" /><path clip-path="url(#clip250)" d="M2295.54 1454.1 Q2291.93 1454.1 2290.1 1457.66 Q2288.29 1461.2 2288.29 1468.33 Q2288.29 1475.44 2290.1 1479.01 Q2291.93 1482.55 2295.54 1482.55 Q2299.17 1482.55 2300.98 1479.01 Q2302.81 1475.44 2302.81 1468.33 Q2302.81 1461.2 2300.98 1457.66 Q2299.17 1454.1 2295.54 1454.1 M2295.54 1450.39 Q2301.35 1450.39 2304.4 1455 Q2307.48 1459.58 2307.48 1468.33 Q2307.48 1477.06 2304.4 1481.67 Q2301.35 1486.25 2295.54 1486.25 Q2289.73 1486.25 2286.65 1481.67 Q2283.59 1477.06 2283.59 1468.33 Q2283.59 1459.58 2286.65 1455 Q2289.73 1450.39 2295.54 1450.39 Z" fill="#000000" fill-rule="nonzero" fill-opacity="1" /><path clip-path="url(#clip250)" d="M2325.7 1454.1 Q2322.09 1454.1 2320.26 1457.66 Q2318.45 1461.2 2318.45 1468.33 Q2318.45 1475.44 2320.26 1479.01 Q2322.09 1482.55 2325.7 1482.55 Q2329.33 1482.55 2331.14 1479.01 Q2332.97 1475.44 2332.97 1468.33 Q2332.97 1461.2 2331.14 1457.66 Q2329.33 1454.1 2325.7 1454.1 M2325.7 1450.39 Q2331.51 1450.39 2334.57 1455 Q2337.64 1459.58 2337.64 1468.33 Q2337.64 1477.06 2334.57 1481.67 Q2331.51 1486.25 2325.7 1486.25 Q2319.89 1486.25 2316.81 1481.67 Q2313.75 1477.06 2313.75 1468.33 Q2313.75 1459.58 2316.81 1455 Q2319.89 1450.39 2325.7 1450.39 Z" fill="#000000" fill-rule="nonzero" fill-opacity="1" /><path clip-path="url(#clip250)" d="M1156.41 1520.52 L1196.61 1520.52 L1196.61 1525.93 L1179.74 1525.93 L1179.74 1568.04 L1173.28 1568.04 L1173.28 1525.93 L1156.41 1525.93 L1156.41 1520.52 Z" fill="#000000" fill-rule="nonzero" fill-opacity="1" /><path clip-path="url(#clip250)" d="M1200.56 1532.4 L1206.42 1532.4 L1206.42 1568.04 L1200.56 1568.04 L1200.56 1532.4 M1200.56 1518.52 L1206.42 1518.52 L1206.42 1525.93 L1200.56 1525.93 L1200.56 1518.52 Z" fill="#000000" fill-rule="nonzero" fill-opacity="1" /><path clip-path="url(#clip250)" d="M1246.42 1539.24 Q1248.62 1535.29 1251.68 1533.41 Q1254.73 1531.54 1258.87 1531.54 Q1264.44 1531.54 1267.46 1535.45 Q1270.49 1539.33 1270.49 1546.53 L1270.49 1568.04 L1264.6 1568.04 L1264.6 1546.72 Q1264.6 1541.59 1262.78 1539.11 Q1260.97 1536.63 1257.25 1536.63 Q1252.7 1536.63 1250.05 1539.65 Q1247.41 1542.68 1247.41 1547.9 L1247.41 1568.04 L1241.52 1568.04 L1241.52 1546.72 Q1241.52 1541.56 1239.71 1539.11 Q1237.89 1536.63 1234.11 1536.63 Q1229.62 1536.63 1226.98 1539.68 Q1224.34 1542.71 1224.34 1547.9 L1224.34 1568.04 L1218.45 1568.04 L1218.45 1532.4 L1224.34 1532.4 L1224.34 1537.93 Q1226.34 1534.66 1229.14 1533.1 Q1231.94 1531.54 1235.79 1531.54 Q1239.68 1531.54 1242.38 1533.51 Q1245.12 1535.48 1246.42 1539.24 Z" fill="#000000" fill-rule="nonzero" fill-opacity="1" /><path clip-path="url(#clip250)" d="M1312.66 1548.76 L1312.66 1551.62 L1285.73 1551.62 Q1286.12 1557.67 1289.36 1560.85 Q1292.64 1564 1298.46 1564 Q1301.84 1564 1304.99 1563.17 Q1308.17 1562.35 1311.29 1560.69 L1311.29 1566.23 Q1308.14 1567.57 1304.83 1568.27 Q1301.52 1568.97 1298.11 1568.97 Q1289.58 1568.97 1284.59 1564 Q1279.62 1559.04 1279.62 1550.57 Q1279.62 1541.82 1284.33 1536.69 Q1289.08 1531.54 1297.1 1531.54 Q1304.29 1531.54 1308.46 1536.18 Q1312.66 1540.8 1312.66 1548.76 M1306.8 1547.04 Q1306.74 1542.23 1304.1 1539.37 Q1301.49 1536.5 1297.16 1536.5 Q1292.26 1536.5 1289.3 1539.27 Q1286.37 1542.04 1285.92 1547.07 L1306.8 1547.04 Z" fill="#000000" fill-rule="nonzero" fill-opacity="1" /><path clip-path="url(#clip250)" d="M1357.06 1518.58 Q1352.8 1525.9 1350.73 1533.06 Q1348.66 1540.23 1348.66 1547.58 Q1348.66 1554.93 1350.73 1562.16 Q1352.83 1569.35 1357.06 1576.64 L1351.97 1576.64 Q1347.19 1569.16 1344.81 1561.93 Q1342.45 1554.71 1342.45 1547.58 Q1342.45 1540.48 1344.81 1533.29 Q1347.16 1526.09 1351.97 1518.58 L1357.06 1518.58 Z" fill="#000000" fill-rule="nonzero" fill-opacity="1" /><path clip-path="url(#clip250)" d="M1391.88 1537.81 L1391.88 1518.52 L1397.74 1518.52 L1397.74 1568.04 L1391.88 1568.04 L1391.88 1562.7 Q1390.04 1565.88 1387.2 1567.44 Q1384.4 1568.97 1380.45 1568.97 Q1373.99 1568.97 1369.92 1563.81 Q1365.88 1558.65 1365.88 1550.25 Q1365.88 1541.85 1369.92 1536.69 Q1373.99 1531.54 1380.45 1531.54 Q1384.4 1531.54 1387.2 1533.1 Q1390.04 1534.62 1391.88 1537.81 M1371.92 1550.25 Q1371.92 1556.71 1374.57 1560.4 Q1377.24 1564.07 1381.89 1564.07 Q1386.53 1564.07 1389.21 1560.4 Q1391.88 1556.71 1391.88 1550.25 Q1391.88 1543.79 1389.21 1540.13 Q1386.53 1536.44 1381.89 1536.44 Q1377.24 1536.44 1374.57 1540.13 Q1371.92 1543.79 1371.92 1550.25 Z" fill="#000000" fill-rule="nonzero" fill-opacity="1" /><path clip-path="url(#clip250)" d="M1426 1550.12 Q1418.9 1550.12 1416.17 1551.75 Q1413.43 1553.37 1413.43 1557.29 Q1413.43 1560.4 1415.47 1562.25 Q1417.54 1564.07 1421.07 1564.07 Q1425.94 1564.07 1428.87 1560.63 Q1431.83 1557.16 1431.83 1551.43 L1431.83 1550.12 L1426 1550.12 M1437.68 1547.71 L1437.68 1568.04 L1431.83 1568.04 L1431.83 1562.63 Q1429.82 1565.88 1426.83 1567.44 Q1423.84 1568.97 1419.51 1568.97 Q1414.03 1568.97 1410.79 1565.91 Q1407.57 1562.82 1407.57 1557.67 Q1407.57 1551.65 1411.58 1548.6 Q1415.63 1545.54 1423.61 1545.54 L1431.83 1545.54 L1431.83 1544.97 Q1431.83 1540.93 1429.15 1538.73 Q1426.51 1536.5 1421.7 1536.5 Q1418.65 1536.5 1415.75 1537.23 Q1412.86 1537.97 1410.18 1539.43 L1410.18 1534.02 Q1413.4 1532.78 1416.42 1532.17 Q1419.44 1531.54 1422.31 1531.54 Q1430.04 1531.54 1433.86 1535.55 Q1437.68 1539.56 1437.68 1547.71 Z" fill="#000000" fill-rule="nonzero" fill-opacity="1" /><path clip-path="url(#clip250)" d="M1464.58 1571.35 Q1462.1 1577.72 1459.74 1579.66 Q1457.38 1581.6 1453.44 1581.6 L1448.76 1581.6 L1448.76 1576.7 L1452.2 1576.7 Q1454.62 1576.7 1455.95 1575.56 Q1457.29 1574.41 1458.91 1570.14 L1459.96 1567.47 L1445.54 1532.4 L1451.75 1532.4 L1462.89 1560.28 L1474.03 1532.4 L1480.24 1532.4 L1464.58 1571.35 Z" fill="#000000" fill-rule="nonzero" fill-opacity="1" /><path clip-path="url(#clip250)" d="M1511.05 1533.45 L1511.05 1538.98 Q1508.56 1537.71 1505.89 1537.07 Q1503.22 1536.44 1500.35 1536.44 Q1495.99 1536.44 1493.8 1537.77 Q1491.63 1539.11 1491.63 1541.79 Q1491.63 1543.82 1493.19 1545 Q1494.75 1546.15 1499.46 1547.2 L1501.47 1547.64 Q1507.71 1548.98 1510.32 1551.43 Q1512.96 1553.85 1512.96 1558.21 Q1512.96 1563.17 1509.01 1566.07 Q1505.1 1568.97 1498.22 1568.97 Q1495.36 1568.97 1492.24 1568.39 Q1489.15 1567.85 1485.71 1566.74 L1485.71 1560.69 Q1488.96 1562.38 1492.11 1563.24 Q1495.26 1564.07 1498.35 1564.07 Q1502.49 1564.07 1504.71 1562.66 Q1506.94 1561.23 1506.94 1558.65 Q1506.94 1556.27 1505.32 1554.99 Q1503.73 1553.72 1498.28 1552.54 L1496.25 1552.07 Q1490.8 1550.92 1488.39 1548.56 Q1485.97 1546.18 1485.97 1542.04 Q1485.97 1537.01 1489.53 1534.27 Q1493.1 1531.54 1499.65 1531.54 Q1502.9 1531.54 1505.76 1532.01 Q1508.63 1532.49 1511.05 1533.45 Z" fill="#000000" fill-rule="nonzero" fill-opacity="1" /><path clip-path="url(#clip250)" d="M1521.36 1518.58 L1526.45 1518.58 Q1531.23 1526.09 1533.58 1533.29 Q1535.97 1540.48 1535.97 1547.58 Q1535.97 1554.71 1533.58 1561.93 Q1531.23 1569.16 1526.45 1576.64 L1521.36 1576.64 Q1525.59 1569.35 1527.66 1562.16 Q1529.76 1554.93 1529.76 1547.58 Q1529.76 1540.23 1527.66 1533.06 Q1525.59 1525.9 1521.36 1518.58 Z" fill="#000000" fill-rule="nonzero" fill-opacity="1" /><polyline clip-path="url(#clip250)" style="stroke:#000000; stroke-linecap:round; stroke-linejoin:round; stroke-width:4; stroke-opacity:1; fill:none" points="339.627,1423.18 339.627,47.2441 "/>
<polyline clip-path="url(#clip250)" style="stroke:#000000; stroke-linecap:round; stroke-linejoin:round; stroke-width:4; stroke-opacity:1; fill:none" points="339.627,1384.24 358.525,1384.24 "/>
<polyline clip-path="url(#clip250)" style="stroke:#000000; stroke-linecap:round; stroke-linejoin:round; stroke-width:4; stroke-opacity:1; fill:none" points="339.627,1162.32 358.525,1162.32 "/>
<polyline clip-path="url(#clip250)" style="stroke:#000000; stroke-linecap:round; stroke-linejoin:round; stroke-width:4; stroke-opacity:1; fill:none" points="339.627,940.392 358.525,940.392 "/>
<polyline clip-path="url(#clip250)" style="stroke:#000000; stroke-linecap:round; stroke-linejoin:round; stroke-width:4; stroke-opacity:1; fill:none" points="339.627,718.469 358.525,718.469 "/>
<polyline clip-path="url(#clip250)" style="stroke:#000000; stroke-linecap:round; stroke-linejoin:round; stroke-width:4; stroke-opacity:1; fill:none" points="339.627,496.546 358.525,496.546 "/>
<polyline clip-path="url(#clip250)" style="stroke:#000000; stroke-linecap:round; stroke-linejoin:round; stroke-width:4; stroke-opacity:1; fill:none" points="339.627,274.622 358.525,274.622 "/>
<polyline clip-path="url(#clip250)" style="stroke:#000000; stroke-linecap:round; stroke-linejoin:round; stroke-width:4; stroke-opacity:1; fill:none" points="339.627,52.6993 358.525,52.6993 "/>
<path clip-path="url(#clip250)" d="M291.683 1370.04 Q288.071 1370.04 286.243 1373.6 Q284.437 1377.14 284.437 1384.27 Q284.437 1391.38 286.243 1394.94 Q288.071 1398.49 291.683 1398.49 Q295.317 1398.49 297.122 1394.94 Q298.951 1391.38 298.951 1384.27 Q298.951 1377.14 297.122 1373.6 Q295.317 1370.04 291.683 1370.04 M291.683 1366.33 Q297.493 1366.33 300.548 1370.94 Q303.627 1375.52 303.627 1384.27 Q303.627 1393 300.548 1397.61 Q297.493 1402.19 291.683 1402.19 Q285.872 1402.19 282.794 1397.61 Q279.738 1393 279.738 1384.27 Q279.738 1375.52 282.794 1370.94 Q285.872 1366.33 291.683 1366.33 Z" fill="#000000" fill-rule="nonzero" fill-opacity="1" /><path clip-path="url(#clip250)" d="M117.825 1182.11 L125.464 1182.11 L125.464 1155.74 L117.154 1157.41 L117.154 1153.15 L125.418 1151.48 L130.093 1151.48 L130.093 1182.11 L137.732 1182.11 L137.732 1186.04 L117.825 1186.04 L117.825 1182.11 Z" fill="#000000" fill-rule="nonzero" fill-opacity="1" /><path clip-path="url(#clip250)" d="M147.177 1180.16 L152.061 1180.16 L152.061 1186.04 L147.177 1186.04 L147.177 1180.16 Z" fill="#000000" fill-rule="nonzero" fill-opacity="1" /><path clip-path="url(#clip250)" d="M172.246 1154.56 Q168.635 1154.56 166.806 1158.13 Q165.001 1161.67 165.001 1168.8 Q165.001 1175.9 166.806 1179.47 Q168.635 1183.01 172.246 1183.01 Q175.88 1183.01 177.686 1179.47 Q179.514 1175.9 179.514 1168.8 Q179.514 1161.67 177.686 1158.13 Q175.88 1154.56 172.246 1154.56 M172.246 1150.86 Q178.056 1150.86 181.112 1155.46 Q184.19 1160.05 184.19 1168.8 Q184.19 1177.52 181.112 1182.13 Q178.056 1186.71 172.246 1186.71 Q166.436 1186.71 163.357 1182.13 Q160.302 1177.52 160.302 1168.8 Q160.302 1160.05 163.357 1155.46 Q166.436 1150.86 172.246 1150.86 Z" fill="#000000" fill-rule="nonzero" fill-opacity="1" /><path clip-path="url(#clip250)" d="M220.579 1160.58 L210 1171.2 L220.579 1181.78 L217.824 1184.58 L207.199 1173.96 L196.575 1184.58 L193.843 1181.78 L204.399 1171.2 L193.843 1160.58 L196.575 1157.78 L207.199 1168.4 L217.824 1157.78 L220.579 1160.58 Z" fill="#000000" fill-rule="nonzero" fill-opacity="1" /><path clip-path="url(#clip250)" d="M232.94 1182.11 L240.579 1182.11 L240.579 1155.74 L232.269 1157.41 L232.269 1153.15 L240.533 1151.48 L245.209 1151.48 L245.209 1182.11 L252.847 1182.11 L252.847 1186.04 L232.94 1186.04 L232.94 1182.11 Z" fill="#000000" fill-rule="nonzero" fill-opacity="1" /><path clip-path="url(#clip250)" d="M272.292 1154.56 Q268.681 1154.56 266.852 1158.13 Q265.046 1161.67 265.046 1168.8 Q265.046 1175.9 266.852 1179.47 Q268.681 1183.01 272.292 1183.01 Q275.926 1183.01 277.732 1179.47 Q279.56 1175.9 279.56 1168.8 Q279.56 1161.67 277.732 1158.13 Q275.926 1154.56 272.292 1154.56 M272.292 1150.86 Q278.102 1150.86 281.157 1155.46 Q284.236 1160.05 284.236 1168.8 Q284.236 1177.52 281.157 1182.13 Q278.102 1186.71 272.292 1186.71 Q266.482 1186.71 263.403 1182.13 Q260.347 1177.52 260.347 1168.8 Q260.347 1160.05 263.403 1155.46 Q266.482 1150.86 272.292 1150.86 Z" fill="#000000" fill-rule="nonzero" fill-opacity="1" /><path clip-path="url(#clip250)" d="M294.261 1143.08 Q291.703 1143.08 290.198 1144.83 Q288.712 1146.58 288.712 1149.62 Q288.712 1152.65 290.198 1154.42 Q291.703 1156.17 294.261 1156.17 Q296.818 1156.17 298.304 1154.42 Q299.809 1152.65 299.809 1149.62 Q299.809 1146.58 298.304 1144.83 Q296.818 1143.08 294.261 1143.08 M301.803 1131.17 L301.803 1134.63 Q300.373 1133.96 298.906 1133.6 Q297.458 1133.24 296.029 1133.24 Q292.267 1133.24 290.273 1135.78 Q288.299 1138.32 288.016 1143.45 Q289.126 1141.82 290.8 1140.95 Q292.474 1140.07 294.486 1140.07 Q298.718 1140.07 301.163 1142.65 Q303.627 1145.2 303.627 1149.62 Q303.627 1153.95 301.069 1156.56 Q298.511 1159.18 294.261 1159.18 Q289.389 1159.18 286.813 1155.45 Q284.236 1151.71 284.236 1144.62 Q284.236 1137.96 287.396 1134.01 Q290.556 1130.04 295.878 1130.04 Q297.307 1130.04 298.756 1130.33 Q300.223 1130.61 301.803 1131.17 Z" fill="#000000" fill-rule="nonzero" fill-opacity="1" /><path clip-path="url(#clip250)" d="M121.043 960.184 L137.362 960.184 L137.362 964.12 L115.418 964.12 L115.418 960.184 Q118.08 957.43 122.663 952.8 Q127.269 948.147 128.45 946.805 Q130.695 944.282 131.575 942.546 Q132.478 940.786 132.478 939.097 Q132.478 936.342 130.533 934.606 Q128.612 932.87 125.51 932.87 Q123.311 932.87 120.857 933.634 Q118.427 934.397 115.649 935.948 L115.649 931.226 Q118.473 930.092 120.927 929.513 Q123.38 928.935 125.418 928.935 Q130.788 928.935 133.982 931.62 Q137.177 934.305 137.177 938.796 Q137.177 940.925 136.367 942.847 Q135.579 944.745 133.473 947.337 Q132.894 948.009 129.792 951.226 Q126.691 954.421 121.043 960.184 Z" fill="#000000" fill-rule="nonzero" fill-opacity="1" /><path clip-path="url(#clip250)" d="M147.177 958.24 L152.061 958.24 L152.061 964.12 L147.177 964.12 L147.177 958.24 Z" fill="#000000" fill-rule="nonzero" fill-opacity="1" /><path clip-path="url(#clip250)" d="M172.246 932.638 Q168.635 932.638 166.806 936.203 Q165.001 939.745 165.001 946.874 Q165.001 953.981 166.806 957.546 Q168.635 961.087 172.246 961.087 Q175.88 961.087 177.686 957.546 Q179.514 953.981 179.514 946.874 Q179.514 939.745 177.686 936.203 Q175.88 932.638 172.246 932.638 M172.246 928.935 Q178.056 928.935 181.112 933.541 Q184.19 938.124 184.19 946.874 Q184.19 955.601 181.112 960.208 Q178.056 964.791 172.246 964.791 Q166.436 964.791 163.357 960.208 Q160.302 955.601 160.302 946.874 Q160.302 938.124 163.357 933.541 Q166.436 928.935 172.246 928.935 Z" fill="#000000" fill-rule="nonzero" fill-opacity="1" /><path clip-path="url(#clip250)" d="M220.579 938.657 L210 949.282 L220.579 959.86 L217.824 962.661 L207.199 952.036 L196.575 962.661 L193.843 959.86 L204.399 949.282 L193.843 938.657 L196.575 935.856 L207.199 946.481 L217.824 935.856 L220.579 938.657 Z" fill="#000000" fill-rule="nonzero" fill-opacity="1" /><path clip-path="url(#clip250)" d="M232.94 960.184 L240.579 960.184 L240.579 933.819 L232.269 935.485 L232.269 931.226 L240.533 929.56 L245.209 929.56 L245.209 960.184 L252.847 960.184 L252.847 964.12 L232.94 964.12 L232.94 960.184 Z" fill="#000000" fill-rule="nonzero" fill-opacity="1" /><path clip-path="url(#clip250)" d="M272.292 932.638 Q268.681 932.638 266.852 936.203 Q265.046 939.745 265.046 946.874 Q265.046 953.981 266.852 957.546 Q268.681 961.087 272.292 961.087 Q275.926 961.087 277.732 957.546 Q279.56 953.981 279.56 946.874 Q279.56 939.745 277.732 936.203 Q275.926 932.638 272.292 932.638 M272.292 928.935 Q278.102 928.935 281.157 933.541 Q284.236 938.124 284.236 946.874 Q284.236 955.601 281.157 960.208 Q278.102 964.791 272.292 964.791 Q266.482 964.791 263.403 960.208 Q260.347 955.601 260.347 946.874 Q260.347 938.124 263.403 933.541 Q266.482 928.935 272.292 928.935 Z" fill="#000000" fill-rule="nonzero" fill-opacity="1" /><path clip-path="url(#clip250)" d="M294.261 921.155 Q291.703 921.155 290.198 922.904 Q288.712 924.653 288.712 927.7 Q288.712 930.728 290.198 932.496 Q291.703 934.245 294.261 934.245 Q296.818 934.245 298.304 932.496 Q299.809 930.728 299.809 927.7 Q299.809 924.653 298.304 922.904 Q296.818 921.155 294.261 921.155 M301.803 909.25 L301.803 912.71 Q300.373 912.033 298.906 911.676 Q297.458 911.319 296.029 911.319 Q292.267 911.319 290.273 913.858 Q288.299 916.397 288.016 921.531 Q289.126 919.895 290.8 919.03 Q292.474 918.146 294.486 918.146 Q298.718 918.146 301.163 920.723 Q303.627 923.28 303.627 927.7 Q303.627 932.026 301.069 934.64 Q298.511 937.255 294.261 937.255 Q289.389 937.255 286.813 933.531 Q284.236 929.788 284.236 922.697 Q284.236 916.039 287.396 912.09 Q290.556 908.121 295.878 908.121 Q297.307 908.121 298.756 908.403 Q300.223 908.686 301.803 909.25 Z" fill="#000000" fill-rule="nonzero" fill-opacity="1" /><path clip-path="url(#clip250)" d="M131.181 723.562 Q134.538 724.28 136.413 726.548 Q138.311 728.817 138.311 732.15 Q138.311 737.266 134.792 740.067 Q131.274 742.868 124.793 742.868 Q122.617 742.868 120.302 742.428 Q118.01 742.011 115.556 741.155 L115.556 736.641 Q117.501 737.775 119.816 738.354 Q122.13 738.933 124.654 738.933 Q129.052 738.933 131.343 737.196 Q133.658 735.46 133.658 732.15 Q133.658 729.095 131.505 727.382 Q129.376 725.646 125.556 725.646 L121.529 725.646 L121.529 721.803 L125.742 721.803 Q129.191 721.803 131.019 720.437 Q132.848 719.048 132.848 716.456 Q132.848 713.794 130.95 712.382 Q129.075 710.947 125.556 710.947 Q123.635 710.947 121.436 711.363 Q119.237 711.78 116.598 712.66 L116.598 708.493 Q119.26 707.752 121.575 707.382 Q123.913 707.011 125.973 707.011 Q131.297 707.011 134.399 709.442 Q137.501 711.849 137.501 715.97 Q137.501 718.84 135.857 720.831 Q134.214 722.798 131.181 723.562 Z" fill="#000000" fill-rule="nonzero" fill-opacity="1" /><path clip-path="url(#clip250)" d="M147.177 736.317 L152.061 736.317 L152.061 742.196 L147.177 742.196 L147.177 736.317 Z" fill="#000000" fill-rule="nonzero" fill-opacity="1" /><path clip-path="url(#clip250)" d="M172.246 710.715 Q168.635 710.715 166.806 714.28 Q165.001 717.822 165.001 724.951 Q165.001 732.058 166.806 735.622 Q168.635 739.164 172.246 739.164 Q175.88 739.164 177.686 735.622 Q179.514 732.058 179.514 724.951 Q179.514 717.822 177.686 714.28 Q175.88 710.715 172.246 710.715 M172.246 707.011 Q178.056 707.011 181.112 711.618 Q184.19 716.201 184.19 724.951 Q184.19 733.678 181.112 738.284 Q178.056 742.868 172.246 742.868 Q166.436 742.868 163.357 738.284 Q160.302 733.678 160.302 724.951 Q160.302 716.201 163.357 711.618 Q166.436 707.011 172.246 707.011 Z" fill="#000000" fill-rule="nonzero" fill-opacity="1" /><path clip-path="url(#clip250)" d="M220.579 716.734 L210 727.359 L220.579 737.937 L217.824 740.738 L207.199 730.113 L196.575 740.738 L193.843 737.937 L204.399 727.359 L193.843 716.734 L196.575 713.933 L207.199 724.558 L217.824 713.933 L220.579 716.734 Z" fill="#000000" fill-rule="nonzero" fill-opacity="1" /><path clip-path="url(#clip250)" d="M232.94 738.261 L240.579 738.261 L240.579 711.896 L232.269 713.562 L232.269 709.303 L240.533 707.636 L245.209 707.636 L245.209 738.261 L252.847 738.261 L252.847 742.196 L232.94 742.196 L232.94 738.261 Z" fill="#000000" fill-rule="nonzero" fill-opacity="1" /><path clip-path="url(#clip250)" d="M272.292 710.715 Q268.681 710.715 266.852 714.28 Q265.046 717.822 265.046 724.951 Q265.046 732.058 266.852 735.622 Q268.681 739.164 272.292 739.164 Q275.926 739.164 277.732 735.622 Q279.56 732.058 279.56 724.951 Q279.56 717.822 277.732 714.28 Q275.926 710.715 272.292 710.715 M272.292 707.011 Q278.102 707.011 281.157 711.618 Q284.236 716.201 284.236 724.951 Q284.236 733.678 281.157 738.284 Q278.102 742.868 272.292 742.868 Q266.482 742.868 263.403 738.284 Q260.347 733.678 260.347 724.951 Q260.347 716.201 263.403 711.618 Q266.482 707.011 272.292 707.011 Z" fill="#000000" fill-rule="nonzero" fill-opacity="1" /><path clip-path="url(#clip250)" d="M294.261 699.232 Q291.703 699.232 290.198 700.981 Q288.712 702.73 288.712 705.777 Q288.712 708.805 290.198 710.573 Q291.703 712.322 294.261 712.322 Q296.818 712.322 298.304 710.573 Q299.809 708.805 299.809 705.777 Q299.809 702.73 298.304 700.981 Q296.818 699.232 294.261 699.232 M301.803 687.327 L301.803 690.787 Q300.373 690.11 298.906 689.753 Q297.458 689.396 296.029 689.396 Q292.267 689.396 290.273 691.935 Q288.299 694.474 288.016 699.608 Q289.126 697.972 290.8 697.107 Q292.474 696.223 294.486 696.223 Q298.718 696.223 301.163 698.799 Q303.627 701.357 303.627 705.777 Q303.627 710.103 301.069 712.717 Q298.511 715.331 294.261 715.331 Q289.389 715.331 286.813 711.607 Q284.236 707.865 284.236 700.774 Q284.236 694.116 287.396 690.167 Q290.556 686.198 295.878 686.198 Q297.307 686.198 298.756 686.48 Q300.223 686.762 301.803 687.327 Z" fill="#000000" fill-rule="nonzero" fill-opacity="1" /><path clip-path="url(#clip250)" d="M129.862 489.787 L118.056 508.236 L129.862 508.236 L129.862 489.787 M128.635 485.713 L134.515 485.713 L134.515 508.236 L139.445 508.236 L139.445 512.125 L134.515 512.125 L134.515 520.273 L129.862 520.273 L129.862 512.125 L114.26 512.125 L114.26 507.611 L128.635 485.713 Z" fill="#000000" fill-rule="nonzero" fill-opacity="1" /><path clip-path="url(#clip250)" d="M147.177 514.394 L152.061 514.394 L152.061 520.273 L147.177 520.273 L147.177 514.394 Z" fill="#000000" fill-rule="nonzero" fill-opacity="1" /><path clip-path="url(#clip250)" d="M172.246 488.792 Q168.635 488.792 166.806 492.357 Q165.001 495.898 165.001 503.028 Q165.001 510.134 166.806 513.699 Q168.635 517.241 172.246 517.241 Q175.88 517.241 177.686 513.699 Q179.514 510.134 179.514 503.028 Q179.514 495.898 177.686 492.357 Q175.88 488.792 172.246 488.792 M172.246 485.088 Q178.056 485.088 181.112 489.695 Q184.19 494.278 184.19 503.028 Q184.19 511.755 181.112 516.361 Q178.056 520.945 172.246 520.945 Q166.436 520.945 163.357 516.361 Q160.302 511.755 160.302 503.028 Q160.302 494.278 163.357 489.695 Q166.436 485.088 172.246 485.088 Z" fill="#000000" fill-rule="nonzero" fill-opacity="1" /><path clip-path="url(#clip250)" d="M220.579 494.81 L210 505.435 L220.579 516.014 L217.824 518.815 L207.199 508.19 L196.575 518.815 L193.843 516.014 L204.399 505.435 L193.843 494.81 L196.575 492.01 L207.199 502.634 L217.824 492.01 L220.579 494.81 Z" fill="#000000" fill-rule="nonzero" fill-opacity="1" /><path clip-path="url(#clip250)" d="M232.94 516.338 L240.579 516.338 L240.579 489.972 L232.269 491.639 L232.269 487.38 L240.533 485.713 L245.209 485.713 L245.209 516.338 L252.847 516.338 L252.847 520.273 L232.94 520.273 L232.94 516.338 Z" fill="#000000" fill-rule="nonzero" fill-opacity="1" /><path clip-path="url(#clip250)" d="M272.292 488.792 Q268.681 488.792 266.852 492.357 Q265.046 495.898 265.046 503.028 Q265.046 510.134 266.852 513.699 Q268.681 517.241 272.292 517.241 Q275.926 517.241 277.732 513.699 Q279.56 510.134 279.56 503.028 Q279.56 495.898 277.732 492.357 Q275.926 488.792 272.292 488.792 M272.292 485.088 Q278.102 485.088 281.157 489.695 Q284.236 494.278 284.236 503.028 Q284.236 511.755 281.157 516.361 Q278.102 520.945 272.292 520.945 Q266.482 520.945 263.403 516.361 Q260.347 511.755 260.347 503.028 Q260.347 494.278 263.403 489.695 Q266.482 485.088 272.292 485.088 Z" fill="#000000" fill-rule="nonzero" fill-opacity="1" /><path clip-path="url(#clip250)" d="M294.261 477.309 Q291.703 477.309 290.198 479.058 Q288.712 480.807 288.712 483.854 Q288.712 486.882 290.198 488.65 Q291.703 490.399 294.261 490.399 Q296.818 490.399 298.304 488.65 Q299.809 486.882 299.809 483.854 Q299.809 480.807 298.304 479.058 Q296.818 477.309 294.261 477.309 M301.803 465.404 L301.803 468.864 Q300.373 468.187 298.906 467.83 Q297.458 467.472 296.029 467.472 Q292.267 467.472 290.273 470.011 Q288.299 472.55 288.016 477.685 Q289.126 476.049 290.8 475.184 Q292.474 474.3 294.486 474.3 Q298.718 474.3 301.163 476.876 Q303.627 479.434 303.627 483.854 Q303.627 488.18 301.069 490.794 Q298.511 493.408 294.261 493.408 Q289.389 493.408 286.813 489.684 Q284.236 485.942 284.236 478.851 Q284.236 472.193 287.396 468.243 Q290.556 464.275 295.878 464.275 Q297.307 464.275 298.756 464.557 Q300.223 464.839 301.803 465.404 Z" fill="#000000" fill-rule="nonzero" fill-opacity="1" /><path clip-path="url(#clip250)" d="M117.061 263.79 L135.417 263.79 L135.417 267.725 L121.343 267.725 L121.343 276.197 Q122.362 275.85 123.38 275.688 Q124.399 275.503 125.418 275.503 Q131.205 275.503 134.584 278.674 Q137.964 281.846 137.964 287.262 Q137.964 292.841 134.492 295.943 Q131.019 299.021 124.7 299.021 Q122.524 299.021 120.255 298.651 Q118.01 298.281 115.603 297.54 L115.603 292.841 Q117.686 293.975 119.908 294.531 Q122.13 295.086 124.607 295.086 Q128.612 295.086 130.95 292.98 Q133.288 290.873 133.288 287.262 Q133.288 283.651 130.95 281.545 Q128.612 279.438 124.607 279.438 Q122.732 279.438 120.857 279.855 Q119.006 280.271 117.061 281.151 L117.061 263.79 Z" fill="#000000" fill-rule="nonzero" fill-opacity="1" /><path clip-path="url(#clip250)" d="M147.177 292.47 L152.061 292.47 L152.061 298.35 L147.177 298.35 L147.177 292.47 Z" fill="#000000" fill-rule="nonzero" fill-opacity="1" /><path clip-path="url(#clip250)" d="M172.246 266.869 Q168.635 266.869 166.806 270.434 Q165.001 273.975 165.001 281.105 Q165.001 288.211 166.806 291.776 Q168.635 295.318 172.246 295.318 Q175.88 295.318 177.686 291.776 Q179.514 288.211 179.514 281.105 Q179.514 273.975 177.686 270.434 Q175.88 266.869 172.246 266.869 M172.246 263.165 Q178.056 263.165 181.112 267.772 Q184.19 272.355 184.19 281.105 Q184.19 289.832 181.112 294.438 Q178.056 299.021 172.246 299.021 Q166.436 299.021 163.357 294.438 Q160.302 289.832 160.302 281.105 Q160.302 272.355 163.357 267.772 Q166.436 263.165 172.246 263.165 Z" fill="#000000" fill-rule="nonzero" fill-opacity="1" /><path clip-path="url(#clip250)" d="M220.579 272.887 L210 283.512 L220.579 294.091 L217.824 296.892 L207.199 286.267 L196.575 296.892 L193.843 294.091 L204.399 283.512 L193.843 272.887 L196.575 270.086 L207.199 280.711 L217.824 270.086 L220.579 272.887 Z" fill="#000000" fill-rule="nonzero" fill-opacity="1" /><path clip-path="url(#clip250)" d="M232.94 294.415 L240.579 294.415 L240.579 268.049 L232.269 269.716 L232.269 265.457 L240.533 263.79 L245.209 263.79 L245.209 294.415 L252.847 294.415 L252.847 298.35 L232.94 298.35 L232.94 294.415 Z" fill="#000000" fill-rule="nonzero" fill-opacity="1" /><path clip-path="url(#clip250)" d="M272.292 266.869 Q268.681 266.869 266.852 270.434 Q265.046 273.975 265.046 281.105 Q265.046 288.211 266.852 291.776 Q268.681 295.318 272.292 295.318 Q275.926 295.318 277.732 291.776 Q279.56 288.211 279.56 281.105 Q279.56 273.975 277.732 270.434 Q275.926 266.869 272.292 266.869 M272.292 263.165 Q278.102 263.165 281.157 267.772 Q284.236 272.355 284.236 281.105 Q284.236 289.832 281.157 294.438 Q278.102 299.021 272.292 299.021 Q266.482 299.021 263.403 294.438 Q260.347 289.832 260.347 281.105 Q260.347 272.355 263.403 267.772 Q266.482 263.165 272.292 263.165 Z" fill="#000000" fill-rule="nonzero" fill-opacity="1" /><path clip-path="url(#clip250)" d="M294.261 255.386 Q291.703 255.386 290.198 257.135 Q288.712 258.884 288.712 261.931 Q288.712 264.959 290.198 266.727 Q291.703 268.476 294.261 268.476 Q296.818 268.476 298.304 266.727 Q299.809 264.959 299.809 261.931 Q299.809 258.884 298.304 257.135 Q296.818 255.386 294.261 255.386 M301.803 243.48 L301.803 246.941 Q300.373 246.264 298.906 245.907 Q297.458 245.549 296.029 245.549 Q292.267 245.549 290.273 248.088 Q288.299 250.627 288.016 255.762 Q289.126 254.126 290.8 253.26 Q292.474 252.376 294.486 252.376 Q298.718 252.376 301.163 254.953 Q303.627 257.511 303.627 261.931 Q303.627 266.257 301.069 268.871 Q298.511 271.485 294.261 271.485 Q289.389 271.485 286.813 267.761 Q284.236 264.018 284.236 256.928 Q284.236 250.27 287.396 246.32 Q290.556 242.352 295.878 242.352 Q297.307 242.352 298.756 242.634 Q300.223 242.916 301.803 243.48 Z" fill="#000000" fill-rule="nonzero" fill-opacity="1" /><path clip-path="url(#clip250)" d="M127.593 57.2835 Q124.445 57.2835 122.593 59.4363 Q120.765 61.5891 120.765 65.339 Q120.765 69.0659 122.593 71.2418 Q124.445 73.3946 127.593 73.3946 Q130.742 73.3946 132.57 71.2418 Q134.422 69.0659 134.422 65.339 Q134.422 61.5891 132.57 59.4363 Q130.742 57.2835 127.593 57.2835 M136.876 42.6308 L136.876 46.8901 Q135.117 46.0567 133.311 45.6169 Q131.529 45.1771 129.769 45.1771 Q125.14 45.1771 122.686 48.3021 Q120.255 51.4271 119.908 57.7465 Q121.274 55.7326 123.334 54.6678 Q125.394 53.5798 127.871 53.5798 Q133.08 53.5798 136.089 56.7511 Q139.121 59.8993 139.121 65.339 Q139.121 70.6631 135.973 73.8807 Q132.825 77.0982 127.593 77.0982 Q121.598 77.0982 118.427 72.5149 Q115.256 67.9085 115.256 59.1817 Q115.256 50.9873 119.144 46.1262 Q123.033 41.2419 129.584 41.2419 Q131.343 41.2419 133.126 41.5892 Q134.931 41.9364 136.876 42.6308 Z" fill="#000000" fill-rule="nonzero" fill-opacity="1" /><path clip-path="url(#clip250)" d="M147.177 70.5473 L152.061 70.5473 L152.061 76.4269 L147.177 76.4269 L147.177 70.5473 Z" fill="#000000" fill-rule="nonzero" fill-opacity="1" /><path clip-path="url(#clip250)" d="M172.246 44.9456 Q168.635 44.9456 166.806 48.5104 Q165.001 52.0521 165.001 59.1817 Q165.001 66.2881 166.806 69.8529 Q168.635 73.3946 172.246 73.3946 Q175.88 73.3946 177.686 69.8529 Q179.514 66.2881 179.514 59.1817 Q179.514 52.0521 177.686 48.5104 Q175.88 44.9456 172.246 44.9456 M172.246 41.2419 Q178.056 41.2419 181.112 45.8484 Q184.19 50.4317 184.19 59.1817 Q184.19 67.9085 181.112 72.5149 Q178.056 77.0982 172.246 77.0982 Q166.436 77.0982 163.357 72.5149 Q160.302 67.9085 160.302 59.1817 Q160.302 50.4317 163.357 45.8484 Q166.436 41.2419 172.246 41.2419 Z" fill="#000000" fill-rule="nonzero" fill-opacity="1" /><path clip-path="url(#clip250)" d="M220.579 50.9641 L210 61.5891 L220.579 72.1677 L217.824 74.9686 L207.199 64.3437 L196.575 74.9686 L193.843 72.1677 L204.399 61.5891 L193.843 50.9641 L196.575 48.1632 L207.199 58.7881 L217.824 48.1632 L220.579 50.9641 Z" fill="#000000" fill-rule="nonzero" fill-opacity="1" /><path clip-path="url(#clip250)" d="M232.94 72.4918 L240.579 72.4918 L240.579 46.1262 L232.269 47.7928 L232.269 43.5336 L240.533 41.8669 L245.209 41.8669 L245.209 72.4918 L252.847 72.4918 L252.847 76.4269 L232.94 76.4269 L232.94 72.4918 Z" fill="#000000" fill-rule="nonzero" fill-opacity="1" /><path clip-path="url(#clip250)" d="M272.292 44.9456 Q268.681 44.9456 266.852 48.5104 Q265.046 52.0521 265.046 59.1817 Q265.046 66.2881 266.852 69.8529 Q268.681 73.3946 272.292 73.3946 Q275.926 73.3946 277.732 69.8529 Q279.56 66.2881 279.56 59.1817 Q279.56 52.0521 277.732 48.5104 Q275.926 44.9456 272.292 44.9456 M272.292 41.2419 Q278.102 41.2419 281.157 45.8484 Q284.236 50.4317 284.236 59.1817 Q284.236 67.9085 281.157 72.5149 Q278.102 77.0982 272.292 77.0982 Q266.482 77.0982 263.403 72.5149 Q260.347 67.9085 260.347 59.1817 Q260.347 50.4317 263.403 45.8484 Q266.482 41.2419 272.292 41.2419 Z" fill="#000000" fill-rule="nonzero" fill-opacity="1" /><path clip-path="url(#clip250)" d="M294.261 33.4625 Q291.703 33.4625 290.198 35.2116 Q288.712 36.9608 288.712 40.0076 Q288.712 43.0357 290.198 44.8036 Q291.703 46.5527 294.261 46.5527 Q296.818 46.5527 298.304 44.8036 Q299.809 43.0357 299.809 40.0076 Q299.809 36.9608 298.304 35.2116 Q296.818 33.4625 294.261 33.4625 M301.803 21.5572 L301.803 25.0178 Q300.373 24.3407 298.906 23.9834 Q297.458 23.6261 296.029 23.6261 Q292.267 23.6261 290.273 26.1651 Q288.299 28.7042 288.016 33.8387 Q289.126 32.2024 290.8 31.3372 Q292.474 30.4533 294.486 30.4533 Q298.718 30.4533 301.163 33.0299 Q303.627 35.5878 303.627 40.0076 Q303.627 44.3334 301.069 46.9477 Q298.511 49.562 294.261 49.562 Q289.389 49.562 286.813 45.838 Q284.236 42.0953 284.236 35.0048 Q284.236 28.3468 287.396 24.3972 Q290.556 20.4287 295.878 20.4287 Q297.307 20.4287 298.756 20.7109 Q300.223 20.993 301.803 21.5572 Z" fill="#000000" fill-rule="nonzero" fill-opacity="1" /><path clip-path="url(#clip250)" d="M35.3266 876.228 L35.3266 885.49 L45.9574 888.164 L45.9574 878.838 L35.3266 876.228 M17.2162 881.003 L30.4251 884.313 L30.4251 875.019 L17.2162 871.677 L17.2162 866.584 L30.4251 869.863 L30.4251 859.932 L35.3266 859.932 L35.3266 871.104 L45.9574 873.714 L45.9574 863.592 L50.8271 863.592 L50.8271 874.955 L64.0042 878.265 L64.0042 883.358 L50.8271 880.08 L50.8271 889.405 L64.0042 892.684 L64.0042 897.808 L50.8271 894.498 L50.8271 904.524 L45.9574 904.524 L45.9574 893.32 L35.3266 890.647 L35.3266 900.895 L30.4251 900.895 L30.4251 889.405 L17.2162 886.159 L17.2162 881.003 Z" fill="#000000" fill-rule="nonzero" fill-opacity="1" /><path clip-path="url(#clip250)" d="M44.7161 797.58 L47.5806 797.58 L47.5806 824.507 Q53.6281 824.125 56.8109 820.878 Q59.9619 817.6 59.9619 811.776 Q59.9619 808.402 59.1344 805.251 Q58.3069 802.068 56.6518 798.949 L62.1899 798.949 Q63.5267 802.1 64.227 805.41 Q64.9272 808.72 64.9272 812.126 Q64.9272 820.656 59.9619 825.653 Q54.9967 830.618 46.5303 830.618 Q37.7774 830.618 32.6531 825.907 Q27.4968 821.165 27.4968 813.144 Q27.4968 805.951 32.1438 801.781 Q36.7589 797.58 44.7161 797.58 M42.9973 803.436 Q38.1912 803.5 35.3266 806.142 Q32.4621 808.752 32.4621 813.08 Q32.4621 817.982 35.2312 820.942 Q38.0002 823.87 43.0292 824.316 L42.9973 803.436 Z" fill="#000000" fill-rule="nonzero" fill-opacity="1" /><path clip-path="url(#clip250)" d="M28.3562 759.481 L45.7028 772.372 L64.0042 758.813 L64.0042 765.72 L49.9996 776.096 L64.0042 786.472 L64.0042 793.379 L45.3526 779.533 L28.3562 792.201 L28.3562 785.294 L41.0558 775.841 L28.3562 766.388 L28.3562 759.481 Z" fill="#000000" fill-rule="nonzero" fill-opacity="1" /><path clip-path="url(#clip250)" d="M58.657 744.872 L77.5631 744.872 L77.5631 750.76 L28.3562 750.76 L28.3562 744.872 L33.7671 744.872 Q30.5842 743.026 29.0564 740.225 Q27.4968 737.392 27.4968 733.477 Q27.4968 726.984 32.6531 722.942 Q37.8093 718.868 46.212 718.868 Q54.6147 718.868 59.771 722.942 Q64.9272 726.984 64.9272 733.477 Q64.9272 737.392 63.3994 740.225 Q61.8398 743.026 58.657 744.872 M46.212 724.947 Q39.7508 724.947 36.0905 727.621 Q32.3984 730.263 32.3984 734.91 Q32.3984 739.557 36.0905 742.23 Q39.7508 744.872 46.212 744.872 Q52.6732 744.872 56.3653 742.23 Q60.0256 739.557 60.0256 734.91 Q60.0256 730.263 56.3653 727.621 Q52.6732 724.947 46.212 724.947 Z" fill="#000000" fill-rule="nonzero" fill-opacity="1" /><path clip-path="url(#clip250)" d="M32.4621 695.347 Q32.4621 700.057 36.1542 702.795 Q39.8145 705.532 46.212 705.532 Q52.6095 705.532 56.3017 702.826 Q59.9619 700.089 59.9619 695.347 Q59.9619 690.668 56.2698 687.931 Q52.5777 685.193 46.212 685.193 Q39.8781 685.193 36.186 687.931 Q32.4621 690.668 32.4621 695.347 M27.4968 695.347 Q27.4968 687.708 32.4621 683.347 Q37.4273 678.987 46.212 678.987 Q54.9649 678.987 59.9619 683.347 Q64.9272 687.708 64.9272 695.347 Q64.9272 703.017 59.9619 707.378 Q54.9649 711.707 46.212 711.707 Q37.4273 711.707 32.4621 707.378 Q27.4968 703.017 27.4968 695.347 Z" fill="#000000" fill-rule="nonzero" fill-opacity="1" /><path clip-path="url(#clip250)" d="M29.4065 646.554 L34.9447 646.554 Q33.6716 649.036 33.035 651.71 Q32.3984 654.383 32.3984 657.248 Q32.3984 661.608 33.7352 663.805 Q35.072 665.969 37.7456 665.969 Q39.7826 665.969 40.9603 664.409 Q42.1061 662.85 43.1565 658.139 L43.6021 656.134 Q44.9389 649.896 47.3897 647.286 Q49.8086 644.644 54.1691 644.644 Q59.1344 644.644 62.0308 648.591 Q64.9272 652.506 64.9272 659.38 Q64.9272 662.245 64.3543 665.364 Q63.8132 668.452 62.6992 671.889 L56.6518 671.889 Q58.3387 668.643 59.198 665.492 Q60.0256 662.341 60.0256 659.253 Q60.0256 655.115 58.6251 652.887 Q57.1929 650.659 54.6147 650.659 Q52.2276 650.659 50.9545 652.283 Q49.6813 653.874 48.5037 659.317 L48.0262 661.354 Q46.8804 666.797 44.5251 669.216 Q42.138 671.634 38.0002 671.634 Q32.9713 671.634 30.2341 668.07 Q27.4968 664.505 27.4968 657.948 Q27.4968 654.702 27.9743 651.837 Q28.4517 648.973 29.4065 646.554 Z" fill="#000000" fill-rule="nonzero" fill-opacity="1" /><path clip-path="url(#clip250)" d="M44.7161 604.826 L47.5806 604.826 L47.5806 631.753 Q53.6281 631.371 56.8109 628.125 Q59.9619 624.847 59.9619 619.022 Q59.9619 615.648 59.1344 612.497 Q58.3069 609.314 56.6518 606.195 L62.1899 606.195 Q63.5267 609.346 64.227 612.656 Q64.9272 615.966 64.9272 619.372 Q64.9272 627.902 59.9619 632.899 Q54.9967 637.864 46.5303 637.864 Q37.7774 637.864 32.6531 633.154 Q27.4968 628.411 27.4968 620.391 Q27.4968 613.197 32.1438 609.028 Q36.7589 604.826 44.7161 604.826 M42.9973 610.683 Q38.1912 610.746 35.3266 613.388 Q32.4621 615.998 32.4621 620.327 Q32.4621 625.228 35.2312 628.189 Q38.0002 631.117 43.0292 631.562 L42.9973 610.683 Z" fill="#000000" fill-rule="nonzero" fill-opacity="1" /><path clip-path="url(#clip250)" d="M33.7671 571.757 L14.479 571.757 L14.479 565.9 L64.0042 565.9 L64.0042 571.757 L58.657 571.757 Q61.8398 573.603 63.3994 576.435 Q64.9272 579.236 64.9272 583.183 Q64.9272 589.644 59.771 593.718 Q54.6147 597.76 46.212 597.76 Q37.8093 597.76 32.6531 593.718 Q27.4968 589.644 27.4968 583.183 Q27.4968 579.236 29.0564 576.435 Q30.5842 573.603 33.7671 571.757 M46.212 591.713 Q52.6732 591.713 56.3653 589.071 Q60.0256 586.398 60.0256 581.751 Q60.0256 577.104 56.3653 574.43 Q52.6732 571.757 46.212 571.757 Q39.7508 571.757 36.0905 574.43 Q32.3984 577.104 32.3984 581.751 Q32.3984 586.398 36.0905 589.071 Q39.7508 591.713 46.212 591.713 Z" fill="#000000" fill-rule="nonzero" fill-opacity="1" /><polyline clip-path="url(#clip251)" style="stroke:#009af9; stroke-linecap:round; stroke-linejoin:round; stroke-width:4; stroke-opacity:1; fill:none" points="396.602,1384.24 402.933,1384.23 409.263,1384.23 415.594,1384.22 421.925,1384.22 428.255,1384.21 434.586,1384.2 440.916,1384.18 447.247,1384.16 453.578,1384.13 459.908,1384.1 466.239,1384.05 472.569,1383.98 478.9,1383.88 485.231,1383.76 491.561,1383.59 497.892,1383.35 504.222,1383.04 510.553,1382.61 516.884,1382.03 523.214,1381.24 529.545,1380.17 535.875,1378.72 542.206,1376.75 548.537,1374.09 554.867,1370.49 561.198,1365.62 567.528,1359.04 573.859,1350.17 580.189,1338.25 586.52,1322.28 592.851,1325.81 599.181,1326.9 605.512,1326.65 611.842,1325.65 618.173,1324.23 624.504,1322.56 630.834,1320.75 637.165,1318.85 643.495,1316.88 649.826,1314.88 656.157,1312.86 662.487,1310.82 668.818,1308.78 675.148,1306.73 681.479,1304.69 687.81,1302.66 694.14,1300.65 700.471,1298.65 706.801,1296.69 713.132,1294.76 719.463,1292.87 725.793,1291.03 732.124,1289.23 738.454,1287.49 744.785,1285.82 751.116,1284.21 757.446,1282.67 763.777,1281.22 770.107,1279.84 776.438,1278.56 782.769,1277.37 789.099,1276.27 795.43,1275.28 801.76,1274.39 808.091,1273.61 814.421,1272.94 820.752,1272.39 827.083,1271.95 833.413,1271.62 839.744,1271.41 846.074,1271.32 852.405,1271.34 858.736,1271.48 865.066,1271.74 871.397,1272.1 877.727,1272.58 884.058,1273.17 890.389,1273.86 896.719,1274.65 903.05,1275.55 909.38,1276.53 915.711,1277.61 922.042,1278.77 928.372,1280.01 934.703,1281.33 941.033,1282.72 947.364,1284.18 953.695,1285.69 960.025,1287.26 966.356,1288.88 972.686,1244.05 979.017,1203.58 985.348,1162.04 991.678,1117 998.009,1067.56 1004.34,1013.84 1010.67,956.745 1017,897.928 1023.33,839.677 1029.66,784.764 1035.99,736.16 1042.32,696.688 1048.65,668.637 1054.98,653.455 1061.31,651.573 1067.65,662.416 1073.98,684.561 1080.31,716.006 1086.64,754.47 1092.97,797.658 1099.3,843.46 1105.63,890.077 1111.96,936.072 1118.29,980.371 1124.62,1022.23 1130.95,1061.18 1137.28,1096.98 1143.61,1129.55 1149.94,1158.95 1156.27,1185.31 1162.6,1208.82 1168.93,1229.69 1175.27,1248.15 1181.6,1264.44 1187.93,1278.78 1194.26,1291.39 1200.59,1302.45 1206.92,1312.15 1213.25,1320.65 1219.58,1328.1 1225.91,1334.62 1232.24,1340.33 1238.57,1345.33 1244.9,1349.72 1251.23,1353.57 1257.56,1356.95 1263.89,1359.91 1270.22,1362.52 1276.55,1364.81 1282.89,1366.83 1289.22,1368.61 1295.55,1370.18 1301.88,1371.57 1308.21,1372.8 1314.54,1373.89 1320.87,1374.86 1327.2,1375.72 1333.53,1376.49 1339.86,1377.17 1346.19,1377.78 1352.52,1378.32 1358.85,1378.81 1365.18,1379.25 1371.51,1379.64 1377.84,1380 1384.17,1380.31 1390.51,1380.6 1396.84,1380.86 1403.17,1381.1 1409.5,1381.31 1415.83,1381.5 1422.16,1381.68 1428.49,1381.84 1434.82,1381.98 1441.15,1382.12 1447.48,1382.24 1453.81,1382.35 1460.14,1382.45 1466.47,1382.55 1472.8,1382.63 1479.13,1382.71 1485.46,1382.78 1491.8,1382.85 1498.13,1382.91 1504.46,1382.97 1510.79,1383.02 1517.12,1383.07 1523.45,1383.11 1529.78,1383.15 1536.11,1383.19 1542.44,1383.22 1548.77,1383.26 1555.1,1383.29 1561.43,1383.31 1567.76,1383.34 1574.09,1383.36 1580.42,1383.38 1586.75,1383.4 1593.08,1383.42 1599.42,1383.44 1605.75,1383.45 1612.08,1383.47 1618.41,1383.48 1624.74,1383.49 1631.07,1383.5 1637.4,1383.51 1643.73,1383.52 1650.06,1383.52 1656.39,1383.53 1662.72,1383.53 1669.05,1383.54 1675.38,1383.54 1681.71,1383.54 1688.04,1383.54 1694.37,1383.54 1700.7,1383.54 1707.04,1383.54 1713.37,1383.54 1719.7,1383.54 1726.03,1383.53 1732.36,1383.53 1738.69,1383.52 1745.02,1383.51 1751.35,1383.51 1757.68,1383.5 1764.01,1383.49 1770.34,1383.48 1776.67,1383.46 1783,1383.45 1789.33,1383.44 1795.66,1383.42 1801.99,1383.41 1808.32,1383.39 1814.66,1383.37 1820.99,1383.35 1827.32,1383.33 1833.65,1383.3 1839.98,1383.28 1846.31,1383.25 1852.64,1383.22 1858.97,1383.19 1865.3,1383.16 1871.63,1383.13 1877.96,1383.09 1884.29,1383.05 1890.62,1383.01 1896.95,1382.96 1903.28,1382.92 1909.61,1382.86 1915.94,1382.81 1922.28,1382.75 1928.61,1382.69 1934.94,1382.63 1941.27,1382.56 1947.6,1382.48 1953.93,1382.4 1960.26,1382.32 1966.59,1382.23 1972.92,1382.13 1979.25,1382.02 1985.58,1381.91 1991.91,1381.79 1998.24,1381.67 2004.57,1381.53 2010.9,1381.39 2017.23,1381.23 2023.57,1381.06 2029.9,1380.88 2036.23,1380.69 2042.56,1380.49 2048.89,1380.26 2055.22,1380.03 2061.55,1379.77 2067.88,1379.5 2074.21,1379.2 2080.54,1378.89 2086.87,1378.54 2093.2,1378.18 2099.53,1377.78 2105.86,1377.36 2112.19,1376.9 2118.52,1376.41 2124.85,1375.87 2131.19,1375.3 2137.52,1374.68 2143.85,1374.02 2150.18,1373.3 2156.51,1372.53 2162.84,1371.69 2169.17,1370.8 2175.5,1369.83 2181.83,1368.78 2188.16,1367.66 2194.49,1366.45 2200.82,1365.14 2207.15,1363.74 2213.48,1362.23 2219.81,1360.6 2226.14,1358.86 2232.47,1356.99 2238.81,1354.98 2245.14,1352.83 2251.47,1350.53 2257.8,1348.07 2264.13,1345.45 2270.46,1342.66 2276.79,1339.69 2283.12,1336.54 2289.45,1333.21 2295.78,1329.69 "/>
<polyline clip-path="url(#clip251)" style="stroke:#e26f46; stroke-linecap:round; stroke-linejoin:round; stroke-width:4; stroke-opacity:1; fill:none" points="396.602,1384.24 402.933,1384.23 409.263,1384.23 415.594,1384.22 421.925,1384.22 428.255,1384.21 434.586,1384.2 440.916,1384.18 447.247,1384.16 453.578,1384.13 459.908,1384.1 466.239,1384.05 472.569,1383.98 478.9,1383.88 485.231,1383.76 491.561,1383.59 497.892,1383.35 504.222,1383.04 510.553,1382.61 516.884,1382.03 523.214,1381.24 529.545,1380.17 535.875,1378.72 542.206,1376.75 548.537,1374.09 554.867,1370.49 561.198,1365.62 567.528,1359.04 573.859,1350.17 580.189,1338.25 586.52,1322.28 592.851,1300.97 599.181,1272.71 605.512,1235.53 611.842,1187.15 618.173,1125.08 624.504,1046.95 630.834,951.025 637.165,836.997 643.495,707.007 649.826,566.552 656.157,424.863 662.487,294.161 668.818,187.57 675.148,116.147 681.479,86.1857 687.81,97.9555 694.14,146.337 700.471,222.788 706.801,317.646 713.132,421.935 719.463,528.378 725.793,631.702 732.124,728.487 738.454,816.817 744.785,895.883 751.116,965.631 757.446,1026.48 763.777,1079.13 770.107,1124.39 776.438,1163.11 782.769,1196.12 789.099,1224.19 795.43,1248.02 801.76,1268.22 808.091,1285.34 814.421,1299.84 820.752,1312.13 827.083,1322.54 833.413,1331.37 839.744,1338.86 846.074,1345.23 852.405,1350.64 858.736,1355.25 865.066,1359.17 871.397,1362.52 877.727,1365.39 884.058,1367.84 890.389,1369.94 896.719,1371.74 903.05,1373.29 909.38,1374.63 915.711,1375.78 922.042,1376.78 928.372,1377.64 934.703,1378.39 941.033,1379.04 947.364,1379.61 953.695,1380.1 960.025,1380.54 966.356,1380.92 972.686,1381.25 979.017,1381.54 985.348,1381.8 991.678,1382.03 998.009,1382.23 1004.34,1382.41 1010.67,1382.57 1017,1382.71 1023.33,1382.84 1029.66,1382.95 1035.99,1383.06 1042.32,1383.15 1048.65,1383.23 1054.98,1383.3 1061.31,1383.37 1067.65,1383.43 1073.98,1383.48 1080.31,1383.53 1086.64,1383.58 1092.97,1383.62 1099.3,1383.66 1105.63,1383.69 1111.96,1383.72 1118.29,1383.75 1124.62,1383.78 1130.95,1383.8 1137.28,1383.82 1143.61,1383.84 1149.94,1383.86 1156.27,1383.88 1162.6,1383.89 1168.93,1383.91 1175.27,1383.92 1181.6,1383.93 1187.93,1383.94 1194.26,1383.95 1200.59,1383.96 1206.92,1383.97 1213.25,1383.98 1219.58,1383.99 1225.91,1383.99 1232.24,1384 1238.57,1384.01 1244.9,1384.01 1251.23,1384.02 1257.56,1384.02 1263.89,1384.03 1270.22,1384.03 1276.55,1384.03 1282.89,1384.04 1289.22,1384.04 1295.55,1384.04 1301.88,1384.04 1308.21,1384.05 1314.54,1384.05 1320.87,1384.05 1327.2,1384.05 1333.53,1384.05 1339.86,1384.05 1346.19,1384.05 1352.52,1384.05 1358.85,1384.05 1365.18,1384.05 1371.51,1384.05 1377.84,1384.05 1384.17,1384.05 1390.51,1384.05 1396.84,1384.05 1403.17,1384.04 1409.5,1384.04 1415.83,1384.04 1422.16,1384.04 1428.49,1384.03 1434.82,1384.03 1441.15,1384.03 1447.48,1384.02 1453.81,1384.02 1460.14,1384.02 1466.47,1384.01 1472.8,1384.01 1479.13,1384 1485.46,1383.99 1491.8,1383.99 1498.13,1383.98 1504.46,1383.97 1510.79,1383.97 1517.12,1383.96 1523.45,1383.95 1529.78,1383.94 1536.11,1383.93 1542.44,1383.92 1548.77,1383.91 1555.1,1383.9 1561.43,1383.88 1567.76,1383.87 1574.09,1383.85 1580.42,1383.84 1586.75,1383.82 1593.08,1383.8 1599.42,1383.78 1605.75,1383.76 1612.08,1383.74 1618.41,1383.72 1624.74,1383.69 1631.07,1383.67 1637.4,1383.64 1643.73,1383.61 1650.06,1383.58 1656.39,1383.54 1662.72,1383.5 1669.05,1383.46 1675.38,1383.42 1681.71,1383.37 1688.04,1383.32 1694.37,1383.27 1700.7,1383.21 1707.04,1383.15 1713.37,1383.08 1719.7,1383.01 1726.03,1382.93 1732.36,1382.85 1738.69,1382.76 1745.02,1382.66 1751.35,1382.56 1757.68,1382.44 1764.01,1382.32 1770.34,1382.19 1776.67,1382.04 1783,1381.89 1789.33,1381.72 1795.66,1381.53 1801.99,1381.34 1808.32,1381.12 1814.66,1380.89 1820.99,1380.63 1827.32,1380.36 1833.65,1380.06 1839.98,1379.73 1846.31,1379.37 1852.64,1378.99 1858.97,1378.57 1865.3,1378.11 1871.63,1377.61 1877.96,1377.07 1884.29,1376.47 1890.62,1375.83 1896.95,1375.12 1903.28,1374.36 1909.61,1373.52 1915.94,1372.61 1922.28,1371.61 1928.61,1370.53 1934.94,1369.35 1941.27,1368.06 1947.6,1366.65 1953.93,1365.13 1960.26,1363.46 1966.59,1361.65 1972.92,1359.69 1979.25,1357.55 1985.58,1355.24 1991.91,1352.73 1998.24,1350.02 2004.57,1347.09 2010.9,1343.93 2017.23,1340.53 2023.57,1336.88 2029.9,1332.96 2036.23,1328.78 2042.56,1324.33 2048.89,1319.6 2055.22,1314.6 2061.55,1309.33 2067.88,1303.8 2074.21,1298.04 2080.54,1292.05 2086.87,1285.88 2093.2,1279.55 2099.53,1273.11 2105.86,1266.61 2112.19,1260.11 2118.52,1253.66 2124.85,1247.34 2131.19,1241.23 2137.52,1235.38 2143.85,1229.89 2150.18,1224.83 2156.51,1220.25 2162.84,1216.24 2169.17,1212.84 2175.5,1210.11 2181.83,1208.07 2188.16,1206.75 2194.49,1206.16 2200.82,1206.3 2207.15,1207.15 2213.48,1208.68 2219.81,1210.86 2226.14,1213.64 2232.47,1216.96 2238.81,1220.76 2245.14,1224.98 2251.47,1229.57 2257.8,1234.44 2264.13,1239.55 2270.46,1244.82 2276.79,1250.21 2283.12,1255.66 2289.45,1261.12 2295.78,1266.56 "/>
<path clip-path="url(#clip250)" d="M1700.66 248.629 L2285.65 248.629 L2285.65 93.1086 L1700.66 93.1086  Z" fill="#ffffff" fill-rule="evenodd" fill-opacity="1"/>
<polyline clip-path="url(#clip250)" style="stroke:#000000; stroke-linecap:round; stroke-linejoin:round; stroke-width:4; stroke-opacity:1; fill:none" points="1700.66,248.629 2285.65,248.629 2285.65,93.1086 1700.66,93.1086 1700.66,248.629 "/>
<polyline clip-path="url(#clip250)" style="stroke:#009af9; stroke-linecap:round; stroke-linejoin:round; stroke-width:4; stroke-opacity:1; fill:none" points="1723.03,144.949 1857.24,144.949 "/>
<path clip-path="url(#clip250)" d="M1879.61 127.669 L1901.46 127.669 L1901.46 131.604 L1884.28 131.604 L1884.28 141.835 L1900.74 141.835 L1900.74 145.77 L1884.28 145.77 L1884.28 158.293 L1901.87 158.293 L1901.87 162.229 L1879.61 162.229 L1879.61 127.669 Z" fill="#000000" fill-rule="nonzero" fill-opacity="1" /><path clip-path="url(#clip250)" d="M1930.92 136.303 L1921.55 148.919 L1931.41 162.229 L1926.39 162.229 L1918.84 152.043 L1911.29 162.229 L1906.27 162.229 L1916.34 148.664 L1907.13 136.303 L1912.15 136.303 L1919.03 145.539 L1925.9 136.303 L1930.92 136.303 Z" fill="#000000" fill-rule="nonzero" fill-opacity="1" /><path clip-path="url(#clip250)" d="M1941.55 158.34 L1941.55 172.09 L1937.27 172.09 L1937.27 136.303 L1941.55 136.303 L1941.55 140.238 Q1942.89 137.923 1944.93 136.812 Q1946.99 135.678 1949.84 135.678 Q1954.56 135.678 1957.5 139.428 Q1960.46 143.178 1960.46 149.289 Q1960.46 155.4 1957.5 159.15 Q1954.56 162.9 1949.84 162.9 Q1946.99 162.9 1944.93 161.789 Q1942.89 160.655 1941.55 158.34 M1956.04 149.289 Q1956.04 144.59 1954.1 141.928 Q1952.17 139.243 1948.79 139.243 Q1945.41 139.243 1943.47 141.928 Q1941.55 144.59 1941.55 149.289 Q1941.55 153.988 1943.47 156.673 Q1945.41 159.335 1948.79 159.335 Q1952.17 159.335 1954.1 156.673 Q1956.04 153.988 1956.04 149.289 Z" fill="#000000" fill-rule="nonzero" fill-opacity="1" /><path clip-path="url(#clip250)" d="M1977.57 139.289 Q1974.14 139.289 1972.15 141.974 Q1970.16 144.636 1970.16 149.289 Q1970.16 153.942 1972.13 156.627 Q1974.12 159.289 1977.57 159.289 Q1980.97 159.289 1982.96 156.604 Q1984.95 153.918 1984.95 149.289 Q1984.95 144.682 1982.96 141.997 Q1980.97 139.289 1977.57 139.289 M1977.57 135.678 Q1983.12 135.678 1986.29 139.289 Q1989.47 142.9 1989.47 149.289 Q1989.47 155.655 1986.29 159.289 Q1983.12 162.9 1977.57 162.9 Q1971.99 162.9 1968.82 159.289 Q1965.67 155.655 1965.67 149.289 Q1965.67 142.9 1968.82 139.289 Q1971.99 135.678 1977.57 135.678 Z" fill="#000000" fill-rule="nonzero" fill-opacity="1" /><path clip-path="url(#clip250)" d="M2013.05 137.067 L2013.05 141.094 Q2011.25 140.169 2009.3 139.706 Q2007.36 139.243 2005.28 139.243 Q2002.1 139.243 2000.51 140.215 Q1998.93 141.187 1998.93 143.131 Q1998.93 144.613 2000.07 145.469 Q2001.2 146.303 2004.63 147.067 L2006.09 147.391 Q2010.62 148.363 2012.52 150.145 Q2014.44 151.905 2014.44 155.076 Q2014.44 158.687 2011.57 160.793 Q2008.72 162.9 2003.72 162.9 Q2001.64 162.9 1999.37 162.483 Q1997.13 162.09 1994.63 161.28 L1994.63 156.881 Q1996.99 158.108 1999.28 158.733 Q2001.57 159.335 2003.82 159.335 Q2006.83 159.335 2008.45 158.317 Q2010.07 157.275 2010.07 155.4 Q2010.07 153.664 2008.89 152.738 Q2007.73 151.812 2003.77 150.956 L2002.29 150.608 Q1998.33 149.775 1996.57 148.062 Q1994.81 146.326 1994.81 143.317 Q1994.81 139.659 1997.41 137.669 Q2000 135.678 2004.77 135.678 Q2007.13 135.678 2009.21 136.025 Q2011.29 136.372 2013.05 137.067 Z" fill="#000000" fill-rule="nonzero" fill-opacity="1" /><path clip-path="url(#clip250)" d="M2043.4 148.201 L2043.4 150.284 L2023.82 150.284 Q2024.09 154.682 2026.46 156.997 Q2028.84 159.289 2033.08 159.289 Q2035.53 159.289 2037.82 158.687 Q2040.14 158.085 2042.41 156.881 L2042.41 160.909 Q2040.11 161.881 2037.71 162.391 Q2035.3 162.9 2032.82 162.9 Q2026.62 162.9 2022.98 159.289 Q2019.37 155.678 2019.37 149.52 Q2019.37 143.155 2022.8 139.428 Q2026.25 135.678 2032.08 135.678 Q2037.31 135.678 2040.34 139.057 Q2043.4 142.414 2043.4 148.201 M2039.14 146.951 Q2039.09 143.456 2037.17 141.372 Q2035.28 139.289 2032.13 139.289 Q2028.56 139.289 2026.41 141.303 Q2024.28 143.317 2023.96 146.974 L2039.14 146.951 Z" fill="#000000" fill-rule="nonzero" fill-opacity="1" /><path clip-path="url(#clip250)" d="M2067.45 140.238 L2067.45 126.21 L2071.71 126.21 L2071.71 162.229 L2067.45 162.229 L2067.45 158.34 Q2066.11 160.655 2064.05 161.789 Q2062.01 162.9 2059.14 162.9 Q2054.44 162.9 2051.48 159.15 Q2048.54 155.4 2048.54 149.289 Q2048.54 143.178 2051.48 139.428 Q2054.44 135.678 2059.14 135.678 Q2062.01 135.678 2064.05 136.812 Q2066.11 137.923 2067.45 140.238 M2052.94 149.289 Q2052.94 153.988 2054.86 156.673 Q2056.8 159.335 2060.18 159.335 Q2063.56 159.335 2065.51 156.673 Q2067.45 153.988 2067.45 149.289 Q2067.45 144.59 2065.51 141.928 Q2063.56 139.243 2060.18 139.243 Q2056.8 139.243 2054.86 141.928 Q2052.94 144.59 2052.94 149.289 Z" fill="#000000" fill-rule="nonzero" fill-opacity="1" /><path clip-path="url(#clip250)" d="M2093.08 136.303 L2097.34 136.303 L2102.66 156.534 L2107.96 136.303 L2112.98 136.303 L2118.31 156.534 L2123.61 136.303 L2127.87 136.303 L2121.09 162.229 L2116.06 162.229 L2110.48 140.979 L2104.88 162.229 L2099.86 162.229 L2093.08 136.303 Z" fill="#000000" fill-rule="nonzero" fill-opacity="1" /><path clip-path="url(#clip250)" d="M2141.9 127.669 L2145.83 127.669 L2133.79 166.627 L2129.86 166.627 L2141.9 127.669 Z" fill="#000000" fill-rule="nonzero" fill-opacity="1" /><path clip-path="url(#clip250)" d="M2165.55 127.669 L2171.85 127.669 L2187.17 156.581 L2187.17 127.669 L2191.71 127.669 L2191.71 162.229 L2185.41 162.229 L2170.09 133.317 L2170.09 162.229 L2165.55 162.229 L2165.55 127.669 Z" fill="#000000" fill-rule="nonzero" fill-opacity="1" /><path clip-path="url(#clip250)" d="M2205.69 131.511 L2205.69 144.497 L2211.57 144.497 Q2214.83 144.497 2216.62 142.807 Q2218.4 141.118 2218.4 137.993 Q2218.4 134.891 2216.62 133.201 Q2214.83 131.511 2211.57 131.511 L2205.69 131.511 M2201.02 127.669 L2211.57 127.669 Q2217.38 127.669 2220.34 130.307 Q2223.33 132.923 2223.33 137.993 Q2223.33 143.108 2220.34 145.724 Q2217.38 148.34 2211.57 148.34 L2205.69 148.34 L2205.69 162.229 L2201.02 162.229 L2201.02 127.669 Z" fill="#000000" fill-rule="nonzero" fill-opacity="1" /><path clip-path="url(#clip250)" d="M2229.6 127.669 L2234.28 127.669 L2234.28 162.229 L2229.6 162.229 L2229.6 127.669 Z" fill="#000000" fill-rule="nonzero" fill-opacity="1" /><polyline clip-path="url(#clip250)" style="stroke:#e26f46; stroke-linecap:round; stroke-linejoin:round; stroke-width:4; stroke-opacity:1; fill:none" points="1723.03,196.789 1857.24,196.789 "/>
<path clip-path="url(#clip250)" d="M1879.61 179.509 L1901.46 179.509 L1901.46 183.444 L1884.28 183.444 L1884.28 193.675 L1900.74 193.675 L1900.74 197.61 L1884.28 197.61 L1884.28 210.133 L1901.87 210.133 L1901.87 214.069 L1879.61 214.069 L1879.61 179.509 Z" fill="#000000" fill-rule="nonzero" fill-opacity="1" /><path clip-path="url(#clip250)" d="M1930.92 188.143 L1921.55 200.759 L1931.41 214.069 L1926.39 214.069 L1918.84 203.883 L1911.29 214.069 L1906.27 214.069 L1916.34 200.504 L1907.13 188.143 L1912.15 188.143 L1919.03 197.379 L1925.9 188.143 L1930.92 188.143 Z" fill="#000000" fill-rule="nonzero" fill-opacity="1" /><path clip-path="url(#clip250)" d="M1941.55 210.18 L1941.55 223.93 L1937.27 223.93 L1937.27 188.143 L1941.55 188.143 L1941.55 192.078 Q1942.89 189.763 1944.93 188.652 Q1946.99 187.518 1949.84 187.518 Q1954.56 187.518 1957.5 191.268 Q1960.46 195.018 1960.46 201.129 Q1960.46 207.24 1957.5 210.99 Q1954.56 214.74 1949.84 214.74 Q1946.99 214.74 1944.93 213.629 Q1942.89 212.495 1941.55 210.18 M1956.04 201.129 Q1956.04 196.43 1954.1 193.768 Q1952.17 191.083 1948.79 191.083 Q1945.41 191.083 1943.47 193.768 Q1941.55 196.43 1941.55 201.129 Q1941.55 205.828 1943.47 208.513 Q1945.41 211.175 1948.79 211.175 Q1952.17 211.175 1954.1 208.513 Q1956.04 205.828 1956.04 201.129 Z" fill="#000000" fill-rule="nonzero" fill-opacity="1" /><path clip-path="url(#clip250)" d="M1977.57 191.129 Q1974.14 191.129 1972.15 193.814 Q1970.16 196.476 1970.16 201.129 Q1970.16 205.782 1972.13 208.467 Q1974.12 211.129 1977.57 211.129 Q1980.97 211.129 1982.96 208.444 Q1984.95 205.758 1984.95 201.129 Q1984.95 196.522 1982.96 193.837 Q1980.97 191.129 1977.57 191.129 M1977.57 187.518 Q1983.12 187.518 1986.29 191.129 Q1989.47 194.74 1989.47 201.129 Q1989.47 207.495 1986.29 211.129 Q1983.12 214.74 1977.57 214.74 Q1971.99 214.74 1968.82 211.129 Q1965.67 207.495 1965.67 201.129 Q1965.67 194.74 1968.82 191.129 Q1971.99 187.518 1977.57 187.518 Z" fill="#000000" fill-rule="nonzero" fill-opacity="1" /><path clip-path="url(#clip250)" d="M2013.05 188.907 L2013.05 192.934 Q2011.25 192.009 2009.3 191.546 Q2007.36 191.083 2005.28 191.083 Q2002.1 191.083 2000.51 192.055 Q1998.93 193.027 1998.93 194.971 Q1998.93 196.453 2000.07 197.309 Q2001.2 198.143 2004.63 198.907 L2006.09 199.231 Q2010.62 200.203 2012.52 201.985 Q2014.44 203.745 2014.44 206.916 Q2014.44 210.527 2011.57 212.633 Q2008.72 214.74 2003.72 214.74 Q2001.64 214.74 1999.37 214.323 Q1997.13 213.93 1994.63 213.12 L1994.63 208.721 Q1996.99 209.948 1999.28 210.573 Q2001.57 211.175 2003.82 211.175 Q2006.83 211.175 2008.45 210.157 Q2010.07 209.115 2010.07 207.24 Q2010.07 205.504 2008.89 204.578 Q2007.73 203.652 2003.77 202.796 L2002.29 202.448 Q1998.33 201.615 1996.57 199.902 Q1994.81 198.166 1994.81 195.157 Q1994.81 191.499 1997.41 189.509 Q2000 187.518 2004.77 187.518 Q2007.13 187.518 2009.21 187.865 Q2011.29 188.212 2013.05 188.907 Z" fill="#000000" fill-rule="nonzero" fill-opacity="1" /><path clip-path="url(#clip250)" d="M2043.4 200.041 L2043.4 202.124 L2023.82 202.124 Q2024.09 206.522 2026.46 208.837 Q2028.84 211.129 2033.08 211.129 Q2035.53 211.129 2037.82 210.527 Q2040.14 209.925 2042.41 208.721 L2042.41 212.749 Q2040.11 213.721 2037.71 214.231 Q2035.3 214.74 2032.82 214.74 Q2026.62 214.74 2022.98 211.129 Q2019.37 207.518 2019.37 201.36 Q2019.37 194.995 2022.8 191.268 Q2026.25 187.518 2032.08 187.518 Q2037.31 187.518 2040.34 190.897 Q2043.4 194.254 2043.4 200.041 M2039.14 198.791 Q2039.09 195.296 2037.17 193.212 Q2035.28 191.129 2032.13 191.129 Q2028.56 191.129 2026.41 193.143 Q2024.28 195.157 2023.96 198.814 L2039.14 198.791 Z" fill="#000000" fill-rule="nonzero" fill-opacity="1" /><path clip-path="url(#clip250)" d="M2067.45 192.078 L2067.45 178.05 L2071.71 178.05 L2071.71 214.069 L2067.45 214.069 L2067.45 210.18 Q2066.11 212.495 2064.05 213.629 Q2062.01 214.74 2059.14 214.74 Q2054.44 214.74 2051.48 210.99 Q2048.54 207.24 2048.54 201.129 Q2048.54 195.018 2051.48 191.268 Q2054.44 187.518 2059.14 187.518 Q2062.01 187.518 2064.05 188.652 Q2066.11 189.763 2067.45 192.078 M2052.94 201.129 Q2052.94 205.828 2054.86 208.513 Q2056.8 211.175 2060.18 211.175 Q2063.56 211.175 2065.51 208.513 Q2067.45 205.828 2067.45 201.129 Q2067.45 196.43 2065.51 193.768 Q2063.56 191.083 2060.18 191.083 Q2056.8 191.083 2054.86 193.768 Q2052.94 196.43 2052.94 201.129 Z" fill="#000000" fill-rule="nonzero" fill-opacity="1" /><path clip-path="url(#clip250)" d="M2093.08 188.143 L2097.34 188.143 L2102.66 208.374 L2107.96 188.143 L2112.98 188.143 L2118.31 208.374 L2123.61 188.143 L2127.87 188.143 L2121.09 214.069 L2116.06 214.069 L2110.48 192.819 L2104.88 214.069 L2099.86 214.069 L2093.08 188.143 Z" fill="#000000" fill-rule="nonzero" fill-opacity="1" /><path clip-path="url(#clip250)" d="M2141.9 179.509 L2145.83 179.509 L2133.79 218.467 L2129.86 218.467 L2141.9 179.509 Z" fill="#000000" fill-rule="nonzero" fill-opacity="1" /><path clip-path="url(#clip250)" d="M2160.34 191.129 Q2156.92 191.129 2154.93 193.814 Q2152.94 196.476 2152.94 201.129 Q2152.94 205.782 2154.9 208.467 Q2156.9 211.129 2160.34 211.129 Q2163.75 211.129 2165.74 208.444 Q2167.73 205.758 2167.73 201.129 Q2167.73 196.522 2165.74 193.837 Q2163.75 191.129 2160.34 191.129 M2160.34 187.518 Q2165.9 187.518 2169.07 191.129 Q2172.24 194.74 2172.24 201.129 Q2172.24 207.495 2169.07 211.129 Q2165.9 214.74 2160.34 214.74 Q2154.77 214.74 2151.59 211.129 Q2148.45 207.495 2148.45 201.129 Q2148.45 194.74 2151.59 191.129 Q2154.77 187.518 2160.34 187.518 Z" fill="#000000" fill-rule="nonzero" fill-opacity="1" /><path clip-path="url(#clip250)" d="M2194.56 179.509 L2200.85 179.509 L2216.18 208.421 L2216.18 179.509 L2220.71 179.509 L2220.71 214.069 L2214.42 214.069 L2199.09 185.157 L2199.09 214.069 L2194.56 214.069 L2194.56 179.509 Z" fill="#000000" fill-rule="nonzero" fill-opacity="1" /><path clip-path="url(#clip250)" d="M2234.7 183.351 L2234.7 196.337 L2240.58 196.337 Q2243.84 196.337 2245.62 194.647 Q2247.4 192.958 2247.4 189.833 Q2247.4 186.731 2245.62 185.041 Q2243.84 183.351 2240.58 183.351 L2234.7 183.351 M2230.02 179.509 L2240.58 179.509 Q2246.39 179.509 2249.35 182.147 Q2252.33 184.763 2252.33 189.833 Q2252.33 194.948 2249.35 197.564 Q2246.39 200.18 2240.58 200.18 L2234.7 200.18 L2234.7 214.069 L2230.02 214.069 L2230.02 179.509 Z" fill="#000000" fill-rule="nonzero" fill-opacity="1" /><path clip-path="url(#clip250)" d="M2258.61 179.509 L2263.28 179.509 L2263.28 214.069 L2258.61 214.069 L2258.61 179.509 Z" fill="#000000" fill-rule="nonzero" fill-opacity="1" /></svg>
