<?xml version="1.0" encoding="utf-8"?>
<svg xmlns="http://www.w3.org/2000/svg" xmlns:xlink="http://www.w3.org/1999/xlink" width="600" height="400" viewBox="0 0 2400 1600">
<defs>
  <clipPath id="clip650">
    <rect x="0" y="0" width="2400" height="1600"/>
  </clipPath>
</defs>
<path clip-path="url(#clip650)" d="M0 1600 L2400 1600 L2400 0 L0 0  Z" fill="#ffffff" fill-rule="evenodd" fill-opacity="1"/>
<defs>
  <clipPath id="clip651">
    <rect x="367" y="47" width="1986" height="1377"/>
  </clipPath>
</defs>
<path clip-path="url(#clip650)" d="M367.409 1423.18 L2352.76 1423.18 L2352.76 47.2441 L367.409 47.2441  Z" fill="#ffffff" fill-rule="evenodd" fill-opacity="1"/>
<polyline clip-path="url(#clip651)" style="stroke:#000000; stroke-linecap:round; stroke-linejoin:round; stroke-width:2; stroke-opacity:0.1; fill:none" points="423.598,1423.18 423.598,47.2441 "/>
<polyline clip-path="url(#clip651)" style="stroke:#000000; stroke-linecap:round; stroke-linejoin:round; stroke-width:2; stroke-opacity:0.1; fill:none" points="735.759,1423.18 735.759,47.2441 "/>
<polyline clip-path="url(#clip651)" style="stroke:#000000; stroke-linecap:round; stroke-linejoin:round; stroke-width:2; stroke-opacity:0.1; fill:none" points="1047.92,1423.18 1047.92,47.2441 "/>
<polyline clip-path="url(#clip651)" style="stroke:#000000; stroke-linecap:round; stroke-linejoin:round; stroke-width:2; stroke-opacity:0.1; fill:none" points="1360.08,1423.18 1360.08,47.2441 "/>
<polyline clip-path="url(#clip651)" style="stroke:#000000; stroke-linecap:round; stroke-linejoin:round; stroke-width:2; stroke-opacity:0.1; fill:none" points="1672.24,1423.18 1672.24,47.2441 "/>
<polyline clip-path="url(#clip651)" style="stroke:#000000; stroke-linecap:round; stroke-linejoin:round; stroke-width:2; stroke-opacity:0.1; fill:none" points="1984.41,1423.18 1984.41,47.2441 "/>
<polyline clip-path="url(#clip651)" style="stroke:#000000; stroke-linecap:round; stroke-linejoin:round; stroke-width:2; stroke-opacity:0.1; fill:none" points="2296.57,1423.18 2296.57,47.2441 "/>
<polyline clip-path="url(#clip651)" style="stroke:#000000; stroke-linecap:round; stroke-linejoin:round; stroke-width:2; stroke-opacity:0.1; fill:none" points="367.409,1384.24 2352.76,1384.24 "/>
<polyline clip-path="url(#clip651)" style="stroke:#000000; stroke-linecap:round; stroke-linejoin:round; stroke-width:2; stroke-opacity:0.1; fill:none" points="367.409,1104.06 2352.76,1104.06 "/>
<polyline clip-path="url(#clip651)" style="stroke:#000000; stroke-linecap:round; stroke-linejoin:round; stroke-width:2; stroke-opacity:0.1; fill:none" points="367.409,823.875 2352.76,823.875 "/>
<polyline clip-path="url(#clip651)" style="stroke:#000000; stroke-linecap:round; stroke-linejoin:round; stroke-width:2; stroke-opacity:0.1; fill:none" points="367.409,543.693 2352.76,543.693 "/>
<polyline clip-path="url(#clip651)" style="stroke:#000000; stroke-linecap:round; stroke-linejoin:round; stroke-width:2; stroke-opacity:0.1; fill:none" points="367.409,263.511 2352.76,263.511 "/>
<polyline clip-path="url(#clip650)" style="stroke:#000000; stroke-linecap:round; stroke-linejoin:round; stroke-width:4; stroke-opacity:1; fill:none" points="367.409,1423.18 2352.76,1423.18 "/>
<polyline clip-path="url(#clip650)" style="stroke:#000000; stroke-linecap:round; stroke-linejoin:round; stroke-width:4; stroke-opacity:1; fill:none" points="423.598,1423.18 423.598,1404.28 "/>
<polyline clip-path="url(#clip650)" style="stroke:#000000; stroke-linecap:round; stroke-linejoin:round; stroke-width:4; stroke-opacity:1; fill:none" points="735.759,1423.18 735.759,1404.28 "/>
<polyline clip-path="url(#clip650)" style="stroke:#000000; stroke-linecap:round; stroke-linejoin:round; stroke-width:4; stroke-opacity:1; fill:none" points="1047.92,1423.18 1047.92,1404.28 "/>
<polyline clip-path="url(#clip650)" style="stroke:#000000; stroke-linecap:round; stroke-linejoin:round; stroke-width:4; stroke-opacity:1; fill:none" points="1360.08,1423.18 1360.08,1404.28 "/>
<polyline clip-path="url(#clip650)" style="stroke:#000000; stroke-linecap:round; stroke-linejoin:round; stroke-width:4; stroke-opacity:1; fill:none" points="1672.24,1423.18 1672.24,1404.28 "/>
<polyline clip-path="url(#clip650)" style="stroke:#000000; stroke-linecap:round; stroke-linejoin:round; stroke-width:4; stroke-opacity:1; fill:none" points="1984.41,1423.18 1984.41,1404.28 "/>
<polyline clip-path="url(#clip650)" style="stroke:#000000; stroke-linecap:round; stroke-linejoin:round; stroke-width:4; stroke-opacity:1; fill:none" points="2296.57,1423.18 2296.57,1404.28 "/>
<path clip-path="url(#clip650)" d="M423.598 1454.1 Q419.987 1454.1 418.158 1457.66 Q416.353 1461.2 416.353 1468.33 Q416.353 1475.44 418.158 1479.01 Q419.987 1482.55 423.598 1482.55 Q427.232 1482.55 429.038 1479.01 Q430.866 1475.44 430.866 1468.33 Q430.866 1461.2 429.038 1457.66 Q427.232 1454.1 423.598 1454.1 M423.598 1450.39 Q429.408 1450.39 432.464 1455 Q435.542 1459.58 435.542 1468.33 Q435.542 1477.06 432.464 1481.67 Q429.408 1486.25 423.598 1486.25 Q417.788 1486.25 414.709 1481.67 Q411.654 1477.06 411.654 1468.33 Q411.654 1459.58 414.709 1455 Q417.788 1450.39 423.598 1450.39 Z" fill="#000000" fill-rule="nonzero" fill-opacity="1" /><path clip-path="url(#clip650)" d="M695.366 1481.64 L703.005 1481.64 L703.005 1455.28 L694.695 1456.95 L694.695 1452.69 L702.959 1451.02 L707.635 1451.02 L707.635 1481.64 L715.273 1481.64 L715.273 1485.58 L695.366 1485.58 L695.366 1481.64 Z" fill="#000000" fill-rule="nonzero" fill-opacity="1" /><path clip-path="url(#clip650)" d="M734.718 1454.1 Q731.107 1454.1 729.278 1457.66 Q727.472 1461.2 727.472 1468.33 Q727.472 1475.44 729.278 1479.01 Q731.107 1482.55 734.718 1482.55 Q738.352 1482.55 740.158 1479.01 Q741.986 1475.44 741.986 1468.33 Q741.986 1461.2 740.158 1457.66 Q738.352 1454.1 734.718 1454.1 M734.718 1450.39 Q740.528 1450.39 743.583 1455 Q746.662 1459.58 746.662 1468.33 Q746.662 1477.06 743.583 1481.67 Q740.528 1486.25 734.718 1486.25 Q728.908 1486.25 725.829 1481.67 Q722.773 1477.06 722.773 1468.33 Q722.773 1459.58 725.829 1455 Q728.908 1450.39 734.718 1450.39 Z" fill="#000000" fill-rule="nonzero" fill-opacity="1" /><path clip-path="url(#clip650)" d="M764.88 1454.1 Q761.269 1454.1 759.44 1457.66 Q757.634 1461.2 757.634 1468.33 Q757.634 1475.44 759.44 1479.01 Q761.269 1482.55 764.88 1482.55 Q768.514 1482.55 770.319 1479.01 Q772.148 1475.44 772.148 1468.33 Q772.148 1461.2 770.319 1457.66 Q768.514 1454.1 764.88 1454.1 M764.88 1450.39 Q770.69 1450.39 773.745 1455 Q776.824 1459.58 776.824 1468.33 Q776.824 1477.06 773.745 1481.67 Q770.69 1486.25 764.88 1486.25 Q759.069 1486.25 755.991 1481.67 Q752.935 1477.06 752.935 1468.33 Q752.935 1459.58 755.991 1455 Q759.069 1450.39 764.88 1450.39 Z" fill="#000000" fill-rule="nonzero" fill-opacity="1" /><path clip-path="url(#clip650)" d="M1011.61 1481.64 L1027.93 1481.64 L1027.93 1485.58 L1005.99 1485.58 L1005.99 1481.64 Q1008.65 1478.89 1013.23 1474.26 Q1017.84 1469.61 1019.02 1468.27 Q1021.27 1465.74 1022.15 1464.01 Q1023.05 1462.25 1023.05 1460.56 Q1023.05 1457.8 1021.1 1456.07 Q1019.18 1454.33 1016.08 1454.33 Q1013.88 1454.33 1011.43 1455.09 Q1009 1455.86 1006.22 1457.41 L1006.22 1452.69 Q1009.04 1451.55 1011.5 1450.97 Q1013.95 1450.39 1015.99 1450.39 Q1021.36 1450.39 1024.55 1453.08 Q1027.75 1455.77 1027.75 1460.26 Q1027.75 1462.39 1026.94 1464.31 Q1026.15 1466.2 1024.04 1468.8 Q1023.47 1469.47 1020.36 1472.69 Q1017.26 1475.88 1011.61 1481.64 Z" fill="#000000" fill-rule="nonzero" fill-opacity="1" /><path clip-path="url(#clip650)" d="M1047.75 1454.1 Q1044.14 1454.1 1042.31 1457.66 Q1040.5 1461.2 1040.5 1468.33 Q1040.5 1475.44 1042.31 1479.01 Q1044.14 1482.55 1047.75 1482.55 Q1051.38 1482.55 1053.19 1479.01 Q1055.02 1475.44 1055.02 1468.33 Q1055.02 1461.2 1053.19 1457.66 Q1051.38 1454.1 1047.75 1454.1 M1047.75 1450.39 Q1053.56 1450.39 1056.61 1455 Q1059.69 1459.58 1059.69 1468.33 Q1059.69 1477.06 1056.61 1481.67 Q1053.56 1486.25 1047.75 1486.25 Q1041.94 1486.25 1038.86 1481.67 Q1035.8 1477.06 1035.8 1468.33 Q1035.8 1459.58 1038.86 1455 Q1041.94 1450.39 1047.75 1450.39 Z" fill="#000000" fill-rule="nonzero" fill-opacity="1" /><path clip-path="url(#clip650)" d="M1077.91 1454.1 Q1074.3 1454.1 1072.47 1457.66 Q1070.66 1461.2 1070.66 1468.33 Q1070.66 1475.44 1072.47 1479.01 Q1074.3 1482.55 1077.91 1482.55 Q1081.54 1482.55 1083.35 1479.01 Q1085.18 1475.44 1085.18 1468.33 Q1085.18 1461.2 1083.35 1457.66 Q1081.54 1454.1 1077.91 1454.1 M1077.91 1450.39 Q1083.72 1450.39 1086.77 1455 Q1089.85 1459.58 1089.85 1468.33 Q1089.85 1477.06 1086.77 1481.67 Q1083.72 1486.25 1077.91 1486.25 Q1072.1 1486.25 1069.02 1481.67 Q1065.96 1477.06 1065.96 1468.33 Q1065.96 1459.58 1069.02 1455 Q1072.1 1450.39 1077.91 1450.39 Z" fill="#000000" fill-rule="nonzero" fill-opacity="1" /><path clip-path="url(#clip650)" d="M1333.84 1466.95 Q1337.2 1467.66 1339.08 1469.93 Q1340.97 1472.2 1340.97 1475.53 Q1340.97 1480.65 1337.46 1483.45 Q1333.94 1486.25 1327.46 1486.25 Q1325.28 1486.25 1322.96 1485.81 Q1320.67 1485.39 1318.22 1484.54 L1318.22 1480.02 Q1320.16 1481.16 1322.48 1481.74 Q1324.79 1482.32 1327.32 1482.32 Q1331.71 1482.32 1334.01 1480.58 Q1336.32 1478.84 1336.32 1475.53 Q1336.32 1472.48 1334.17 1470.77 Q1332.04 1469.03 1328.22 1469.03 L1324.19 1469.03 L1324.19 1465.19 L1328.4 1465.19 Q1331.85 1465.19 1333.68 1463.82 Q1335.51 1462.43 1335.51 1459.84 Q1335.51 1457.18 1333.61 1455.77 Q1331.74 1454.33 1328.22 1454.33 Q1326.3 1454.33 1324.1 1454.75 Q1321.9 1455.16 1319.26 1456.04 L1319.26 1451.88 Q1321.92 1451.14 1324.24 1450.77 Q1326.58 1450.39 1328.64 1450.39 Q1333.96 1450.39 1337.06 1452.83 Q1340.16 1455.23 1340.16 1459.35 Q1340.16 1462.22 1338.52 1464.21 Q1336.88 1466.18 1333.84 1466.95 Z" fill="#000000" fill-rule="nonzero" fill-opacity="1" /><path clip-path="url(#clip650)" d="M1359.84 1454.1 Q1356.23 1454.1 1354.4 1457.66 Q1352.59 1461.2 1352.59 1468.33 Q1352.59 1475.44 1354.4 1479.01 Q1356.23 1482.55 1359.84 1482.55 Q1363.47 1482.55 1365.28 1479.01 Q1367.11 1475.44 1367.11 1468.33 Q1367.11 1461.2 1365.28 1457.66 Q1363.47 1454.1 1359.84 1454.1 M1359.84 1450.39 Q1365.65 1450.39 1368.71 1455 Q1371.78 1459.58 1371.78 1468.33 Q1371.78 1477.06 1368.71 1481.67 Q1365.65 1486.25 1359.84 1486.25 Q1354.03 1486.25 1350.95 1481.67 Q1347.89 1477.06 1347.89 1468.33 Q1347.89 1459.58 1350.95 1455 Q1354.03 1450.39 1359.84 1450.39 Z" fill="#000000" fill-rule="nonzero" fill-opacity="1" /><path clip-path="url(#clip650)" d="M1390 1454.1 Q1386.39 1454.1 1384.56 1457.66 Q1382.76 1461.2 1382.76 1468.33 Q1382.76 1475.44 1384.56 1479.01 Q1386.39 1482.55 1390 1482.55 Q1393.64 1482.55 1395.44 1479.01 Q1397.27 1475.44 1397.27 1468.33 Q1397.27 1461.2 1395.44 1457.66 Q1393.64 1454.1 1390 1454.1 M1390 1450.39 Q1395.81 1450.39 1398.87 1455 Q1401.95 1459.58 1401.95 1468.33 Q1401.95 1477.06 1398.87 1481.67 Q1395.81 1486.25 1390 1486.25 Q1384.19 1486.25 1381.11 1481.67 Q1378.06 1477.06 1378.06 1468.33 Q1378.06 1459.58 1381.11 1455 Q1384.19 1450.39 1390 1450.39 Z" fill="#000000" fill-rule="nonzero" fill-opacity="1" /><path clip-path="url(#clip650)" d="M1645.33 1455.09 L1633.53 1473.54 L1645.33 1473.54 L1645.33 1455.09 M1644.11 1451.02 L1649.99 1451.02 L1649.99 1473.54 L1654.92 1473.54 L1654.92 1477.43 L1649.99 1477.43 L1649.99 1485.58 L1645.33 1485.58 L1645.33 1477.43 L1629.73 1477.43 L1629.73 1472.92 L1644.11 1451.02 Z" fill="#000000" fill-rule="nonzero" fill-opacity="1" /><path clip-path="url(#clip650)" d="M1672.65 1454.1 Q1669.04 1454.1 1667.21 1457.66 Q1665.4 1461.2 1665.4 1468.33 Q1665.4 1475.44 1667.21 1479.01 Q1669.04 1482.55 1672.65 1482.55 Q1676.28 1482.55 1678.09 1479.01 Q1679.92 1475.44 1679.92 1468.33 Q1679.92 1461.2 1678.09 1457.66 Q1676.28 1454.1 1672.65 1454.1 M1672.65 1450.39 Q1678.46 1450.39 1681.51 1455 Q1684.59 1459.58 1684.59 1468.33 Q1684.59 1477.06 1681.51 1481.67 Q1678.46 1486.25 1672.65 1486.25 Q1666.84 1486.25 1663.76 1481.67 Q1660.7 1477.06 1660.7 1468.33 Q1660.7 1459.58 1663.76 1455 Q1666.84 1450.39 1672.65 1450.39 Z" fill="#000000" fill-rule="nonzero" fill-opacity="1" /><path clip-path="url(#clip650)" d="M1702.81 1454.1 Q1699.2 1454.1 1697.37 1457.66 Q1695.57 1461.2 1695.57 1468.33 Q1695.57 1475.44 1697.37 1479.01 Q1699.2 1482.55 1702.81 1482.55 Q1706.45 1482.55 1708.25 1479.01 Q1710.08 1475.44 1710.08 1468.33 Q1710.08 1461.2 1708.25 1457.66 Q1706.45 1454.1 1702.81 1454.1 M1702.81 1450.39 Q1708.62 1450.39 1711.68 1455 Q1714.76 1459.58 1714.76 1468.33 Q1714.76 1477.06 1711.68 1481.67 Q1708.62 1486.25 1702.81 1486.25 Q1697 1486.25 1693.92 1481.67 Q1690.87 1477.06 1690.87 1468.33 Q1690.87 1459.58 1693.92 1455 Q1697 1450.39 1702.81 1450.39 Z" fill="#000000" fill-rule="nonzero" fill-opacity="1" /><path clip-path="url(#clip650)" d="M1944.02 1451.02 L1962.38 1451.02 L1962.38 1454.96 L1948.31 1454.96 L1948.31 1463.43 Q1949.32 1463.08 1950.34 1462.92 Q1951.36 1462.73 1952.38 1462.73 Q1958.17 1462.73 1961.55 1465.9 Q1964.93 1469.08 1964.93 1474.49 Q1964.93 1480.07 1961.45 1483.17 Q1957.98 1486.25 1951.66 1486.25 Q1949.49 1486.25 1947.22 1485.88 Q1944.97 1485.51 1942.57 1484.77 L1942.57 1480.07 Q1944.65 1481.2 1946.87 1481.76 Q1949.09 1482.32 1951.57 1482.32 Q1955.57 1482.32 1957.91 1480.21 Q1960.25 1478.1 1960.25 1474.49 Q1960.25 1470.88 1957.91 1468.77 Q1955.57 1466.67 1951.57 1466.67 Q1949.69 1466.67 1947.82 1467.08 Q1945.97 1467.5 1944.02 1468.38 L1944.02 1451.02 Z" fill="#000000" fill-rule="nonzero" fill-opacity="1" /><path clip-path="url(#clip650)" d="M1984.14 1454.1 Q1980.53 1454.1 1978.7 1457.66 Q1976.89 1461.2 1976.89 1468.33 Q1976.89 1475.44 1978.7 1479.01 Q1980.53 1482.55 1984.14 1482.55 Q1987.77 1482.55 1989.58 1479.01 Q1991.41 1475.44 1991.41 1468.33 Q1991.41 1461.2 1989.58 1457.66 Q1987.77 1454.1 1984.14 1454.1 M1984.14 1450.39 Q1989.95 1450.39 1993 1455 Q1996.08 1459.58 1996.08 1468.33 Q1996.08 1477.06 1993 1481.67 Q1989.95 1486.25 1984.14 1486.25 Q1978.33 1486.25 1975.25 1481.67 Q1972.19 1477.06 1972.19 1468.33 Q1972.19 1459.58 1975.25 1455 Q1978.33 1450.39 1984.14 1450.39 Z" fill="#000000" fill-rule="nonzero" fill-opacity="1" /><path clip-path="url(#clip650)" d="M2014.3 1454.1 Q2010.69 1454.1 2008.86 1457.66 Q2007.06 1461.2 2007.06 1468.33 Q2007.06 1475.44 2008.86 1479.01 Q2010.69 1482.55 2014.3 1482.55 Q2017.94 1482.55 2019.74 1479.01 Q2021.57 1475.44 2021.57 1468.33 Q2021.57 1461.2 2019.74 1457.66 Q2017.94 1454.1 2014.3 1454.1 M2014.3 1450.39 Q2020.11 1450.39 2023.17 1455 Q2026.25 1459.58 2026.25 1468.33 Q2026.25 1477.06 2023.17 1481.67 Q2020.11 1486.25 2014.3 1486.25 Q2008.49 1486.25 2005.41 1481.67 Q2002.36 1477.06 2002.36 1468.33 Q2002.36 1459.58 2005.41 1455 Q2008.49 1450.39 2014.3 1450.39 Z" fill="#000000" fill-rule="nonzero" fill-opacity="1" /><path clip-path="url(#clip650)" d="M2266.89 1466.44 Q2263.74 1466.44 2261.89 1468.59 Q2260.06 1470.74 2260.06 1474.49 Q2260.06 1478.22 2261.89 1480.39 Q2263.74 1482.55 2266.89 1482.55 Q2270.04 1482.55 2271.87 1480.39 Q2273.72 1478.22 2273.72 1474.49 Q2273.72 1470.74 2271.87 1468.59 Q2270.04 1466.44 2266.89 1466.44 M2276.17 1451.78 L2276.17 1456.04 Q2274.41 1455.21 2272.61 1454.77 Q2270.83 1454.33 2269.07 1454.33 Q2264.44 1454.33 2261.98 1457.45 Q2259.55 1460.58 2259.21 1466.9 Q2260.57 1464.89 2262.63 1463.82 Q2264.69 1462.73 2267.17 1462.73 Q2272.38 1462.73 2275.39 1465.9 Q2278.42 1469.05 2278.42 1474.49 Q2278.42 1479.82 2275.27 1483.03 Q2272.12 1486.25 2266.89 1486.25 Q2260.9 1486.25 2257.72 1481.67 Q2254.55 1477.06 2254.55 1468.33 Q2254.55 1460.14 2258.44 1455.28 Q2262.33 1450.39 2268.88 1450.39 Q2270.64 1450.39 2272.42 1450.74 Q2274.23 1451.09 2276.17 1451.78 Z" fill="#000000" fill-rule="nonzero" fill-opacity="1" /><path clip-path="url(#clip650)" d="M2296.47 1454.1 Q2292.86 1454.1 2291.03 1457.66 Q2289.23 1461.2 2289.23 1468.33 Q2289.23 1475.44 2291.03 1479.01 Q2292.86 1482.55 2296.47 1482.55 Q2300.11 1482.55 2301.91 1479.01 Q2303.74 1475.44 2303.74 1468.33 Q2303.74 1461.2 2301.91 1457.66 Q2300.11 1454.1 2296.47 1454.1 M2296.47 1450.39 Q2302.28 1450.39 2305.34 1455 Q2308.42 1459.58 2308.42 1468.33 Q2308.42 1477.06 2305.34 1481.67 Q2302.28 1486.25 2296.47 1486.25 Q2290.66 1486.25 2287.59 1481.67 Q2284.53 1477.06 2284.53 1468.33 Q2284.53 1459.58 2287.59 1455 Q2290.66 1450.39 2296.47 1450.39 Z" fill="#000000" fill-rule="nonzero" fill-opacity="1" /><path clip-path="url(#clip650)" d="M2326.64 1454.1 Q2323.03 1454.1 2321.2 1457.66 Q2319.39 1461.2 2319.39 1468.33 Q2319.39 1475.44 2321.2 1479.01 Q2323.03 1482.55 2326.64 1482.55 Q2330.27 1482.55 2332.08 1479.01 Q2333.9 1475.44 2333.9 1468.33 Q2333.9 1461.2 2332.08 1457.66 Q2330.27 1454.1 2326.64 1454.1 M2326.64 1450.39 Q2332.45 1450.39 2335.5 1455 Q2338.58 1459.58 2338.58 1468.33 Q2338.58 1477.06 2335.5 1481.67 Q2332.45 1486.25 2326.64 1486.25 Q2320.83 1486.25 2317.75 1481.67 Q2314.69 1477.06 2314.69 1468.33 Q2314.69 1459.58 2317.75 1455 Q2320.83 1450.39 2326.64 1450.39 Z" fill="#000000" fill-rule="nonzero" fill-opacity="1" /><path clip-path="url(#clip650)" d="M1170.3 1520.52 L1210.5 1520.52 L1210.5 1525.93 L1193.64 1525.93 L1193.64 1568.04 L1187.17 1568.04 L1187.17 1525.93 L1170.3 1525.93 L1170.3 1520.52 Z" fill="#000000" fill-rule="nonzero" fill-opacity="1" /><path clip-path="url(#clip650)" d="M1214.45 1532.4 L1220.31 1532.4 L1220.31 1568.04 L1214.45 1568.04 L1214.45 1532.4 M1214.45 1518.52 L1220.31 1518.52 L1220.31 1525.93 L1214.45 1525.93 L1214.45 1518.52 Z" fill="#000000" fill-rule="nonzero" fill-opacity="1" /><path clip-path="url(#clip650)" d="M1260.32 1539.24 Q1262.51 1535.29 1265.57 1533.41 Q1268.62 1531.54 1272.76 1531.54 Q1278.33 1531.54 1281.35 1535.45 Q1284.38 1539.33 1284.38 1546.53 L1284.38 1568.04 L1278.49 1568.04 L1278.49 1546.72 Q1278.49 1541.59 1276.68 1539.11 Q1274.86 1536.63 1271.14 1536.63 Q1266.59 1536.63 1263.94 1539.65 Q1261.3 1542.68 1261.3 1547.9 L1261.3 1568.04 L1255.41 1568.04 L1255.41 1546.72 Q1255.41 1541.56 1253.6 1539.11 Q1251.79 1536.63 1248 1536.63 Q1243.51 1536.63 1240.87 1539.68 Q1238.23 1542.71 1238.23 1547.9 L1238.23 1568.04 L1232.34 1568.04 L1232.34 1532.4 L1238.23 1532.4 L1238.23 1537.93 Q1240.23 1534.66 1243.03 1533.1 Q1245.83 1531.54 1249.69 1531.54 Q1253.57 1531.54 1256.27 1533.51 Q1259.01 1535.48 1260.32 1539.24 Z" fill="#000000" fill-rule="nonzero" fill-opacity="1" /><path clip-path="url(#clip650)" d="M1326.55 1548.76 L1326.55 1551.62 L1299.62 1551.62 Q1300.01 1557.67 1303.25 1560.85 Q1306.53 1564 1312.36 1564 Q1315.73 1564 1318.88 1563.17 Q1322.06 1562.35 1325.18 1560.69 L1325.18 1566.23 Q1322.03 1567.57 1318.72 1568.27 Q1315.41 1568.97 1312.01 1568.97 Q1303.48 1568.97 1298.48 1564 Q1293.51 1559.04 1293.51 1550.57 Q1293.51 1541.82 1298.22 1536.69 Q1302.97 1531.54 1310.99 1531.54 Q1318.18 1531.54 1322.35 1536.18 Q1326.55 1540.8 1326.55 1548.76 M1320.69 1547.04 Q1320.63 1542.23 1317.99 1539.37 Q1315.38 1536.5 1311.05 1536.5 Q1306.15 1536.5 1303.19 1539.27 Q1300.26 1542.04 1299.82 1547.07 L1320.69 1547.04 Z" fill="#000000" fill-rule="nonzero" fill-opacity="1" /><path clip-path="url(#clip650)" d="M1370.95 1518.58 Q1366.69 1525.9 1364.62 1533.06 Q1362.55 1540.23 1362.55 1547.58 Q1362.55 1554.93 1364.62 1562.16 Q1366.72 1569.35 1370.95 1576.64 L1365.86 1576.64 Q1361.08 1569.16 1358.7 1561.93 Q1356.34 1554.71 1356.34 1547.58 Q1356.34 1540.48 1358.7 1533.29 Q1361.05 1526.09 1365.86 1518.58 L1370.95 1518.58 Z" fill="#000000" fill-rule="nonzero" fill-opacity="1" /><path clip-path="url(#clip650)" d="M1405.77 1537.81 L1405.77 1518.52 L1411.63 1518.52 L1411.63 1568.04 L1405.77 1568.04 L1405.77 1562.7 Q1403.93 1565.88 1401.09 1567.44 Q1398.29 1568.97 1394.35 1568.97 Q1387.88 1568.97 1383.81 1563.81 Q1379.77 1558.65 1379.77 1550.25 Q1379.77 1541.85 1383.81 1536.69 Q1387.88 1531.54 1394.35 1531.54 Q1398.29 1531.54 1401.09 1533.1 Q1403.93 1534.62 1405.77 1537.81 M1385.82 1550.25 Q1385.82 1556.71 1388.46 1560.4 Q1391.13 1564.07 1395.78 1564.07 Q1400.43 1564.07 1403.1 1560.4 Q1405.77 1556.71 1405.77 1550.25 Q1405.77 1543.79 1403.1 1540.13 Q1400.43 1536.44 1395.78 1536.44 Q1391.13 1536.44 1388.46 1540.13 Q1385.82 1543.79 1385.82 1550.25 Z" fill="#000000" fill-rule="nonzero" fill-opacity="1" /><path clip-path="url(#clip650)" d="M1439.89 1550.12 Q1432.79 1550.12 1430.06 1551.75 Q1427.32 1553.37 1427.32 1557.29 Q1427.32 1560.4 1429.36 1562.25 Q1431.43 1564.07 1434.96 1564.07 Q1439.83 1564.07 1442.76 1560.63 Q1445.72 1557.16 1445.72 1551.43 L1445.72 1550.12 L1439.89 1550.12 M1451.57 1547.71 L1451.57 1568.04 L1445.72 1568.04 L1445.72 1562.63 Q1443.71 1565.88 1440.72 1567.44 Q1437.73 1568.97 1433.4 1568.97 Q1427.92 1568.97 1424.68 1565.91 Q1421.46 1562.82 1421.46 1557.67 Q1421.46 1551.65 1425.47 1548.6 Q1429.52 1545.54 1437.51 1545.54 L1445.72 1545.54 L1445.72 1544.97 Q1445.72 1540.93 1443.04 1538.73 Q1440.4 1536.5 1435.6 1536.5 Q1432.54 1536.5 1429.64 1537.23 Q1426.75 1537.97 1424.07 1539.43 L1424.07 1534.02 Q1427.29 1532.78 1430.31 1532.17 Q1433.34 1531.54 1436.2 1531.54 Q1443.93 1531.54 1447.75 1535.55 Q1451.57 1539.56 1451.57 1547.71 Z" fill="#000000" fill-rule="nonzero" fill-opacity="1" /><path clip-path="url(#clip650)" d="M1478.47 1571.35 Q1475.99 1577.72 1473.63 1579.66 Q1471.28 1581.6 1467.33 1581.6 L1462.65 1581.6 L1462.65 1576.7 L1466.09 1576.7 Q1468.51 1576.7 1469.84 1575.56 Q1471.18 1574.41 1472.8 1570.14 L1473.85 1567.47 L1459.44 1532.4 L1465.64 1532.4 L1476.78 1560.28 L1487.92 1532.4 L1494.13 1532.4 L1478.47 1571.35 Z" fill="#000000" fill-rule="nonzero" fill-opacity="1" /><path clip-path="url(#clip650)" d="M1524.94 1533.45 L1524.94 1538.98 Q1522.46 1537.71 1519.78 1537.07 Q1517.11 1536.44 1514.24 1536.44 Q1509.88 1536.44 1507.69 1537.77 Q1505.52 1539.11 1505.52 1541.79 Q1505.52 1543.82 1507.08 1545 Q1508.64 1546.15 1513.35 1547.2 L1515.36 1547.64 Q1521.6 1548.98 1524.21 1551.43 Q1526.85 1553.85 1526.85 1558.21 Q1526.85 1563.17 1522.9 1566.07 Q1518.99 1568.97 1512.11 1568.97 Q1509.25 1568.97 1506.13 1568.39 Q1503.04 1567.85 1499.6 1566.74 L1499.6 1560.69 Q1502.85 1562.38 1506 1563.24 Q1509.15 1564.07 1512.24 1564.07 Q1516.38 1564.07 1518.6 1562.66 Q1520.83 1561.23 1520.83 1558.65 Q1520.83 1556.27 1519.21 1554.99 Q1517.62 1553.72 1512.18 1552.54 L1510.14 1552.07 Q1504.7 1550.92 1502.28 1548.56 Q1499.86 1546.18 1499.86 1542.04 Q1499.86 1537.01 1503.42 1534.27 Q1506.99 1531.54 1513.54 1531.54 Q1516.79 1531.54 1519.65 1532.01 Q1522.52 1532.49 1524.94 1533.45 Z" fill="#000000" fill-rule="nonzero" fill-opacity="1" /><path clip-path="url(#clip650)" d="M1535.25 1518.58 L1540.34 1518.58 Q1545.12 1526.09 1547.47 1533.29 Q1549.86 1540.48 1549.86 1547.58 Q1549.86 1554.71 1547.47 1561.93 Q1545.12 1569.16 1540.34 1576.64 L1535.25 1576.64 Q1539.48 1569.35 1541.55 1562.16 Q1543.65 1554.93 1543.65 1547.58 Q1543.65 1540.23 1541.55 1533.06 Q1539.48 1525.9 1535.25 1518.58 Z" fill="#000000" fill-rule="nonzero" fill-opacity="1" /><polyline clip-path="url(#clip650)" style="stroke:#000000; stroke-linecap:round; stroke-linejoin:round; stroke-width:4; stroke-opacity:1; fill:none" points="367.409,1423.18 367.409,47.2441 "/>
<polyline clip-path="url(#clip650)" style="stroke:#000000; stroke-linecap:round; stroke-linejoin:round; stroke-width:4; stroke-opacity:1; fill:none" points="367.409,1384.24 386.307,1384.24 "/>
<polyline clip-path="url(#clip650)" style="stroke:#000000; stroke-linecap:round; stroke-linejoin:round; stroke-width:4; stroke-opacity:1; fill:none" points="367.409,1104.06 386.307,1104.06 "/>
<polyline clip-path="url(#clip650)" style="stroke:#000000; stroke-linecap:round; stroke-linejoin:round; stroke-width:4; stroke-opacity:1; fill:none" points="367.409,823.875 386.307,823.875 "/>
<polyline clip-path="url(#clip650)" style="stroke:#000000; stroke-linecap:round; stroke-linejoin:round; stroke-width:4; stroke-opacity:1; fill:none" points="367.409,543.693 386.307,543.693 "/>
<polyline clip-path="url(#clip650)" style="stroke:#000000; stroke-linecap:round; stroke-linejoin:round; stroke-width:4; stroke-opacity:1; fill:none" points="367.409,263.511 386.307,263.511 "/>
<path clip-path="url(#clip650)" d="M319.464 1370.04 Q315.853 1370.04 314.025 1373.6 Q312.219 1377.14 312.219 1384.27 Q312.219 1391.38 314.025 1394.94 Q315.853 1398.49 319.464 1398.49 Q323.099 1398.49 324.904 1394.94 Q326.733 1391.38 326.733 1384.27 Q326.733 1377.14 324.904 1373.6 Q323.099 1370.04 319.464 1370.04 M319.464 1366.33 Q325.275 1366.33 328.33 1370.94 Q331.409 1375.52 331.409 1384.27 Q331.409 1393 328.33 1397.61 Q325.275 1402.19 319.464 1402.19 Q313.654 1402.19 310.576 1397.61 Q307.52 1393 307.52 1384.27 Q307.52 1375.52 310.576 1370.94 Q313.654 1366.33 319.464 1366.33 Z" fill="#000000" fill-rule="nonzero" fill-opacity="1" /><path clip-path="url(#clip650)" d="M119.885 1123.85 L136.204 1123.85 L136.204 1127.78 L114.26 1127.78 L114.26 1123.85 Q116.922 1121.09 121.505 1116.46 Q126.112 1111.81 127.292 1110.47 Q129.538 1107.95 130.417 1106.21 Q131.32 1104.45 131.32 1102.76 Q131.32 1100.01 129.376 1098.27 Q127.455 1096.53 124.353 1096.53 Q122.154 1096.53 119.7 1097.3 Q117.269 1098.06 114.492 1099.61 L114.492 1094.89 Q117.316 1093.76 119.769 1093.18 Q122.223 1092.6 124.26 1092.6 Q129.63 1092.6 132.825 1095.28 Q136.019 1097.97 136.019 1102.46 Q136.019 1104.59 135.209 1106.51 Q134.422 1108.41 132.316 1111 Q131.737 1111.67 128.635 1114.89 Q125.533 1118.09 119.885 1123.85 Z" fill="#000000" fill-rule="nonzero" fill-opacity="1" /><path clip-path="url(#clip650)" d="M146.019 1121.9 L150.903 1121.9 L150.903 1127.78 L146.019 1127.78 L146.019 1121.9 Z" fill="#000000" fill-rule="nonzero" fill-opacity="1" /><path clip-path="url(#clip650)" d="M161.135 1093.22 L179.491 1093.22 L179.491 1097.16 L165.417 1097.16 L165.417 1105.63 Q166.436 1105.28 167.454 1105.12 Q168.473 1104.94 169.491 1104.94 Q175.278 1104.94 178.658 1108.11 Q182.038 1111.28 182.038 1116.7 Q182.038 1122.27 178.565 1125.38 Q175.093 1128.46 168.774 1128.46 Q166.598 1128.46 164.329 1128.08 Q162.084 1127.71 159.677 1126.97 L159.677 1122.27 Q161.76 1123.41 163.982 1123.96 Q166.204 1124.52 168.681 1124.52 Q172.686 1124.52 175.024 1122.41 Q177.362 1120.31 177.362 1116.7 Q177.362 1113.09 175.024 1110.98 Q172.686 1108.87 168.681 1108.87 Q166.806 1108.87 164.931 1109.29 Q163.079 1109.71 161.135 1110.59 L161.135 1093.22 Z" fill="#000000" fill-rule="nonzero" fill-opacity="1" /><path clip-path="url(#clip650)" d="M201.25 1096.3 Q197.639 1096.3 195.811 1099.87 Q194.005 1103.41 194.005 1110.54 Q194.005 1117.65 195.811 1121.21 Q197.639 1124.75 201.25 1124.75 Q204.885 1124.75 206.69 1121.21 Q208.519 1117.65 208.519 1110.54 Q208.519 1103.41 206.69 1099.87 Q204.885 1096.3 201.25 1096.3 M201.25 1092.6 Q207.061 1092.6 210.116 1097.21 Q213.195 1101.79 213.195 1110.54 Q213.195 1119.27 210.116 1123.87 Q207.061 1128.46 201.25 1128.46 Q195.44 1128.46 192.362 1123.87 Q189.306 1119.27 189.306 1110.54 Q189.306 1101.79 192.362 1097.21 Q195.44 1092.6 201.25 1092.6 Z" fill="#000000" fill-rule="nonzero" fill-opacity="1" /><path clip-path="url(#clip650)" d="M249.584 1102.32 L239.005 1112.95 L249.584 1123.52 L246.829 1126.33 L236.204 1115.7 L225.579 1126.33 L222.848 1123.52 L233.403 1112.95 L222.848 1102.32 L225.579 1099.52 L236.204 1110.15 L246.829 1099.52 L249.584 1102.32 Z" fill="#000000" fill-rule="nonzero" fill-opacity="1" /><path clip-path="url(#clip650)" d="M261.945 1123.85 L269.583 1123.85 L269.583 1097.48 L261.273 1099.15 L261.273 1094.89 L269.537 1093.22 L274.213 1093.22 L274.213 1123.85 L281.852 1123.85 L281.852 1127.78 L261.945 1127.78 L261.945 1123.85 Z" fill="#000000" fill-rule="nonzero" fill-opacity="1" /><path clip-path="url(#clip650)" d="M301.296 1096.3 Q297.685 1096.3 295.856 1099.87 Q294.051 1103.41 294.051 1110.54 Q294.051 1117.65 295.856 1121.21 Q297.685 1124.75 301.296 1124.75 Q304.93 1124.75 306.736 1121.21 Q308.565 1117.65 308.565 1110.54 Q308.565 1103.41 306.736 1099.87 Q304.93 1096.3 301.296 1096.3 M301.296 1092.6 Q307.106 1092.6 310.162 1097.21 Q313.241 1101.79 313.241 1110.54 Q313.241 1119.27 310.162 1123.87 Q307.106 1128.46 301.296 1128.46 Q295.486 1128.46 292.407 1123.87 Q289.352 1119.27 289.352 1110.54 Q289.352 1101.79 292.407 1097.21 Q295.486 1092.6 301.296 1092.6 Z" fill="#000000" fill-rule="nonzero" fill-opacity="1" /><path clip-path="url(#clip650)" d="M314.425 1072.29 L329.34 1072.29 L329.34 1075.49 L317.905 1075.49 L317.905 1082.37 Q318.732 1082.09 319.56 1081.96 Q320.388 1081.81 321.215 1081.81 Q325.917 1081.81 328.663 1084.39 Q331.409 1086.96 331.409 1091.36 Q331.409 1095.9 328.588 1098.42 Q325.767 1100.92 320.632 1100.92 Q318.864 1100.92 317.021 1100.62 Q315.197 1100.32 313.241 1099.72 L313.241 1095.9 Q314.933 1096.82 316.739 1097.27 Q318.544 1097.72 320.557 1097.72 Q323.811 1097.72 325.71 1096.01 Q327.61 1094.3 327.61 1091.36 Q327.61 1088.43 325.71 1086.72 Q323.811 1085.01 320.557 1085.01 Q319.033 1085.01 317.51 1085.35 Q316.005 1085.68 314.425 1086.4 L314.425 1072.29 Z" fill="#000000" fill-rule="nonzero" fill-opacity="1" /><path clip-path="url(#clip650)" d="M115.904 813.042 L134.26 813.042 L134.26 816.977 L120.186 816.977 L120.186 825.45 Q121.205 825.102 122.223 824.94 Q123.242 824.755 124.26 824.755 Q130.047 824.755 133.427 827.926 Q136.806 831.098 136.806 836.514 Q136.806 842.093 133.334 845.195 Q129.862 848.273 123.543 848.273 Q121.367 848.273 119.098 847.903 Q116.853 847.533 114.445 846.792 L114.445 842.093 Q116.529 843.227 118.751 843.783 Q120.973 844.338 123.45 844.338 Q127.455 844.338 129.792 842.232 Q132.13 840.125 132.13 836.514 Q132.13 832.903 129.792 830.797 Q127.455 828.69 123.45 828.69 Q121.575 828.69 119.7 829.107 Q117.848 829.524 115.904 830.403 L115.904 813.042 Z" fill="#000000" fill-rule="nonzero" fill-opacity="1" /><path clip-path="url(#clip650)" d="M146.019 841.723 L150.903 841.723 L150.903 847.602 L146.019 847.602 L146.019 841.723 Z" fill="#000000" fill-rule="nonzero" fill-opacity="1" /><path clip-path="url(#clip650)" d="M171.089 816.121 Q167.477 816.121 165.649 819.686 Q163.843 823.227 163.843 830.357 Q163.843 837.463 165.649 841.028 Q167.477 844.57 171.089 844.57 Q174.723 844.57 176.528 841.028 Q178.357 837.463 178.357 830.357 Q178.357 823.227 176.528 819.686 Q174.723 816.121 171.089 816.121 M171.089 812.417 Q176.899 812.417 179.954 817.024 Q183.033 821.607 183.033 830.357 Q183.033 839.084 179.954 843.69 Q176.899 848.273 171.089 848.273 Q165.278 848.273 162.2 843.69 Q159.144 839.084 159.144 830.357 Q159.144 821.607 162.2 817.024 Q165.278 812.417 171.089 812.417 Z" fill="#000000" fill-rule="nonzero" fill-opacity="1" /><path clip-path="url(#clip650)" d="M201.25 816.121 Q197.639 816.121 195.811 819.686 Q194.005 823.227 194.005 830.357 Q194.005 837.463 195.811 841.028 Q197.639 844.57 201.25 844.57 Q204.885 844.57 206.69 841.028 Q208.519 837.463 208.519 830.357 Q208.519 823.227 206.69 819.686 Q204.885 816.121 201.25 816.121 M201.25 812.417 Q207.061 812.417 210.116 817.024 Q213.195 821.607 213.195 830.357 Q213.195 839.084 210.116 843.69 Q207.061 848.273 201.25 848.273 Q195.44 848.273 192.362 843.69 Q189.306 839.084 189.306 830.357 Q189.306 821.607 192.362 817.024 Q195.44 812.417 201.25 812.417 Z" fill="#000000" fill-rule="nonzero" fill-opacity="1" /><path clip-path="url(#clip650)" d="M249.584 822.139 L239.005 832.764 L249.584 843.343 L246.829 846.144 L236.204 835.519 L225.579 846.144 L222.848 843.343 L233.403 832.764 L222.848 822.139 L225.579 819.338 L236.204 829.963 L246.829 819.338 L249.584 822.139 Z" fill="#000000" fill-rule="nonzero" fill-opacity="1" /><path clip-path="url(#clip650)" d="M261.945 843.667 L269.583 843.667 L269.583 817.301 L261.273 818.968 L261.273 814.709 L269.537 813.042 L274.213 813.042 L274.213 843.667 L281.852 843.667 L281.852 847.602 L261.945 847.602 L261.945 843.667 Z" fill="#000000" fill-rule="nonzero" fill-opacity="1" /><path clip-path="url(#clip650)" d="M301.296 816.121 Q297.685 816.121 295.856 819.686 Q294.051 823.227 294.051 830.357 Q294.051 837.463 295.856 841.028 Q297.685 844.57 301.296 844.57 Q304.93 844.57 306.736 841.028 Q308.565 837.463 308.565 830.357 Q308.565 823.227 306.736 819.686 Q304.93 816.121 301.296 816.121 M301.296 812.417 Q307.106 812.417 310.162 817.024 Q313.241 821.607 313.241 830.357 Q313.241 839.084 310.162 843.69 Q307.106 848.273 301.296 848.273 Q295.486 848.273 292.407 843.69 Q289.352 839.084 289.352 830.357 Q289.352 821.607 292.407 817.024 Q295.486 812.417 301.296 812.417 Z" fill="#000000" fill-rule="nonzero" fill-opacity="1" /><path clip-path="url(#clip650)" d="M314.425 792.112 L329.34 792.112 L329.34 795.309 L317.905 795.309 L317.905 802.193 Q318.732 801.911 319.56 801.779 Q320.388 801.629 321.215 801.629 Q325.917 801.629 328.663 804.205 Q331.409 806.782 331.409 811.183 Q331.409 815.716 328.588 818.236 Q325.767 820.737 320.632 820.737 Q318.864 820.737 317.021 820.436 Q315.197 820.135 313.241 819.534 L313.241 815.716 Q314.933 816.637 316.739 817.089 Q318.544 817.54 320.557 817.54 Q323.811 817.54 325.71 815.828 Q327.61 814.117 327.61 811.183 Q327.61 808.249 325.71 806.537 Q323.811 804.826 320.557 804.826 Q319.033 804.826 317.51 805.164 Q316.005 805.503 314.425 806.218 L314.425 792.112 Z" fill="#000000" fill-rule="nonzero" fill-opacity="1" /><path clip-path="url(#clip650)" d="M114.677 532.86 L136.899 532.86 L136.899 534.851 L124.353 567.42 L119.468 567.42 L131.274 536.796 L114.677 536.796 L114.677 532.86 Z" fill="#000000" fill-rule="nonzero" fill-opacity="1" /><path clip-path="url(#clip650)" d="M146.019 561.541 L150.903 561.541 L150.903 567.42 L146.019 567.42 L146.019 561.541 Z" fill="#000000" fill-rule="nonzero" fill-opacity="1" /><path clip-path="url(#clip650)" d="M161.135 532.86 L179.491 532.86 L179.491 536.796 L165.417 536.796 L165.417 545.268 Q166.436 544.92 167.454 544.758 Q168.473 544.573 169.491 544.573 Q175.278 544.573 178.658 547.745 Q182.038 550.916 182.038 556.332 Q182.038 561.911 178.565 565.013 Q175.093 568.092 168.774 568.092 Q166.598 568.092 164.329 567.721 Q162.084 567.351 159.677 566.61 L159.677 561.911 Q161.76 563.045 163.982 563.601 Q166.204 564.156 168.681 564.156 Q172.686 564.156 175.024 562.05 Q177.362 559.944 177.362 556.332 Q177.362 552.721 175.024 550.615 Q172.686 548.508 168.681 548.508 Q166.806 548.508 164.931 548.925 Q163.079 549.342 161.135 550.221 L161.135 532.86 Z" fill="#000000" fill-rule="nonzero" fill-opacity="1" /><path clip-path="url(#clip650)" d="M201.25 535.939 Q197.639 535.939 195.811 539.504 Q194.005 543.045 194.005 550.175 Q194.005 557.282 195.811 560.846 Q197.639 564.388 201.25 564.388 Q204.885 564.388 206.69 560.846 Q208.519 557.282 208.519 550.175 Q208.519 543.045 206.69 539.504 Q204.885 535.939 201.25 535.939 M201.25 532.235 Q207.061 532.235 210.116 536.842 Q213.195 541.425 213.195 550.175 Q213.195 558.902 210.116 563.508 Q207.061 568.092 201.25 568.092 Q195.44 568.092 192.362 563.508 Q189.306 558.902 189.306 550.175 Q189.306 541.425 192.362 536.842 Q195.44 532.235 201.25 532.235 Z" fill="#000000" fill-rule="nonzero" fill-opacity="1" /><path clip-path="url(#clip650)" d="M249.584 541.958 L239.005 552.582 L249.584 563.161 L246.829 565.962 L236.204 555.337 L225.579 565.962 L222.848 563.161 L233.403 552.582 L222.848 541.958 L225.579 539.157 L236.204 549.782 L246.829 539.157 L249.584 541.958 Z" fill="#000000" fill-rule="nonzero" fill-opacity="1" /><path clip-path="url(#clip650)" d="M261.945 563.485 L269.583 563.485 L269.583 537.12 L261.273 538.786 L261.273 534.527 L269.537 532.86 L274.213 532.86 L274.213 563.485 L281.852 563.485 L281.852 567.42 L261.945 567.42 L261.945 563.485 Z" fill="#000000" fill-rule="nonzero" fill-opacity="1" /><path clip-path="url(#clip650)" d="M301.296 535.939 Q297.685 535.939 295.856 539.504 Q294.051 543.045 294.051 550.175 Q294.051 557.282 295.856 560.846 Q297.685 564.388 301.296 564.388 Q304.93 564.388 306.736 560.846 Q308.565 557.282 308.565 550.175 Q308.565 543.045 306.736 539.504 Q304.93 535.939 301.296 535.939 M301.296 532.235 Q307.106 532.235 310.162 536.842 Q313.241 541.425 313.241 550.175 Q313.241 558.902 310.162 563.508 Q307.106 568.092 301.296 568.092 Q295.486 568.092 292.407 563.508 Q289.352 558.902 289.352 550.175 Q289.352 541.425 292.407 536.842 Q295.486 532.235 301.296 532.235 Z" fill="#000000" fill-rule="nonzero" fill-opacity="1" /><path clip-path="url(#clip650)" d="M314.425 511.93 L329.34 511.93 L329.34 515.127 L317.905 515.127 L317.905 522.011 Q318.732 521.729 319.56 521.597 Q320.388 521.447 321.215 521.447 Q325.917 521.447 328.663 524.023 Q331.409 526.6 331.409 531.001 Q331.409 535.534 328.588 538.054 Q325.767 540.555 320.632 540.555 Q318.864 540.555 317.021 540.254 Q315.197 539.954 313.241 539.352 L313.241 535.534 Q314.933 536.455 316.739 536.907 Q318.544 537.358 320.557 537.358 Q323.811 537.358 325.71 535.647 Q327.61 533.935 327.61 531.001 Q327.61 528.067 325.71 526.356 Q323.811 524.644 320.557 524.644 Q319.033 524.644 317.51 524.983 Q316.005 525.321 314.425 526.036 L314.425 511.93 Z" fill="#000000" fill-rule="nonzero" fill-opacity="1" /><path clip-path="url(#clip650)" d="M115.445 283.303 L123.084 283.303 L123.084 256.938 L114.774 258.604 L114.774 254.345 L123.038 252.679 L127.713 252.679 L127.713 283.303 L135.352 283.303 L135.352 287.239 L115.445 287.239 L115.445 283.303 Z" fill="#000000" fill-rule="nonzero" fill-opacity="1" /><path clip-path="url(#clip650)" d="M144.797 281.359 L149.681 281.359 L149.681 287.239 L144.797 287.239 L144.797 281.359 Z" fill="#000000" fill-rule="nonzero" fill-opacity="1" /><path clip-path="url(#clip650)" d="M169.866 255.757 Q166.255 255.757 164.426 259.322 Q162.621 262.864 162.621 269.993 Q162.621 277.1 164.426 280.664 Q166.255 284.206 169.866 284.206 Q173.5 284.206 175.306 280.664 Q177.135 277.1 177.135 269.993 Q177.135 262.864 175.306 259.322 Q173.5 255.757 169.866 255.757 M169.866 252.054 Q175.676 252.054 178.732 256.66 Q181.81 261.243 181.81 269.993 Q181.81 278.72 178.732 283.326 Q175.676 287.91 169.866 287.91 Q164.056 287.91 160.977 283.326 Q157.922 278.72 157.922 269.993 Q157.922 261.243 160.977 256.66 Q164.056 252.054 169.866 252.054 Z" fill="#000000" fill-rule="nonzero" fill-opacity="1" /><path clip-path="url(#clip650)" d="M200.028 255.757 Q196.417 255.757 194.588 259.322 Q192.783 262.864 192.783 269.993 Q192.783 277.1 194.588 280.664 Q196.417 284.206 200.028 284.206 Q203.662 284.206 205.468 280.664 Q207.296 277.1 207.296 269.993 Q207.296 262.864 205.468 259.322 Q203.662 255.757 200.028 255.757 M200.028 252.054 Q205.838 252.054 208.894 256.66 Q211.972 261.243 211.972 269.993 Q211.972 278.72 208.894 283.326 Q205.838 287.91 200.028 287.91 Q194.218 287.91 191.139 283.326 Q188.084 278.72 188.084 269.993 Q188.084 261.243 191.139 256.66 Q194.218 252.054 200.028 252.054 Z" fill="#000000" fill-rule="nonzero" fill-opacity="1" /><path clip-path="url(#clip650)" d="M248.361 261.776 L237.782 272.401 L248.361 282.979 L245.606 285.78 L234.981 275.155 L224.357 285.78 L221.625 282.979 L232.181 272.401 L221.625 261.776 L224.357 258.975 L234.981 269.6 L245.606 258.975 L248.361 261.776 Z" fill="#000000" fill-rule="nonzero" fill-opacity="1" /><path clip-path="url(#clip650)" d="M260.722 283.303 L268.361 283.303 L268.361 256.938 L260.051 258.604 L260.051 254.345 L268.315 252.679 L272.99 252.679 L272.99 283.303 L280.629 283.303 L280.629 287.239 L260.722 287.239 L260.722 283.303 Z" fill="#000000" fill-rule="nonzero" fill-opacity="1" /><path clip-path="url(#clip650)" d="M300.074 255.757 Q296.463 255.757 294.634 259.322 Q292.828 262.864 292.828 269.993 Q292.828 277.1 294.634 280.664 Q296.463 284.206 300.074 284.206 Q303.708 284.206 305.513 280.664 Q307.342 277.1 307.342 269.993 Q307.342 262.864 305.513 259.322 Q303.708 255.757 300.074 255.757 M300.074 252.054 Q305.884 252.054 308.939 256.66 Q312.018 261.243 312.018 269.993 Q312.018 278.72 308.939 283.326 Q305.884 287.91 300.074 287.91 Q294.264 287.91 291.185 283.326 Q288.129 278.72 288.129 269.993 Q288.129 261.243 291.185 256.66 Q294.264 252.054 300.074 252.054 Z" fill="#000000" fill-rule="nonzero" fill-opacity="1" /><path clip-path="url(#clip650)" d="M322.043 244.274 Q319.485 244.274 317.98 246.023 Q316.494 247.772 316.494 250.819 Q316.494 253.847 317.98 255.615 Q319.485 257.364 322.043 257.364 Q324.6 257.364 326.086 255.615 Q327.591 253.847 327.591 250.819 Q327.591 247.772 326.086 246.023 Q324.6 244.274 322.043 244.274 M329.585 232.369 L329.585 235.829 Q328.155 235.152 326.688 234.795 Q325.24 234.438 323.811 234.438 Q320.049 234.438 318.055 236.977 Q316.081 239.516 315.798 244.65 Q316.908 243.014 318.582 242.149 Q320.256 241.265 322.268 241.265 Q326.5 241.265 328.945 243.842 Q331.409 246.399 331.409 250.819 Q331.409 255.145 328.851 257.759 Q326.293 260.374 322.043 260.374 Q317.171 260.374 314.595 256.65 Q312.018 252.907 312.018 245.816 Q312.018 239.158 315.178 235.209 Q318.337 231.24 323.66 231.24 Q325.089 231.24 326.538 231.522 Q328.005 231.805 329.585 232.369 Z" fill="#000000" fill-rule="nonzero" fill-opacity="1" /><path clip-path="url(#clip650)" d="M16.4842 998.482 L16.4842 992.052 L35.9632 992.052 L35.9632 968.69 L16.4842 968.69 L16.4842 962.261 L64.0042 962.261 L64.0042 968.69 L41.3741 968.69 L41.3741 992.052 L64.0042 992.052 L64.0042 998.482 L16.4842 998.482 Z" fill="#000000" fill-rule="nonzero" fill-opacity="1" /><path clip-path="url(#clip650)" d="M32.4621 935.907 Q32.4621 940.617 36.1542 943.355 Q39.8145 946.092 46.212 946.092 Q52.6095 946.092 56.3017 943.386 Q59.9619 940.649 59.9619 935.907 Q59.9619 931.228 56.2698 928.491 Q52.5777 925.753 46.212 925.753 Q39.8781 925.753 36.186 928.491 Q32.4621 931.228 32.4621 935.907 M27.4968 935.907 Q27.4968 928.268 32.4621 923.907 Q37.4273 919.547 46.212 919.547 Q54.9649 919.547 59.9619 923.907 Q64.9272 928.268 64.9272 935.907 Q64.9272 943.577 59.9619 947.938 Q54.9649 952.267 46.212 952.267 Q37.4273 952.267 32.4621 947.938 Q27.4968 943.577 27.4968 935.907 Z" fill="#000000" fill-rule="nonzero" fill-opacity="1" /><path clip-path="url(#clip650)" d="M29.4065 887.114 L34.9447 887.114 Q33.6716 889.596 33.035 892.27 Q32.3984 894.943 32.3984 897.808 Q32.3984 902.169 33.7352 904.365 Q35.072 906.529 37.7456 906.529 Q39.7826 906.529 40.9603 904.969 Q42.1061 903.41 43.1565 898.699 L43.6021 896.694 Q44.9389 890.456 47.3897 887.846 Q49.8086 885.204 54.1691 885.204 Q59.1344 885.204 62.0308 889.151 Q64.9272 893.066 64.9272 899.941 Q64.9272 902.805 64.3543 905.924 Q63.8132 909.012 62.6992 912.449 L56.6518 912.449 Q58.3387 909.203 59.198 906.052 Q60.0256 902.901 60.0256 899.813 Q60.0256 895.676 58.6251 893.448 Q57.1929 891.22 54.6147 891.22 Q52.2276 891.22 50.9545 892.843 Q49.6813 894.434 48.5037 899.877 L48.0262 901.914 Q46.8804 907.357 44.5251 909.776 Q42.138 912.195 38.0002 912.195 Q32.9713 912.195 30.2341 908.63 Q27.4968 905.065 27.4968 898.508 Q27.4968 895.262 27.9743 892.397 Q28.4517 889.533 29.4065 887.114 Z" fill="#000000" fill-rule="nonzero" fill-opacity="1" /><path clip-path="url(#clip650)" d="M58.657 870.213 L77.5631 870.213 L77.5631 876.101 L28.3562 876.101 L28.3562 870.213 L33.7671 870.213 Q30.5842 868.367 29.0564 865.566 Q27.4968 862.733 27.4968 858.818 Q27.4968 852.325 32.6531 848.283 Q37.8093 844.209 46.212 844.209 Q54.6147 844.209 59.771 848.283 Q64.9272 852.325 64.9272 858.818 Q64.9272 862.733 63.3994 865.566 Q61.8398 868.367 58.657 870.213 M46.212 850.288 Q39.7508 850.288 36.0905 852.962 Q32.3984 855.603 32.3984 860.25 Q32.3984 864.897 36.0905 867.571 Q39.7508 870.213 46.212 870.213 Q52.6732 870.213 56.3653 867.571 Q60.0256 864.897 60.0256 860.25 Q60.0256 855.603 56.3653 852.962 Q52.6732 850.288 46.212 850.288 Z" fill="#000000" fill-rule="nonzero" fill-opacity="1" /><path clip-path="url(#clip650)" d="M32.4621 799.967 Q32.4621 804.678 36.1542 807.415 Q39.8145 810.152 46.212 810.152 Q52.6095 810.152 56.3017 807.447 Q59.9619 804.71 59.9619 799.967 Q59.9619 795.288 56.2698 792.551 Q52.5777 789.814 46.212 789.814 Q39.8781 789.814 36.186 792.551 Q32.4621 795.288 32.4621 799.967 M27.4968 799.967 Q27.4968 792.328 32.4621 787.968 Q37.4273 783.607 46.212 783.607 Q54.9649 783.607 59.9619 787.968 Q64.9272 792.328 64.9272 799.967 Q64.9272 807.638 59.9619 811.998 Q54.9649 816.327 46.212 816.327 Q37.4273 816.327 32.4621 811.998 Q27.4968 807.638 27.4968 799.967 Z" fill="#000000" fill-rule="nonzero" fill-opacity="1" /><path clip-path="url(#clip650)" d="M29.7248 748.246 L35.1993 748.246 Q33.8307 750.728 33.1623 753.243 Q32.4621 755.725 32.4621 758.272 Q32.4621 763.969 36.0905 767.12 Q39.6872 770.271 46.212 770.271 Q52.7369 770.271 56.3653 767.12 Q59.9619 763.969 59.9619 758.272 Q59.9619 755.725 59.2935 753.243 Q58.5933 750.728 57.2247 748.246 L62.6355 748.246 Q63.7814 750.697 64.3543 753.338 Q64.9272 755.948 64.9272 758.908 Q64.9272 766.961 59.8664 771.703 Q54.8057 776.446 46.212 776.446 Q37.491 776.446 32.4939 771.672 Q27.4968 766.865 27.4968 758.526 Q27.4968 755.821 28.0697 753.243 Q28.6108 750.665 29.7248 748.246 Z" fill="#000000" fill-rule="nonzero" fill-opacity="1" /><path clip-path="url(#clip650)" d="M29.7248 712.407 L35.1993 712.407 Q33.8307 714.889 33.1623 717.404 Q32.4621 719.887 32.4621 722.433 Q32.4621 728.13 36.0905 731.281 Q39.6872 734.432 46.212 734.432 Q52.7369 734.432 56.3653 731.281 Q59.9619 728.13 59.9619 722.433 Q59.9619 719.887 59.2935 717.404 Q58.5933 714.889 57.2247 712.407 L62.6355 712.407 Q63.7814 714.858 64.3543 717.499 Q64.9272 720.109 64.9272 723.069 Q64.9272 731.122 59.8664 735.864 Q54.8057 740.607 46.212 740.607 Q37.491 740.607 32.4939 735.833 Q27.4968 731.027 27.4968 722.687 Q27.4968 719.982 28.0697 717.404 Q28.6108 714.826 29.7248 712.407 Z" fill="#000000" fill-rule="nonzero" fill-opacity="1" /><path clip-path="url(#clip650)" d="M49.9359 702.826 L28.3562 702.826 L28.3562 696.97 L49.7131 696.97 Q54.7739 696.97 57.3202 694.997 Q59.8346 693.023 59.8346 689.077 Q59.8346 684.334 56.8109 681.597 Q53.7872 678.828 48.5673 678.828 L28.3562 678.828 L28.3562 672.971 L64.0042 672.971 L64.0042 678.828 L58.5296 678.828 Q61.7762 680.96 63.3676 683.793 Q64.9272 686.594 64.9272 690.318 Q64.9272 696.461 61.1078 699.644 Q57.2883 702.826 49.9359 702.826 M27.4968 688.09 L27.4968 688.09 Z" fill="#000000" fill-rule="nonzero" fill-opacity="1" /><path clip-path="url(#clip650)" d="M58.657 655.243 L77.5631 655.243 L77.5631 661.131 L28.3562 661.131 L28.3562 655.243 L33.7671 655.243 Q30.5842 653.397 29.0564 650.596 Q27.4968 647.763 27.4968 643.848 Q27.4968 637.355 32.6531 633.313 Q37.8093 629.239 46.212 629.239 Q54.6147 629.239 59.771 633.313 Q64.9272 637.355 64.9272 643.848 Q64.9272 647.763 63.3994 650.596 Q61.8398 653.397 58.657 655.243 M46.212 635.318 Q39.7508 635.318 36.0905 637.992 Q32.3984 640.633 32.3984 645.28 Q32.3984 649.927 36.0905 652.601 Q39.7508 655.243 46.212 655.243 Q52.6732 655.243 56.3653 652.601 Q60.0256 649.927 60.0256 645.28 Q60.0256 640.633 56.3653 637.992 Q52.6732 635.318 46.212 635.318 Z" fill="#000000" fill-rule="nonzero" fill-opacity="1" /><path clip-path="url(#clip650)" d="M46.0847 603.33 Q46.0847 610.428 47.7079 613.165 Q49.3312 615.903 53.2461 615.903 Q56.3653 615.903 58.2114 613.866 Q60.0256 611.797 60.0256 608.264 Q60.0256 603.394 56.5881 600.466 Q53.1188 597.506 47.3897 597.506 L46.0847 597.506 L46.0847 603.33 M43.6657 591.649 L64.0042 591.649 L64.0042 597.506 L58.5933 597.506 Q61.8398 599.511 63.3994 602.503 Q64.9272 605.495 64.9272 609.823 Q64.9272 615.298 61.8716 618.544 Q58.7843 621.759 53.6281 621.759 Q47.6125 621.759 44.5569 617.749 Q41.5014 613.707 41.5014 605.718 L41.5014 597.506 L40.9285 597.506 Q36.8862 597.506 34.6901 600.179 Q32.4621 602.821 32.4621 607.627 Q32.4621 610.683 33.1941 613.579 Q33.9262 616.476 35.3903 619.149 L29.9795 619.149 Q28.7381 615.935 28.1334 612.911 Q27.4968 609.887 27.4968 607.023 Q27.4968 599.288 31.5072 595.469 Q35.5176 591.649 43.6657 591.649 Z" fill="#000000" fill-rule="nonzero" fill-opacity="1" /><path clip-path="url(#clip650)" d="M42.4881 549.954 L64.0042 549.954 L64.0042 555.81 L42.679 555.81 Q37.6183 555.81 35.1038 557.784 Q32.5894 559.757 32.5894 563.704 Q32.5894 568.446 35.6131 571.184 Q38.6368 573.921 43.8567 573.921 L64.0042 573.921 L64.0042 579.809 L28.3562 579.809 L28.3562 573.921 L33.8944 573.921 Q30.6797 571.82 29.0883 568.987 Q27.4968 566.123 27.4968 562.399 Q27.4968 556.256 31.3163 553.105 Q35.1038 549.954 42.4881 549.954 Z" fill="#000000" fill-rule="nonzero" fill-opacity="1" /><path clip-path="url(#clip650)" d="M29.7248 512.619 L35.1993 512.619 Q33.8307 515.102 33.1623 517.616 Q32.4621 520.099 32.4621 522.645 Q32.4621 528.342 36.0905 531.493 Q39.6872 534.644 46.212 534.644 Q52.7369 534.644 56.3653 531.493 Q59.9619 528.342 59.9619 522.645 Q59.9619 520.099 59.2935 517.616 Q58.5933 515.102 57.2247 512.619 L62.6355 512.619 Q63.7814 515.07 64.3543 517.712 Q64.9272 520.322 64.9272 523.282 Q64.9272 531.334 59.8664 536.077 Q54.8057 540.819 46.212 540.819 Q37.491 540.819 32.4939 536.045 Q27.4968 531.239 27.4968 522.9 Q27.4968 520.194 28.0697 517.616 Q28.6108 515.038 29.7248 512.619 Z" fill="#000000" fill-rule="nonzero" fill-opacity="1" /><path clip-path="url(#clip650)" d="M67.3143 487.602 Q73.68 490.085 75.6216 492.44 Q77.5631 494.795 77.5631 498.742 L77.5631 503.421 L72.6615 503.421 L72.6615 499.983 Q72.6615 497.564 71.5157 496.227 Q70.3699 494.891 66.1048 493.267 L63.4312 492.217 L28.3562 506.635 L28.3562 500.429 L56.238 489.289 L28.3562 478.149 L28.3562 471.942 L67.3143 487.602 Z" fill="#000000" fill-rule="nonzero" fill-opacity="1" /><polyline clip-path="url(#clip651)" style="stroke:#009af9; stroke-linecap:round; stroke-linejoin:round; stroke-width:4; stroke-opacity:1; fill:none" points="423.598,1384.24 426.72,1384.24 429.841,1384.24 432.963,1384.23 436.084,1384.23 439.206,1384.23 442.328,1384.23 445.449,1384.23 448.571,1384.23 451.692,1384.23 454.814,1384.23 457.936,1384.23 461.057,1384.23 464.179,1384.22 467.301,1384.22 470.422,1384.22 473.544,1384.22 476.665,1384.21 479.787,1384.21 482.909,1384.2 486.03,1384.2 489.152,1384.19 492.273,1384.18 495.395,1384.17 498.517,1384.16 501.638,1384.15 504.76,1384.13 507.882,1384.11 511.003,1384.09 514.125,1384.07 517.246,1384.04 520.368,1384 523.49,1383.96 526.611,1383.91 529.733,1383.86 532.854,1383.79 535.976,1383.71 539.098,1383.62 542.219,1383.51 545.341,1383.39 548.463,1383.24 551.584,1383.07 554.706,1382.86 557.827,1382.63 560.949,1382.35 564.071,1382.02 567.192,1381.63 570.314,1381.18 573.435,1380.65 576.557,1380.03 579.679,1379.31 582.8,1378.45 585.922,1377.45 589.044,1376.28 592.165,1374.91 595.287,1373.31 598.408,1371.43 601.53,1369.23 604.652,1366.65 607.773,1363.65 610.895,1360.14 614.016,1356.04 617.138,1351.31 620.26,1346.05 623.381,1340.32 626.503,1334.14 629.625,1327.49 632.746,1320.35 635.868,1312.67 638.989,1304.43 642.111,1295.59 645.233,1286.1 648.354,1275.92 651.476,1265.02 654.597,1253.36 657.719,1240.91 660.841,1227.63 663.962,1213.5 667.084,1198.5 670.206,1182.61 673.327,1165.82 676.449,1148.14 679.57,1129.58 682.692,1110.15 685.814,1089.89 688.935,1068.85 692.057,1047.08 695.178,1024.65 698.3,1001.65 701.422,978.173 704.543,954.329 707.665,930.239 710.787,906.031 713.908,881.844 717.03,857.823 720.151,834.116 723.273,810.872 726.395,788.241 729.516,766.369 732.638,745.396 735.759,725.455 738.881,706.668 742.003,689.146 745.124,672.988 748.246,658.276 751.368,645.081 754.489,633.454 757.611,623.435 760.732,615.044 763.854,608.289 766.976,603.165 770.097,599.65 773.219,597.713 776.34,597.185 779.462,597.539 782.584,598.446 785.705,599.779 788.827,601.514 791.948,603.672 795.07,606.295 798.192,609.429 801.313,613.114 804.435,617.384 807.557,622.263 810.678,627.766 813.8,633.898 816.921,640.659 820.043,648.037 823.165,656.018 826.286,664.579 829.408,673.696 832.529,683.337 835.651,693.47 838.773,704.058 841.894,715.065 845.016,726.452 848.138,738.18 851.259,750.208 854.381,762.498 857.502,775.01 860.624,787.708 863.746,800.553 866.867,813.512 869.989,826.548 873.11,839.632 876.232,852.731 879.354,865.818 882.475,878.865 885.597,891.847 888.719,904.742 891.84,917.528 894.962,930.187 898.083,942.699 901.205,955.05 904.327,967.226 907.448,979.213 910.57,991.001 913.691,1002.58 916.813,1013.94 919.935,1025.08 923.056,1035.98 926.178,1046.66 929.3,1057.09 932.421,1067.28 935.543,1077.23 938.664,1086.93 941.786,1096.38 944.908,1105.6 948.029,1114.56 951.151,1123.29 954.272,1131.77 957.394,1140.02 960.516,1148.03 963.637,1155.8 966.759,1163.35 969.881,1170.67 973.002,1177.77 976.124,1184.65 979.245,1191.32 982.367,1197.78 985.489,1204.04 988.61,1210.09 991.732,1215.95 994.853,1221.62 997.975,1227.1 1001.1,1232.4 1004.22,1237.52 1007.34,1242.47 1010.46,1247.25 1013.58,1251.87 1016.7,1256.34 1019.83,1260.65 1022.95,1264.81 1026.07,1268.82 1029.19,1272.7 1032.31,1276.43 1035.43,1280.04 1038.56,1283.52 1041.68,1286.88 1044.8,1290.11 1047.92,1293.23 1051.04,1296.24 1054.16,1299.13 1057.29,1301.93 1060.41,1304.62 1063.53,1307.21 1066.65,1309.71 1069.77,1312.11 1072.89,1314.43 1076.02,1316.66 1079.14,1318.81 1082.26,1320.87 1085.38,1322.86 1088.5,1324.78 1091.62,1326.62 1094.75,1328.4 1097.87,1330.11 1100.99,1331.75 1104.11,1333.33 1107.23,1334.85 1110.35,1336.31 1113.47,1337.71 1116.6,1339.06 1119.72,1340.36 1122.84,1341.6 1125.96,1342.8 1129.08,1343.95 1132.2,1345.06 1135.33,1346.12 1138.45,1347.14 1141.57,1348.11 1144.69,1349.05 1147.81,1349.95 1150.93,1350.81 1154.06,1351.64 1157.18,1352.43 1160.3,1353.19 1163.42,1353.92 1166.54,1354.61 1169.66,1355.28 1172.79,1355.91 1175.91,1356.52 1179.03,1357.1 1182.15,1357.66 1185.27,1358.18 1188.39,1358.69 1191.52,1359.17 1194.64,1359.62 1197.76,1360.05 1200.88,1360.47 1204,1360.85 1207.12,1361.22 1210.24,1361.57 1213.37,1361.9 1216.49,1362.21 1219.61,1362.5 1222.73,1362.77 1225.85,1363.03 1228.97,1363.26 1232.1,1363.48 1235.22,1363.69 1238.34,1363.87 1241.46,1364.04 1244.58,1364.2 1247.7,1364.34 1250.83,1364.46 1253.95,1364.57 1257.07,1364.66 1260.19,1364.74 1263.31,1364.8 1266.43,1364.85 1269.56,1364.89 1272.68,1364.91 1275.8,1364.91 1278.92,1364.9 1282.04,1364.88 1285.16,1364.85 1288.29,1364.8 1291.41,1364.73 1294.53,1364.65 1297.65,1364.56 1300.77,1364.45 1303.89,1364.33 1307.01,1364.19 1310.14,1364.04 1313.26,1363.87 1316.38,1363.69 1319.5,1363.49 1322.62,1363.27 1325.74,1363.04 1328.87,1362.8 1331.99,1362.53 1335.11,1362.25 1338.23,1361.96 1341.35,1361.64 1344.47,1361.31 1347.6,1360.96 1350.72,1360.63 1353.84,1360.31 1356.96,1360.03 1360.08,1359.78 1363.2,1359.57 1366.33,1359.39 1369.45,1359.23 1372.57,1359.11 1375.69,1359.01 1378.81,1358.94 1381.93,1358.89 1385.06,1358.86 1388.18,1358.85 1391.3,1358.86 1394.42,1358.88 1397.54,1358.92 1400.66,1358.98 1403.78,1359.04 1406.91,1359.12 1410.03,1359.21 1413.15,1359.31 1416.27,1359.41 1419.39,1359.53 1422.51,1359.65 1425.64,1359.78 1428.76,1359.91 1431.88,1360.05 1435,1360.19 1438.12,1360.33 1441.24,1360.48 1444.37,1360.64 1447.49,1360.79 1450.61,1360.94 1453.73,1361.1 1456.85,1361.26 1459.97,1361.42 1463.1,1361.58 1466.22,1361.73 1469.34,1361.89 1472.46,1362.05 1475.58,1362.21 1478.7,1362.36 1481.83,1362.51 1484.95,1362.67 1488.07,1362.82 1491.19,1362.96 1494.31,1363.11 1497.43,1363.25 1500.56,1363.4 1503.68,1363.53 1506.8,1363.67 1509.92,1363.8 1513.04,1363.94 1516.16,1364.06 1519.28,1364.19 1522.41,1364.31 1525.53,1364.43 1528.65,1364.54 1531.77,1364.65 1534.89,1364.76 1538.01,1364.86 1541.14,1364.97 1544.26,1365.06 1547.38,1365.16 1550.5,1365.25 1553.62,1365.33 1556.74,1365.42 1559.87,1365.49 1562.99,1365.57 1566.11,1365.64 1569.23,1365.71 1572.35,1365.77 1575.47,1365.83 1578.6,1365.89 1581.72,1365.94 1584.84,1365.99 1587.96,1366.03 1591.08,1366.07 1594.2,1366.11 1597.33,1366.14 1600.45,1366.17 1603.57,1366.19 1606.69,1366.21 1609.81,1366.23 1612.93,1366.24 1616.05,1366.25 1619.18,1366.25 1622.3,1366.25 1625.42,1366.24 1628.54,1366.23 1631.66,1366.22 1634.78,1366.2 1637.91,1366.18 1641.03,1366.16 1644.15,1366.13 1647.27,1366.09 1650.39,1366.05 1653.51,1366.01 1656.64,1365.96 1659.76,1365.91 1662.88,1365.85 1666,1365.79 1669.12,1365.72 1672.24,1365.65 1675.37,1365.58 1678.49,1365.5 1681.61,1365.41 1684.73,1365.32 1687.85,1365.23 1690.97,1365.13 1694.1,1365.02 1697.22,1364.92 1700.34,1364.8 1703.46,1364.68 1706.58,1364.56 1709.7,1364.43 1712.82,1364.29 1715.95,1364.15 1719.07,1364 1722.19,1363.85 1725.31,1363.69 1728.43,1363.53 1731.55,1363.36 1734.68,1363.18 1737.8,1363 1740.92,1362.81 1744.04,1362.62 1747.16,1362.42 1750.28,1362.21 1753.41,1362 1756.53,1361.78 1759.65,1361.55 1762.77,1361.32 1765.89,1361.08 1769.01,1360.83 1772.14,1360.58 1775.26,1360.32 1778.38,1360.05 1781.5,1359.77 1784.62,1359.48 1787.74,1359.19 1790.87,1358.89 1793.99,1358.58 1797.11,1358.27 1800.23,1357.94 1803.35,1357.6 1806.47,1357.26 1809.59,1356.91 1812.72,1356.55 1815.84,1356.18 1818.96,1355.8 1822.08,1355.41 1825.2,1355.01 1828.32,1354.6 1831.45,1354.18 1834.57,1353.75 1837.69,1353.31 1840.81,1352.86 1843.93,1352.4 1847.05,1351.92 1850.18,1351.44 1853.3,1350.94 1856.42,1350.44 1859.54,1349.92 1862.66,1349.39 1865.78,1348.84 1868.91,1348.29 1872.03,1347.72 1875.15,1347.14 1878.27,1346.54 1881.39,1345.94 1884.51,1345.32 1887.64,1344.68 1890.76,1344.03 1893.88,1343.37 1897,1342.7 1900.12,1342.01 1903.24,1341.3 1906.36,1340.58 1909.49,1339.85 1912.61,1339.1 1915.73,1338.33 1918.85,1337.55 1921.97,1336.76 1925.09,1335.95 1928.22,1335.12 1931.34,1334.28 1934.46,1333.42 1937.58,1332.55 1940.7,1331.66 1943.82,1330.75 1946.95,1329.83 1950.07,1328.89 1953.19,1327.93 1956.31,1326.96 1959.43,1325.97 1962.55,1324.97 1965.68,1323.94 1968.8,1322.91 1971.92,1321.85 1975.04,1320.78 1978.16,1319.69 1981.28,1318.59 1984.41,1317.47 1987.53,1316.34 1990.65,1315.19 1993.77,1314.02 1996.89,1312.84 2000.01,1311.65 2003.14,1310.44 2006.26,1309.22 2009.38,1307.98 2012.5,1306.73 2015.62,1305.46 2018.74,1304.18 2021.86,1302.9 2024.99,1301.59 2028.11,1300.28 2031.23,1298.96 2034.35,1297.63 2037.47,1296.29 2040.59,1294.93 2043.72,1293.58 2046.84,1292.21 2049.96,1290.84 2053.08,1289.46 2056.2,1288.07 2059.32,1286.69 2062.45,1285.29 2065.57,1283.9 2068.69,1282.51 2071.81,1281.11 2074.93,1279.72 2078.05,1278.32 2081.18,1276.93 2084.3,1275.55 2087.42,1274.16 2090.54,1272.79 2093.66,1271.42 2096.78,1270.06 2099.91,1268.7 2103.03,1267.36 2106.15,1266.03 2109.27,1264.71 2112.39,1263.41 2115.51,1262.12 2118.63,1260.85 2121.76,1259.6 2124.88,1258.36 2128,1257.14 2131.12,1255.95 2134.24,1254.78 2137.36,1253.63 2140.49,1252.5 2143.61,1251.4 2146.73,1250.33 2149.85,1249.28 2152.97,1248.27 2156.09,1247.28 2159.22,1246.32 2162.34,1245.4 2165.46,1244.51 2168.58,1243.65 2171.7,1242.83 2174.82,1242.04 2177.95,1241.28 2181.07,1240.57 2184.19,1239.89 2187.31,1239.25 2190.43,1238.64 2193.55,1238.08 2196.68,1237.55 2199.8,1237.06 2202.92,1236.62 2206.04,1236.21 2209.16,1235.84 2212.28,1235.52 2215.4,1235.23 2218.53,1234.99 2221.65,1234.78 2224.77,1234.62 2227.89,1234.5 2231.01,1234.42 2234.13,1234.37 2237.26,1234.37 2240.38,1234.41 2243.5,1234.48 2246.62,1234.6 2249.74,1234.75 2252.86,1234.95 2255.99,1235.17 2259.11,1235.44 2262.23,1235.74 2265.35,1236.08 2268.47,1236.45 2271.59,1236.86 2274.72,1237.3 2277.84,1237.78 2280.96,1238.28 2284.08,1238.82 2287.2,1239.38 2290.32,1239.98 2293.45,1240.61 2296.57,1241.26 "/>
<polyline clip-path="url(#clip651)" style="stroke:#e26f46; stroke-linecap:round; stroke-linejoin:round; stroke-width:4; stroke-opacity:1; fill:none" points="423.598,1384.24 426.72,1384.24 429.841,1384.24 432.963,1384.23 436.084,1384.23 439.206,1384.23 442.328,1384.23 445.449,1384.23 448.571,1384.23 451.692,1384.23 454.814,1384.23 457.936,1384.23 461.057,1384.23 464.179,1384.22 467.301,1384.22 470.422,1384.22 473.544,1384.22 476.665,1384.21 479.787,1384.21 482.909,1384.2 486.03,1384.2 489.152,1384.19 492.273,1384.18 495.395,1384.17 498.517,1384.16 501.638,1384.15 504.76,1384.13 507.882,1384.11 511.003,1384.09 514.125,1384.07 517.246,1384.04 520.368,1384 523.49,1383.96 526.611,1383.91 529.733,1383.86 532.854,1383.79 535.976,1383.71 539.098,1383.62 542.219,1383.51 545.341,1383.39 548.463,1383.24 551.584,1383.07 554.706,1382.86 557.827,1382.63 560.949,1382.35 564.071,1382.02 567.192,1381.63 570.314,1381.18 573.435,1380.65 576.557,1380.03 579.679,1379.31 582.8,1378.45 585.922,1377.45 589.044,1376.28 592.165,1374.91 595.287,1373.31 598.408,1371.43 601.53,1369.23 604.652,1366.65 607.773,1363.65 610.895,1360.14 614.016,1356.04 617.138,1351.26 620.26,1345.7 623.381,1339.23 626.503,1331.71 629.625,1323 632.746,1312.92 635.868,1301.29 638.989,1287.89 642.111,1272.51 645.233,1254.92 648.354,1234.87 651.476,1212.14 654.597,1186.47 657.719,1157.66 660.841,1125.52 663.962,1089.91 667.084,1050.76 670.206,1008.07 673.327,961.913 676.449,912.495 679.57,860.115 682.692,805.188 685.814,748.234 688.935,689.87 692.057,630.787 695.178,571.73 698.3,513.471 701.422,456.778 704.543,402.392 707.665,350.995 710.787,303.195 713.908,259.508 717.03,220.348 720.151,186.022 723.273,156.731 726.395,132.573 729.516,113.554 732.638,99.5931 735.759,90.5407 738.881,86.1857 742.003,86.27 745.124,90.5 748.246,98.5574 751.368,110.109 754.489,124.814 757.611,142.334 760.732,162.336 763.854,184.498 766.976,208.513 770.097,234.09 773.219,260.959 776.34,288.868 779.462,317.588 782.584,346.907 785.705,376.637 788.827,406.605 791.948,436.66 795.07,466.668 798.192,496.509 801.313,526.081 804.435,555.295 807.557,584.074 810.678,612.354 813.8,640.08 816.921,667.208 820.043,693.702 823.165,719.533 826.286,744.68 829.408,769.127 832.529,792.864 835.651,815.884 838.773,838.187 841.894,859.773 845.016,880.647 848.138,900.817 851.259,920.291 854.381,939.082 857.502,957.2 860.624,974.661 863.746,991.48 866.867,1007.67 869.989,1023.25 873.11,1038.24 876.232,1052.65 879.354,1066.5 882.475,1079.81 885.597,1092.59 888.719,1104.86 891.84,1116.65 894.962,1127.96 898.083,1138.81 901.205,1149.22 904.327,1159.21 907.448,1168.78 910.57,1177.96 913.691,1186.76 916.813,1195.2 919.935,1203.29 923.056,1211.03 926.178,1218.46 929.3,1225.57 932.421,1232.38 935.543,1238.9 938.664,1245.15 941.786,1251.14 944.908,1256.86 948.029,1262.35 951.151,1267.6 954.272,1272.63 957.394,1277.44 960.516,1282.05 963.637,1286.46 966.759,1290.68 969.881,1294.72 973.002,1298.58 976.124,1302.28 979.245,1305.82 982.367,1309.21 985.489,1312.45 988.61,1315.55 991.732,1318.51 994.853,1321.35 997.975,1324.07 1001.1,1326.66 1004.22,1329.15 1007.34,1331.52 1010.46,1333.8 1013.58,1335.97 1016.7,1338.05 1019.83,1340.04 1022.95,1341.94 1026.07,1343.76 1029.19,1345.5 1032.31,1347.17 1035.43,1348.76 1038.56,1350.29 1041.68,1351.74 1044.8,1353.13 1047.92,1354.47 1051.04,1355.74 1054.16,1356.96 1057.29,1358.12 1060.41,1359.24 1063.53,1360.3 1066.65,1361.32 1069.77,1362.3 1072.89,1363.23 1076.02,1364.12 1079.14,1364.97 1082.26,1365.78 1085.38,1366.56 1088.5,1367.31 1091.62,1368.02 1094.75,1368.7 1097.87,1369.35 1100.99,1369.97 1104.11,1370.57 1107.23,1371.13 1110.35,1371.68 1113.47,1372.2 1116.6,1372.69 1119.72,1373.17 1122.84,1373.62 1125.96,1374.06 1129.08,1374.47 1132.2,1374.87 1135.33,1375.25 1138.45,1375.61 1141.57,1375.95 1144.69,1376.28 1147.81,1376.6 1150.93,1376.9 1154.06,1377.19 1157.18,1377.47 1160.3,1377.73 1163.42,1377.98 1166.54,1378.22 1169.66,1378.45 1172.79,1378.67 1175.91,1378.88 1179.03,1379.08 1182.15,1379.27 1185.27,1379.45 1188.39,1379.62 1191.52,1379.79 1194.64,1379.94 1197.76,1380.09 1200.88,1380.24 1204,1380.37 1207.12,1380.5 1210.24,1380.63 1213.37,1380.74 1216.49,1380.86 1219.61,1380.96 1222.73,1381.06 1225.85,1381.16 1228.97,1381.25 1232.1,1381.34 1235.22,1381.42 1238.34,1381.5 1241.46,1381.57 1244.58,1381.64 1247.7,1381.71 1250.83,1381.77 1253.95,1381.83 1257.07,1381.88 1260.19,1381.93 1263.31,1381.98 1266.43,1382.02 1269.56,1382.07 1272.68,1382.1 1275.8,1382.14 1278.92,1382.17 1282.04,1382.2 1285.16,1382.23 1288.29,1382.25 1291.41,1382.28 1294.53,1382.3 1297.65,1382.31 1300.77,1382.33 1303.89,1382.34 1307.01,1382.35 1310.14,1382.36 1313.26,1382.36 1316.38,1382.36 1319.5,1382.36 1322.62,1382.36 1325.74,1382.36 1328.87,1382.35 1331.99,1382.34 1335.11,1382.33 1338.23,1382.31 1341.35,1382.3 1344.47,1382.28 1347.6,1382.26 1350.72,1382.23 1353.84,1382.21 1356.96,1382.18 1360.08,1382.14 1363.2,1382.11 1366.33,1382.07 1369.45,1382.03 1372.57,1381.99 1375.69,1381.94 1378.81,1381.89 1381.93,1381.84 1385.06,1381.78 1388.18,1381.72 1391.3,1381.65 1394.42,1381.59 1397.54,1381.51 1400.66,1381.44 1403.78,1381.35 1406.91,1381.27 1410.03,1381.18 1413.15,1381.08 1416.27,1380.98 1419.39,1380.87 1422.51,1380.76 1425.64,1380.64 1428.76,1380.52 1431.88,1380.38 1435,1380.24 1438.12,1380.1 1441.24,1379.94 1444.37,1379.78 1447.49,1379.61 1450.61,1379.43 1453.73,1379.24 1456.85,1379.03 1459.97,1378.82 1463.1,1378.6 1466.22,1378.36 1469.34,1378.11 1472.46,1377.85 1475.58,1377.58 1478.7,1377.28 1481.83,1376.98 1484.95,1376.65 1488.07,1376.31 1491.19,1375.95 1494.31,1375.57 1497.43,1375.17 1500.56,1374.74 1503.68,1374.3 1506.8,1373.82 1509.92,1373.32 1513.04,1372.8 1516.16,1372.24 1519.28,1371.65 1522.41,1371.03 1525.53,1370.38 1528.65,1369.68 1531.77,1368.95 1534.89,1368.18 1538.01,1367.36 1541.14,1366.5 1544.26,1365.59 1547.38,1364.62 1550.5,1363.6 1553.62,1362.53 1556.74,1361.39 1559.87,1360.19 1562.99,1358.92 1566.11,1357.58 1569.23,1356.16 1572.35,1354.66 1575.47,1353.08 1578.6,1351.41 1581.72,1349.65 1584.84,1347.79 1587.96,1345.83 1591.08,1343.76 1594.2,1341.57 1597.33,1339.27 1600.45,1336.84 1603.57,1334.29 1606.69,1331.6 1609.81,1328.77 1612.93,1325.79 1616.05,1322.66 1619.18,1319.37 1622.3,1315.92 1625.42,1312.3 1628.54,1308.5 1631.66,1304.53 1634.78,1300.37 1637.91,1296.02 1641.03,1291.48 1644.15,1286.74 1647.27,1281.8 1650.39,1276.67 1653.51,1271.33 1656.64,1265.79 1659.76,1260.04 1662.88,1254.1 1666,1247.95 1669.12,1241.62 1672.24,1235.09 1675.37,1228.39 1678.49,1221.51 1681.61,1214.47 1684.73,1207.27 1687.85,1199.94 1690.97,1192.48 1694.1,1184.91 1697.22,1177.25 1700.34,1169.52 1703.46,1161.74 1706.58,1153.93 1709.7,1146.11 1712.82,1138.31 1715.95,1130.55 1719.07,1122.86 1722.19,1115.26 1725.31,1107.78 1728.43,1100.45 1731.55,1093.29 1734.68,1086.33 1737.8,1079.59 1740.92,1073.1 1744.04,1066.88 1747.16,1060.95 1750.28,1055.34 1753.41,1050.06 1756.53,1045.13 1759.65,1040.56 1762.77,1036.38 1765.89,1032.58 1769.01,1029.18 1772.14,1026.18 1775.26,1023.6 1778.38,1021.43 1781.5,1019.67 1784.62,1018.32 1787.74,1017.39 1790.87,1016.85 1793.99,1016.72 1797.11,1016.97 1800.23,1017.6 1803.35,1018.6 1806.47,1019.96 1809.59,1021.66 1812.72,1023.69 1815.84,1026.03 1818.96,1028.67 1822.08,1031.59 1825.2,1034.78 1828.32,1038.21 1831.45,1041.88 1834.57,1045.76 1837.69,1049.85 1840.81,1054.11 1843.93,1058.54 1847.05,1063.13 1850.18,1067.85 1853.3,1072.68 1856.42,1077.63 1859.54,1082.66 1862.66,1087.77 1865.78,1092.95 1868.91,1098.18 1872.03,1103.44 1875.15,1108.74 1878.27,1114.06 1881.39,1119.38 1884.51,1124.71 1887.64,1130.02 1890.76,1135.32 1893.88,1140.59 1897,1145.83 1900.12,1151.03 1903.24,1156.18 1906.36,1161.28 1909.49,1166.33 1912.61,1171.32 1915.73,1176.24 1918.85,1181.09 1921.97,1185.88 1925.09,1190.59 1928.22,1195.22 1931.34,1199.77 1934.46,1204.24 1937.58,1208.63 1940.7,1212.94 1943.82,1217.16 1946.95,1221.29 1950.07,1225.34 1953.19,1229.3 1956.31,1233.18 1959.43,1236.97 1962.55,1240.67 1965.68,1244.28 1968.8,1247.81 1971.92,1251.25 1975.04,1254.61 1978.16,1257.88 1981.28,1261.07 1984.41,1264.18 1987.53,1267.21 1990.65,1270.16 1993.77,1273.03 1996.89,1275.82 2000.01,1278.53 2003.14,1281.17 2006.26,1283.74 2009.38,1286.23 2012.5,1288.65 2015.62,1291 2018.74,1293.29 2021.86,1295.51 2024.99,1297.66 2028.11,1299.74 2031.23,1301.77 2034.35,1303.73 2037.47,1305.63 2040.59,1307.48 2043.72,1309.27 2046.84,1311 2049.96,1312.67 2053.08,1314.3 2056.2,1315.87 2059.32,1317.39 2062.45,1318.86 2065.57,1320.28 2068.69,1321.66 2071.81,1322.99 2074.93,1324.28 2078.05,1325.52 2081.18,1326.72 2084.3,1327.87 2087.42,1328.99 2090.54,1330.07 2093.66,1331.11 2096.78,1332.11 2099.91,1333.08 2103.03,1334.01 2106.15,1334.9 2109.27,1335.76 2112.39,1336.59 2115.51,1337.39 2118.63,1338.15 2121.76,1338.89 2124.88,1339.59 2128,1340.27 2131.12,1340.91 2134.24,1341.53 2137.36,1342.13 2140.49,1342.69 2143.61,1343.23 2146.73,1343.74 2149.85,1344.23 2152.97,1344.7 2156.09,1345.14 2159.22,1345.56 2162.34,1345.95 2165.46,1346.32 2168.58,1346.67 2171.7,1347 2174.82,1347.31 2177.95,1347.59 2181.07,1347.86 2184.19,1348.1 2187.31,1348.32 2190.43,1348.53 2193.55,1348.71 2196.68,1348.88 2199.8,1349.02 2202.92,1349.15 2206.04,1349.26 2209.16,1349.35 2212.28,1349.42 2215.4,1349.47 2218.53,1349.51 2221.65,1349.52 2224.77,1349.52 2227.89,1349.5 2231.01,1349.46 2234.13,1349.41 2237.26,1349.33 2240.38,1349.24 2243.5,1349.13 2246.62,1349 2249.74,1348.85 2252.86,1348.69 2255.99,1348.5 2259.11,1348.3 2262.23,1348.08 2265.35,1347.84 2268.47,1347.58 2271.59,1347.3 2274.72,1347 2277.84,1346.68 2280.96,1346.34 2284.08,1345.98 2287.2,1345.61 2290.32,1345.21 2293.45,1344.79 2296.57,1344.34 "/>
<path clip-path="url(#clip650)" d="M1785.98 248.629 L2286.58 248.629 L2286.58 93.1086 L1785.98 93.1086  Z" fill="#ffffff" fill-rule="evenodd" fill-opacity="1"/>
<polyline clip-path="url(#clip650)" style="stroke:#000000; stroke-linecap:round; stroke-linejoin:round; stroke-width:4; stroke-opacity:1; fill:none" points="1785.98,248.629 2286.58,248.629 2286.58,93.1086 1785.98,93.1086 1785.98,248.629 "/>
<polyline clip-path="url(#clip650)" style="stroke:#009af9; stroke-linecap:round; stroke-linejoin:round; stroke-width:4; stroke-opacity:1; fill:none" points="1808.04,144.949 1940.4,144.949 "/>
<path clip-path="url(#clip650)" d="M1962.46 127.669 L1967.14 127.669 L1967.14 141.835 L1984.13 141.835 L1984.13 127.669 L1988.8 127.669 L1988.8 162.229 L1984.13 162.229 L1984.13 145.77 L1967.14 145.77 L1967.14 162.229 L1962.46 162.229 L1962.46 127.669 Z" fill="#000000" fill-rule="nonzero" fill-opacity="1" /><path clip-path="url(#clip650)" d="M2007.97 139.289 Q2004.54 139.289 2002.55 141.974 Q2000.56 144.636 2000.56 149.289 Q2000.56 153.942 2002.53 156.627 Q2004.52 159.289 2007.97 159.289 Q2011.37 159.289 2013.36 156.604 Q2015.35 153.918 2015.35 149.289 Q2015.35 144.682 2013.36 141.997 Q2011.37 139.289 2007.97 139.289 M2007.97 135.678 Q2013.52 135.678 2016.7 139.289 Q2019.87 142.9 2019.87 149.289 Q2019.87 155.655 2016.7 159.289 Q2013.52 162.9 2007.97 162.9 Q2002.39 162.9 1999.22 159.289 Q1996.07 155.655 1996.07 149.289 Q1996.07 142.9 1999.22 139.289 Q2002.39 135.678 2007.97 135.678 Z" fill="#000000" fill-rule="nonzero" fill-opacity="1" /><path clip-path="url(#clip650)" d="M2043.45 137.067 L2043.45 141.094 Q2041.65 140.169 2039.7 139.706 Q2037.76 139.243 2035.68 139.243 Q2032.51 139.243 2030.91 140.215 Q2029.33 141.187 2029.33 143.131 Q2029.33 144.613 2030.47 145.469 Q2031.6 146.303 2035.03 147.067 L2036.49 147.391 Q2041.02 148.363 2042.92 150.145 Q2044.84 151.905 2044.84 155.076 Q2044.84 158.687 2041.97 160.793 Q2039.13 162.9 2034.13 162.9 Q2032.04 162.9 2029.77 162.483 Q2027.53 162.09 2025.03 161.28 L2025.03 156.881 Q2027.39 158.108 2029.68 158.733 Q2031.97 159.335 2034.22 159.335 Q2037.23 159.335 2038.85 158.317 Q2040.47 157.275 2040.47 155.4 Q2040.47 153.664 2039.29 152.738 Q2038.13 151.812 2034.17 150.956 L2032.69 150.608 Q2028.73 149.775 2026.97 148.062 Q2025.21 146.326 2025.21 143.317 Q2025.21 139.659 2027.81 137.669 Q2030.4 135.678 2035.17 135.678 Q2037.53 135.678 2039.61 136.025 Q2041.7 136.372 2043.45 137.067 Z" fill="#000000" fill-rule="nonzero" fill-opacity="1" /><path clip-path="url(#clip650)" d="M2055.75 158.34 L2055.75 172.09 L2051.46 172.09 L2051.46 136.303 L2055.75 136.303 L2055.75 140.238 Q2057.09 137.923 2059.13 136.812 Q2061.19 135.678 2064.03 135.678 Q2068.76 135.678 2071.7 139.428 Q2074.66 143.178 2074.66 149.289 Q2074.66 155.4 2071.7 159.15 Q2068.76 162.9 2064.03 162.9 Q2061.19 162.9 2059.13 161.789 Q2057.09 160.655 2055.75 158.34 M2070.24 149.289 Q2070.24 144.59 2068.29 141.928 Q2066.37 139.243 2062.99 139.243 Q2059.61 139.243 2057.67 141.928 Q2055.75 144.59 2055.75 149.289 Q2055.75 153.988 2057.67 156.673 Q2059.61 159.335 2062.99 159.335 Q2066.37 159.335 2068.29 156.673 Q2070.24 153.988 2070.24 149.289 Z" fill="#000000" fill-rule="nonzero" fill-opacity="1" /><path clip-path="url(#clip650)" d="M2094.31 136.303 L2098.57 136.303 L2103.89 156.534 L2109.2 136.303 L2114.22 136.303 L2119.54 156.534 L2124.84 136.303 L2129.1 136.303 L2122.32 162.229 L2117.3 162.229 L2111.72 140.979 L2106.12 162.229 L2101.09 162.229 L2094.31 136.303 Z" fill="#000000" fill-rule="nonzero" fill-opacity="1" /><path clip-path="url(#clip650)" d="M2143.13 127.669 L2147.07 127.669 L2135.03 166.627 L2131.09 166.627 L2143.13 127.669 Z" fill="#000000" fill-rule="nonzero" fill-opacity="1" /><path clip-path="url(#clip650)" d="M2166.79 127.669 L2173.08 127.669 L2188.41 156.581 L2188.41 127.669 L2192.94 127.669 L2192.94 162.229 L2186.65 162.229 L2171.32 133.317 L2171.32 162.229 L2166.79 162.229 L2166.79 127.669 Z" fill="#000000" fill-rule="nonzero" fill-opacity="1" /><path clip-path="url(#clip650)" d="M2206.93 131.511 L2206.93 144.497 L2212.81 144.497 Q2216.07 144.497 2217.85 142.807 Q2219.63 141.118 2219.63 137.993 Q2219.63 134.891 2217.85 133.201 Q2216.07 131.511 2212.81 131.511 L2206.93 131.511 M2202.25 127.669 L2212.81 127.669 Q2218.62 127.669 2221.58 130.307 Q2224.56 132.923 2224.56 137.993 Q2224.56 143.108 2221.58 145.724 Q2218.62 148.34 2212.81 148.34 L2206.93 148.34 L2206.93 162.229 L2202.25 162.229 L2202.25 127.669 Z" fill="#000000" fill-rule="nonzero" fill-opacity="1" /><path clip-path="url(#clip650)" d="M2230.84 127.669 L2235.51 127.669 L2235.51 162.229 L2230.84 162.229 L2230.84 127.669 Z" fill="#000000" fill-rule="nonzero" fill-opacity="1" /><polyline clip-path="url(#clip650)" style="stroke:#e26f46; stroke-linecap:round; stroke-linejoin:round; stroke-width:4; stroke-opacity:1; fill:none" points="1808.04,196.789 1940.4,196.789 "/>
<path clip-path="url(#clip650)" d="M1962.46 179.509 L1967.14 179.509 L1967.14 193.675 L1984.13 193.675 L1984.13 179.509 L1988.8 179.509 L1988.8 214.069 L1984.13 214.069 L1984.13 197.61 L1967.14 197.61 L1967.14 214.069 L1962.46 214.069 L1962.46 179.509 Z" fill="#000000" fill-rule="nonzero" fill-opacity="1" /><path clip-path="url(#clip650)" d="M2007.97 191.129 Q2004.54 191.129 2002.55 193.814 Q2000.56 196.476 2000.56 201.129 Q2000.56 205.782 2002.53 208.467 Q2004.52 211.129 2007.97 211.129 Q2011.37 211.129 2013.36 208.444 Q2015.35 205.758 2015.35 201.129 Q2015.35 196.522 2013.36 193.837 Q2011.37 191.129 2007.97 191.129 M2007.97 187.518 Q2013.52 187.518 2016.7 191.129 Q2019.87 194.74 2019.87 201.129 Q2019.87 207.495 2016.7 211.129 Q2013.52 214.74 2007.97 214.74 Q2002.39 214.74 1999.22 211.129 Q1996.07 207.495 1996.07 201.129 Q1996.07 194.74 1999.22 191.129 Q2002.39 187.518 2007.97 187.518 Z" fill="#000000" fill-rule="nonzero" fill-opacity="1" /><path clip-path="url(#clip650)" d="M2043.45 188.907 L2043.45 192.934 Q2041.65 192.009 2039.7 191.546 Q2037.76 191.083 2035.68 191.083 Q2032.51 191.083 2030.91 192.055 Q2029.33 193.027 2029.33 194.971 Q2029.33 196.453 2030.47 197.309 Q2031.6 198.143 2035.03 198.907 L2036.49 199.231 Q2041.02 200.203 2042.92 201.985 Q2044.84 203.745 2044.84 206.916 Q2044.84 210.527 2041.97 212.633 Q2039.13 214.74 2034.13 214.74 Q2032.04 214.74 2029.77 214.323 Q2027.53 213.93 2025.03 213.12 L2025.03 208.721 Q2027.39 209.948 2029.68 210.573 Q2031.97 211.175 2034.22 211.175 Q2037.23 211.175 2038.85 210.157 Q2040.47 209.115 2040.47 207.24 Q2040.47 205.504 2039.29 204.578 Q2038.13 203.652 2034.17 202.796 L2032.69 202.448 Q2028.73 201.615 2026.97 199.902 Q2025.21 198.166 2025.21 195.157 Q2025.21 191.499 2027.81 189.509 Q2030.4 187.518 2035.17 187.518 Q2037.53 187.518 2039.61 187.865 Q2041.7 188.212 2043.45 188.907 Z" fill="#000000" fill-rule="nonzero" fill-opacity="1" /><path clip-path="url(#clip650)" d="M2055.75 210.18 L2055.75 223.93 L2051.46 223.93 L2051.46 188.143 L2055.75 188.143 L2055.75 192.078 Q2057.09 189.763 2059.13 188.652 Q2061.19 187.518 2064.03 187.518 Q2068.76 187.518 2071.7 191.268 Q2074.66 195.018 2074.66 201.129 Q2074.66 207.24 2071.7 210.99 Q2068.76 214.74 2064.03 214.74 Q2061.19 214.74 2059.13 213.629 Q2057.09 212.495 2055.75 210.18 M2070.24 201.129 Q2070.24 196.43 2068.29 193.768 Q2066.37 191.083 2062.99 191.083 Q2059.61 191.083 2057.67 193.768 Q2055.75 196.43 2055.75 201.129 Q2055.75 205.828 2057.67 208.513 Q2059.61 211.175 2062.99 211.175 Q2066.37 211.175 2068.29 208.513 Q2070.24 205.828 2070.24 201.129 Z" fill="#000000" fill-rule="nonzero" fill-opacity="1" /><path clip-path="url(#clip650)" d="M2094.31 188.143 L2098.57 188.143 L2103.89 208.374 L2109.2 188.143 L2114.22 188.143 L2119.54 208.374 L2124.84 188.143 L2129.1 188.143 L2122.32 214.069 L2117.3 214.069 L2111.72 192.819 L2106.12 214.069 L2101.09 214.069 L2094.31 188.143 Z" fill="#000000" fill-rule="nonzero" fill-opacity="1" /><path clip-path="url(#clip650)" d="M2143.13 179.509 L2147.07 179.509 L2135.03 218.467 L2131.09 218.467 L2143.13 179.509 Z" fill="#000000" fill-rule="nonzero" fill-opacity="1" /><path clip-path="url(#clip650)" d="M2161.58 191.129 Q2158.15 191.129 2156.16 193.814 Q2154.17 196.476 2154.17 201.129 Q2154.17 205.782 2156.14 208.467 Q2158.13 211.129 2161.58 211.129 Q2164.98 211.129 2166.97 208.444 Q2168.96 205.758 2168.96 201.129 Q2168.96 196.522 2166.97 193.837 Q2164.98 191.129 2161.58 191.129 M2161.58 187.518 Q2167.13 187.518 2170.31 191.129 Q2173.48 194.74 2173.48 201.129 Q2173.48 207.495 2170.31 211.129 Q2167.13 214.74 2161.58 214.74 Q2156 214.74 2152.83 211.129 Q2149.68 207.495 2149.68 201.129 Q2149.68 194.74 2152.83 191.129 Q2156 187.518 2161.58 187.518 Z" fill="#000000" fill-rule="nonzero" fill-opacity="1" /><path clip-path="url(#clip650)" d="M2195.79 179.509 L2202.09 179.509 L2217.41 208.421 L2217.41 179.509 L2221.95 179.509 L2221.95 214.069 L2215.65 214.069 L2200.33 185.157 L2200.33 214.069 L2195.79 214.069 L2195.79 179.509 Z" fill="#000000" fill-rule="nonzero" fill-opacity="1" /><path clip-path="url(#clip650)" d="M2235.93 183.351 L2235.93 196.337 L2241.81 196.337 Q2245.07 196.337 2246.86 194.647 Q2248.64 192.958 2248.64 189.833 Q2248.64 186.731 2246.86 185.041 Q2245.07 183.351 2241.81 183.351 L2235.93 183.351 M2231.25 179.509 L2241.81 179.509 Q2247.62 179.509 2250.58 182.147 Q2253.57 184.763 2253.57 189.833 Q2253.57 194.948 2250.58 197.564 Q2247.62 200.18 2241.81 200.18 L2235.93 200.18 L2235.93 214.069 L2231.25 214.069 L2231.25 179.509 Z" fill="#000000" fill-rule="nonzero" fill-opacity="1" /><path clip-path="url(#clip650)" d="M2259.84 179.509 L2264.52 179.509 L2264.52 214.069 L2259.84 214.069 L2259.84 179.509 Z" fill="#000000" fill-rule="nonzero" fill-opacity="1" /></svg>
